<?xml version="1.0" encoding="utf-8"?>
<!-- Generator: Adobe Illustrator 21.0.2, SVG Export Plug-In . SVG Version: 6.00 Build 0)  -->
<svg version="1.1" id="Layer_1" xmlns="http://www.w3.org/2000/svg" xmlns:xlink="http://www.w3.org/1999/xlink" x="0px" y="0px"
	 viewBox="0 0 314 182" style="enable-background:new 0 0 314 182;" xml:space="preserve">
<style type="text/css">
	.st0{display:none;fill:#F9FBFC;}
	.st1{display:none;}
	.st2{display:inline;}
	.st3{fill:#4AA2FF;}
	.st4{font-family:'Montserrat-Bold';}
	.st5{font-size:23.2977px;}
	.st6{fill:#D1DBFA;}
	.st7{fill:none;}
	.st8{fill:#A8A8A8;}
	.st9{font-family:'Montserrat-Regular';}
	.st10{font-size:6px;}
	.st11{fill:url(#SVGID_1_);}
	.st12{fill:#F9FBFC;}
	.st13{fill:#ECF3FA;}
	.st14{fill:url(#SVGID_2_);}
	.st15{fill:url(#SVGID_3_);}
	.st16{fill:#FEF0CA;}
	.st17{opacity:0.36;fill:#F9FBFC;}
	.st18{fill:url(#SVGID_4_);}
	.st19{opacity:0.43;}
	.st20{opacity:0.26;fill:url(#SVGID_5_);}
	.st21{fill:url(#SVGID_6_);}
	.st22{fill:url(#SVGID_7_);}
	.st23{fill:#C4D0D2;}
	.st24{fill:#A5B7C6;}
	.st25{fill:url(#SVGID_8_);}
	.st26{fill:url(#SVGID_9_);}
	.st27{fill:url(#SVGID_10_);}
	.st28{opacity:0.58;fill:url(#SVGID_11_);}
	.st29{fill:url(#SVGID_12_);}
	.st30{fill:url(#SVGID_13_);}
	.st31{fill:url(#SVGID_14_);}
	.st32{fill:url(#SVGID_15_);}
	.st33{fill:url(#SVGID_16_);}
	.st34{fill:url(#SVGID_17_);}
	.st35{fill:#FE6D7A;}
	.st36{clip-path:url(#SVGID_19_);}
	.st37{fill:#FED7B4;}
	.st38{fill:url(#SVGID_20_);}
	.st39{fill:url(#SVGID_21_);}
</style>
<g>
	<path class="st0" d="M305.2,261H-89.2c-4.9,0-8.8-4-8.8-8.8V1.8C-98-3-94-7-89.2-7h394.3c4.9,0,8.8,4,8.8,8.8v250.3
		C314,257,310,261,305.2,261z"/>
	<g class="st1">
		<g class="st2">
			<text transform="matrix(1 0 0 1 -78.5002 99.9495)"><tspan x="0" y="0" class="st3 st4 st5">Space</tspan><tspan x="0" y="26" class="st3 st4 st5">Adventure</tspan></text>
			<g>
				<circle class="st6" cx="-31" cy="140.9" r="1.3"/>
				<circle class="st6" cx="-22.7" cy="140.9" r="1.3"/>
				<circle class="st6" cx="-14.4" cy="140.9" r="1.3"/>
			</g>
			<g>
				<rect x="-76.8" y="151.8" class="st7" width="137.5" height="29.9"/>
				<text transform="matrix(0.9 0 0 1 -76.8402 156.0958)"><tspan x="0" y="0" class="st8 st9 st10">Lorem ipsum dolor sit amet, consectetur </tspan><tspan x="0" y="9.6" class="st8 st9 st10">adipisicing elit, sed do eiusmod tempor incididunt ut labore </tspan><tspan x="0" y="19.3" class="st8 st9 st10">et dolore magna aliqua. </tspan></text>
			</g>
		</g>
		<g class="st2">
			<linearGradient id="SVGID_1_" gradientUnits="userSpaceOnUse" x1="-1.3964" y1="187.6896" x2="-39.8965" y2="233.6897">
				<stop  offset="0" style="stop-color:#FF431D"/>
				<stop  offset="1" style="stop-color:#002BFF"/>
			</linearGradient>
			<path class="st11" d="M3.7,212.4h-35.5c-5.2,0-9.5-4.3-9.5-9.5l0,0c0-5.2,4.3-9.5,9.5-9.5H3.7c5.2,0,9.5,4.3,9.5,9.5l0,0
				C13.2,208.1,8.9,212.4,3.7,212.4z"/>
			<rect x="-33.6" y="199.8" class="st7" width="39.2" height="7.9"/>
			<text transform="matrix(0.9 0 0 1 -33.5905 204.8057)" class="st12" style="font-family:'Montserrat-SemiBold'; font-size:7px;">Get Started</text>
		</g>
	</g>
	<circle class="st13" cx="37.4" cy="11.8" r="3.1"/>
	<g>
		<circle class="st13" cx="193" cy="33.8" r="3.1"/>
		<linearGradient id="SVGID_2_" gradientUnits="userSpaceOnUse" x1="157.1021" y1="187.1544" x2="157.1021" y2="-77.365">
			<stop  offset="0" style="stop-color:#FF431D"/>
			<stop  offset="1" style="stop-color:#002BFF"/>
		</linearGradient>
		<path class="st14" d="M305.2-7H0.2C17.9,2.6,40.7,20,52,50c20,53,40,75,96,79c21,1.5,32.6,7.2,41.6,14.4
			c15.1,12,24.2,23.6,57.4,31.1c31.2,7.1,52.7,0.8,67-13.6V1.8C314-3,310-7,305.2-7z"/>
		<linearGradient id="SVGID_3_" gradientUnits="userSpaceOnUse" x1="260" y1="124" x2="260" y2="94.3479">
			<stop  offset="0" style="stop-color:#F9FBFC"/>
			<stop  offset="0.2446" style="stop-color:#F8FAF4"/>
			<stop  offset="0.6228" style="stop-color:#F4F6DE"/>
			<stop  offset="1" style="stop-color:#EFF2C2"/>
		</linearGradient>
		<path class="st15" d="M232.3,171.7C252.3,155,254,93,254,93h12c0,0,1.7,62,21.7,78.7l-13.7,5.7l-15,0.3l-18.7-3.3L232.3,171.7z"/>
		<circle class="st12" cx="222.4" cy="151.6" r="8.4"/>
		<circle class="st12" cx="234.8" cy="156.8" r="8.4"/>
		<circle class="st12" cx="296.4" cy="147.6" r="8.4"/>
		<circle class="st12" cx="282.1" cy="156.6" r="11.9"/>
		<circle class="st12" cx="245.5" cy="151" r="6.9"/>
		<path class="st16" d="M246,179c31.2,7.1,53.7-2.8,68-17.3v-22.1c-1.7-0.5-3.6-0.8-5.5-0.8c-10.1,0-18.4,7.6-19.5,17.4
			c-1.9-0.6-3.9-0.9-6-0.9c-10.6,0-19.1,8.3-19.6,18.8c-2.1-0.8-4.5-1.3-6.9-1.3c-2.6,0-5.1,0.5-7.4,1.4c0-0.3,0-0.5,0-0.8
			c0-10.9-8.8-19.7-19.7-19.7c-3.1,0-6,0.7-8.6,2c-1.5-9.4-9.6-16.5-19.4-16.5c-4.5,0-8.6,1.5-11.9,4
			C204.7,155.4,212.8,171.5,246,179z"/>
		<circle class="st17" cx="260" cy="107.8" r="13.5"/>
		<circle class="st17" cx="260" cy="107.8" r="10.2"/>
		<circle class="st12" cx="277.4" cy="138.1" r="2.1"/>
		<circle class="st12" cx="227.5" cy="138.5" r="2.1"/>
		<circle class="st12" cx="271" cy="130.1" r="2.1"/>
		<circle class="st12" cx="273" cy="114.1" r="1.8"/>
		<circle class="st12" cx="243.3" cy="139.9" r="0.7"/>
		<linearGradient id="SVGID_4_" gradientUnits="userSpaceOnUse" x1="285.1667" y1="140.9882" x2="285.1667" y2="140.5212">
			<stop  offset="0" style="stop-color:#F9FBFC"/>
			<stop  offset="0.2446" style="stop-color:#F8FAF4"/>
			<stop  offset="0.6228" style="stop-color:#F4F6DE"/>
			<stop  offset="1" style="stop-color:#EFF2C2"/>
		</linearGradient>
		<circle class="st18" cx="285.2" cy="141.2" r="0.7"/>
		<circle class="st12" cx="233.8" cy="142.2" r="0.7"/>
		<g class="st19">
			<path class="st12" d="M314,61.3c-5.2,1.2-10.7,1.9-16.2,1.9c-38.9,0-70.6-31.4-71.1-70.2h-0.3c0.2,18.7,7.6,36.3,20.9,49.6
				c13.5,13.5,31.4,20.9,50.5,20.9c5.5,0,11-0.6,16.2-1.9V61.3z"/>
			<path class="st12" d="M314,45.8c-5.1,1.6-10.6,2.4-16.2,2.4c-30.6,0-55.6-24.7-56.1-55.2h-0.2c0.5,30.7,25.6,55.5,56.4,55.5
				c5.6,0,11.1-0.8,16.2-2.4V45.8z"/>
		</g>
		<g>
			<linearGradient id="SVGID_5_" gradientUnits="userSpaceOnUse" x1="262.5392" y1="45.3593" x2="256.3716" y2="65.9181">
				<stop  offset="0" style="stop-color:#ECF3FA"/>
				<stop  offset="1" style="stop-color:#D1D5E0"/>
			</linearGradient>
			<path class="st20" d="M253.5,55.3c0.5,2.8,3,5,6,5c3.4,0,6.1-2.7,6.1-6.1c0-0.5-0.1-0.9-0.2-1.4c-1.3,0.5-2.8,0.7-4.5,0.4
				C257.7,52.6,255.3,53.8,253.5,55.3z"/>
			<g>
				<g>
					<linearGradient id="SVGID_6_" gradientUnits="userSpaceOnUse" x1="235.5073" y1="84.1707" x2="254.843" y2="84.1707">
						<stop  offset="0" style="stop-color:#FF6D54"/>
						<stop  offset="1" style="stop-color:#DD3E36"/>
					</linearGradient>
					<path class="st21" d="M246.1,75.4l-10.4,16.2c-0.6,0.9,0.2,2.1,1.3,2l16.8-2.7c0.8-0.1,1.3-1,1-1.8l-6.4-13.5
						C247.9,74.6,246.7,74.5,246.1,75.4z"/>
					
						<linearGradient id="SVGID_7_" gradientUnits="userSpaceOnUse" x1="277.8406" y1="84.1707" x2="297.1763" y2="84.1707" gradientTransform="matrix(-1 0 0 1 560.8406 0)">
						<stop  offset="0" style="stop-color:#FF6D54"/>
						<stop  offset="1" style="stop-color:#DD3E36"/>
					</linearGradient>
					<path class="st22" d="M272.4,75.4l10.4,16.2c0.6,0.9-0.2,2.1-1.3,2l-16.8-2.7c-0.8-0.1-1.3-1-1-1.8l6.4-13.5
						C270.6,74.6,271.8,74.5,272.4,75.4z"/>
				</g>
				<g>
					<rect x="252.5" y="91.2" class="st23" width="14.6" height="3.4"/>
					<rect x="255.6" y="91.2" class="st24" width="8.3" height="3.4"/>
					<g>
						<linearGradient id="SVGID_8_" gradientUnits="userSpaceOnUse" x1="259.5797" y1="37" x2="259.5797" y2="106.9035">
							<stop  offset="0" style="stop-color:#ECF3FA"/>
							<stop  offset="1" style="stop-color:#D1D5E0"/>
						</linearGradient>
						<path class="st25" d="M265.2,32.1H254c-5.3,9.7-8.4,20.9-8.4,32.8c0,9.7,2,19,5.7,27.4h16.5c3.7-8.4,5.7-17.6,5.7-27.4
							C273.5,53,270.5,41.9,265.2,32.1z"/>
					</g>
				</g>
			</g>
			<linearGradient id="SVGID_9_" gradientUnits="userSpaceOnUse" x1="258.1981" y1="25.3031" x2="261.5314" y2="43.4697">
				<stop  offset="0" style="stop-color:#FF6D54"/>
				<stop  offset="1" style="stop-color:#DD3E36"/>
			</linearGradient>
			<path class="st26" d="M260.9,25.3c-0.6-0.9-2-0.9-2.6,0c-1.7,2.4-3.2,4.9-4.6,7.5h11.9C264.1,30.2,262.6,27.7,260.9,25.3z"/>
			<linearGradient id="SVGID_10_" gradientUnits="userSpaceOnUse" x1="255.3985" y1="15.4723" x2="261.1485" y2="39.3473">
				<stop  offset="0" style="stop-color:#FF6D54"/>
				<stop  offset="1" style="stop-color:#DD3E36"/>
			</linearGradient>
			<path class="st27" d="M260.2,25.3c-0.3-0.9-1-0.9-1.3,0c-0.8,2.4-1.6,4.9-2.3,7.5h5.8C261.8,30.2,261.1,27.7,260.2,25.3z"/>
			<linearGradient id="SVGID_11_" gradientUnits="userSpaceOnUse" x1="258.8997" y1="36.3893" x2="258.8997" y2="97.5353">
				<stop  offset="0" style="stop-color:#ECF3FA"/>
				<stop  offset="1" style="stop-color:#D1D5E0"/>
			</linearGradient>
			<path class="st28" d="M272.2,51.3c-1.4-6.8-3.8-13.3-7-19.2H254c-5.3,9.7-8.4,20.9-8.4,32.8c0,6.2,0.8,12.2,2.4,18
				c1.9,1.2,3.9,1.9,6,1.9c10,0,18.1-14.8,18.1-33.1C272.2,51.5,272.2,51.4,272.2,51.3z"/>
			<g>
				<g>
					<linearGradient id="SVGID_12_" gradientUnits="userSpaceOnUse" x1="259.3277" y1="38.0745" x2="259.5777" y2="56.8245">
						<stop  offset="0" style="stop-color:#ECF3FA"/>
						<stop  offset="1" style="stop-color:#D1D5E0"/>
					</linearGradient>
					<circle class="st29" cx="259.5" cy="54.1" r="9.6"/>
					<linearGradient id="SVGID_13_" gradientUnits="userSpaceOnUse" x1="263.6942" y1="40.2833" x2="255.4442" y2="67.7833">
						<stop  offset="0" style="stop-color:#FF6D54"/>
						<stop  offset="1" style="stop-color:#DD3E36"/>
					</linearGradient>
					<circle class="st30" cx="259.5" cy="54.1" r="6.1"/>
					<linearGradient id="SVGID_14_" gradientUnits="userSpaceOnUse" x1="262.8101" y1="48.536" x2="260.6213" y2="55.8319">
						<stop  offset="0" style="stop-color:#ECF3FA"/>
						<stop  offset="1" style="stop-color:#D1D5E0"/>
					</linearGradient>
					<circle class="st31" cx="261.7" cy="52.2" r="1.6"/>
				</g>
				<g>
					<linearGradient id="SVGID_15_" gradientUnits="userSpaceOnUse" x1="259.4166" y1="63.2399" x2="259.5627" y2="74.1977">
						<stop  offset="0" style="stop-color:#ECF3FA"/>
						<stop  offset="1" style="stop-color:#D1D5E0"/>
					</linearGradient>
					<circle class="st32" cx="259.5" cy="72.6" r="5.6"/>
					<linearGradient id="SVGID_16_" gradientUnits="userSpaceOnUse" x1="261.9685" y1="64.5308" x2="257.147" y2="80.6023">
						<stop  offset="0" style="stop-color:#FF6D54"/>
						<stop  offset="1" style="stop-color:#DD3E36"/>
					</linearGradient>
					<circle class="st33" cx="259.5" cy="72.6" r="3.6"/>
					<linearGradient id="SVGID_17_" gradientUnits="userSpaceOnUse" x1="261.4518" y1="69.3538" x2="260.1726" y2="73.6178">
						<stop  offset="0" style="stop-color:#ECF3FA"/>
						<stop  offset="1" style="stop-color:#D1D5E0"/>
					</linearGradient>
					<circle class="st34" cx="260.8" cy="71.5" r="0.9"/>
				</g>
			</g>
		</g>
		<circle class="st3" cx="229.4" cy="12.3" r="3.7"/>
		<circle class="st35" cx="300.1" cy="48" r="2.1"/>
		<circle class="st35" cx="233.6" cy="23.2" r="1.2"/>
		<circle class="st35" cx="88.5" cy="75.5" r="1.2"/>
		<circle class="st35" cx="203" cy="45.2" r="1.2"/>
		<circle class="st16" cx="169.7" cy="92.2" r="1.2"/>
		<circle class="st16" cx="290.3" cy="128.2" r="1.2"/>
		<circle class="st35" cx="296.3" cy="104" r="1.2"/>
		<circle class="st35" cx="154.3" cy="73" r="0.5"/>
		<circle class="st35" cx="196.3" cy="105.8" r="0.5"/>
		<circle class="st35" cx="210" cy="12.1" r="0.5"/>
		<circle class="st16" cx="107" cy="100.1" r="0.5"/>
		<circle class="st35" cx="240.5" cy="120.3" r="0.5"/>
		<circle class="st16" cx="211.3" cy="79.5" r="0.5"/>
		<circle class="st35" cx="171.5" cy="122.3" r="0.8"/>
		<circle class="st35" cx="142.5" cy="104.5" r="0.5"/>
		<g>
			<defs>
				<path id="SVGID_18_" d="M305.2-7H0.2C17.9,2.6,40.7,20,52,50c20,53,40,75,96,79c21,1.5,32.6,7.2,41.6,14.4
					c15.1,12,24.2,23.6,57.4,31.1c31.2,7.1,52.7,0.8,67-13.6V1.8C314-3,310-7,305.2-7z"/>
			</defs>
			<clipPath id="SVGID_19_">
				<use xlink:href="#SVGID_18_"  style="overflow:visible;"/>
			</clipPath>
			<g class="st36">
				<circle class="st17" cx="121.4" cy="-20.8" r="82.1"/>
				<g>
					<circle class="st13" cx="115.3" cy="27" r="3.1"/>
					<circle class="st37" cx="122.8" cy="-18.8" r="68.8"/>
					<circle class="st16" cx="121.4" cy="-20.8" r="66.2"/>
					<g>
						<circle class="st37" cx="83" cy="-26.3" r="15.7"/>
						<circle class="st37" cx="160" cy="-24" r="12.7"/>
						<circle class="st37" cx="127.7" cy="-58" r="6"/>
						<circle class="st37" cx="118" cy="-2" r="6"/>
						<circle class="st37" cx="143.3" cy="19.7" r="4.3"/>
						<circle class="st37" cx="110.7" cy="36" r="2.3"/>
						<circle class="st37" cx="94" cy="-67.3" r="2.3"/>
					</g>
				</g>
			</g>
		</g>
	</g>
	<circle class="st3" cx="51.5" cy="49.5" r="9"/>
	<linearGradient id="SVGID_20_" gradientUnits="userSpaceOnUse" x1="76.9104" y1="81.3015" x2="67.5771" y2="124.9681">
		<stop  offset="0" style="stop-color:#FF6D54"/>
		<stop  offset="1" style="stop-color:#DD3E36"/>
	</linearGradient>
	<circle class="st38" cx="74.1" cy="94.3" r="3.5"/>
	<linearGradient id="SVGID_21_" gradientUnits="userSpaceOnUse" x1="161.8908" y1="147.7593" x2="179.8909" y2="89.759">
		<stop  offset="0" style="stop-color:#FF431D"/>
		<stop  offset="1" style="stop-color:#002BFF"/>
	</linearGradient>
	<circle class="st39" cx="163.8" cy="141.5" r="5.2"/>
</g>
</svg>
