
<svg width="1440px" height="1024px" viewBox="0 0 1440 1024" version="1.1" xmlns="http://www.w3.org/2000/svg" xmlns:xlink="http://www.w3.org/1999/xlink">
    <defs>
        <linearGradient x1="2.5000491%" y1="73.2482994%" x2="80.9717274%" y2="2.46695711%" id="linearGradient-1">
            <stop stop-color="#5040C7" offset="0%"></stop>
            <stop stop-color="#6348E7" offset="100%"></stop>
        </linearGradient>
        <linearGradient x1="50%" y1="0%" x2="50%" y2="100%" id="linearGradient-2">
            <stop stop-color="#6561CD" stop-opacity="0.9" offset="0%"></stop>
            <stop stop-color="#35329E" stop-opacity="0.9" offset="100%"></stop>
        </linearGradient>
        <linearGradient x1="9.94260937%" y1="71.7199938%" x2="96.4881921%" y2="78.68113%" id="linearGradient-3">
            <stop stop-color="#3733A1" offset="0%"></stop>
            <stop stop-color="#4F40C0" offset="100%"></stop>
        </linearGradient>
        <linearGradient x1="50%" y1="139.73446%" x2="114.264981%" y2="31.2307503%" id="linearGradient-4">
            <stop stop-color="#F04791" offset="0%"></stop>
            <stop stop-color="#F78F23" offset="100%"></stop>
        </linearGradient>
        <linearGradient x1="22.6021933%" y1="41.2619092%" x2="76.2176911%" y2="50%" id="linearGradient-5">
            <stop stop-color="#4337AF" offset="0%"></stop>
            <stop stop-color="#2D3B94" offset="100%"></stop>
        </linearGradient>
        <linearGradient x1="26.0539313%" y1="67.3460996%" x2="50%" y2="50%" id="linearGradient-6">
            <stop stop-color="#F25878" offset="0%"></stop>
            <stop stop-color="#F68630" offset="100%"></stop>
        </linearGradient>
        <linearGradient x1="94.2718371%" y1="88.5109705%" x2="9.8808155%" y2="35.8486703%" id="linearGradient-7">
            <stop stop-color="#F25878" offset="0%"></stop>
            <stop stop-color="#F68630" offset="100%"></stop>
        </linearGradient>
        <linearGradient x1="41.7894137%" y1="-184.732979%" x2="41.7894137%" y2="292.0029%" id="linearGradient-8">
            <stop stop-color="#F25E6D" offset="0%"></stop>
            <stop stop-color="#F68630" offset="100%"></stop>
        </linearGradient>
    </defs>
    <g id="Page-1" stroke="none" stroke-width="1" fill="none" fill-rule="evenodd">
        <g id="Desktop-HD">
            <polygon id="Rectangle-Copy" fill="url(#linearGradient-1)" points="0 0 1437 0 1437 1024 0 1024"></polygon>
            <path d="M0,795.364378 C353.330413,919.164182 610.240798,928.980473 770.731155,824.813253 C1011.46669,668.562423 996.68733,471.101445 1097.75462,202.372323 C1165.13281,23.2195756 1298.04521,-59.6795989 1496.49179,-46.3252002 L1440,1024 L0,1024 L0,795.364378 Z" id="Path" fill="url(#linearGradient-2)"></path>
            <path d="M126.979213,1024 C108.696312,874.632604 142.724247,721.593884 229.063017,564.883838 C358.571173,329.81877 539.247534,278.834683 602.521062,169.859044 C644.703414,97.2086189 637.278969,4.91277778 580.247726,-107.028479 L1030.8504,-63.9477121 C920.320834,-8.22020863 901.257024,131.033844 973.658968,353.814446 C1082.26188,687.985349 1373.8031,909.847345 1396.56777,962.154063 C1406.45423,984.870339 1414.7018,1005.48565 1421.31048,1024 L126.979213,1024 Z" id="Path-2" fill-opacity="0.8" fill="url(#linearGradient-3)"></path>
            <path d="M420.439601,270.63836 C366.960304,256.895135 516.749206,128.838295 545.564613,64.1983291 C574.380019,-0.441636793 483.863494,-103.303244 576.521694,-79.4917396 C669.179894,-55.6802356 751.297058,39.4923216 708.38997,135.743357 C665.482882,231.994393 473.918898,284.381586 420.439601,270.63836 Z" id="Path-3" fill="url(#linearGradient-4)"></path>
            <path d="M786.645201,308.624462 C781.67393,401.27873 1014.53907,639.136399 1107.68919,685.79473 C1200.83932,732.453061 1307.84372,687.694028 1388.32058,610 C1468.79744,532.305972 1550.93919,377.595873 1414.24286,377.595873 C1277.54653,377.595873 1296.9321,422.078204 1122.86501,402.948667 C948.797923,383.81913 791.616472,215.970194 786.645201,308.624462 Z" id="Path-4" fill="url(#linearGradient-5)"></path>
            <circle id="Oval" fill="url(#linearGradient-6)" cx="978.5" cy="357.5" r="76.5"></circle>
            <path d="M839.976765,719.426035 C782.627142,648.472127 895.923758,479.539143 1075.43926,512 C1254.95476,544.460857 1445.45851,834.04108 1375.33834,861.197255 C1305.21817,888.35343 1211.00468,780.740319 1125.70268,749.229445 C1040.40067,717.718572 897.326388,790.379944 839.976765,719.426035 Z" id="Path-5" fill="url(#linearGradient-7)"></path>
            <path d="M-54,434 L135,434 C139.418278,434 143,435.790861 143,438 L143,440 C143,442.209139 139.418278,444 135,444 L-54,444 C-58.418278,444 -62,442.209139 -62,440 L-62,438 C-62,435.790861 -58.418278,434 -54,434 Z" id="Rectangle" fill="url(#linearGradient-8)"></path>
        </g>
    </g>
</svg>