<?xml version="1.0" encoding="utf-8"?>
<!-- Generator: Adobe Illustrator 21.0.2, SVG Export Plug-In . SVG Version: 6.00 Build 0)  -->
<svg version="1.1" id="Layer_1" xmlns="http://www.w3.org/2000/svg" xmlns:xlink="http://www.w3.org/1999/xlink" x="0px" y="0px"
	 viewBox="0 0 800 800" style="enable-background:new 0 0 800 800;" xml:space="preserve">
<style type="text/css">
	.st0{fill:url(#SVGID_1_);}
	.st1{fill:#0091C8;}
	.st2{fill:#2BE279;}
	.st3{fill:#FFFFFF;}
	.st4{opacity:0.23;fill:#0073AA;}
	.st5{fill:#182B5B;}
	.st6{fill:#B4D7DC;}
	.st7{fill:#9BB9C3;}
	.st8{fill:#A5C8CD;}
	.st9{fill:#FF3C3C;}
	.st10{fill:#BE1423;}
	.st11{opacity:0.49;fill:#BC3132;}
	.st12{fill:#D8A799;}
	.st13{fill:#E3D2C8;}
	.st14{opacity:0.26;fill:#D8A799;}
	.st15{fill:#EF9318;}
	.st16{fill:#F2B816;}
	.st17{opacity:0.4;fill:#EF9318;}
	.st18{fill:#E48332;}
	.st19{fill:#D56730;}
	.st20{fill:#F6964F;}
	.st21{opacity:0.32;fill:#CC6843;}
	.st22{fill:#ADC2D6;}
	.st23{fill:#8799AA;}
	.st24{fill:#E79968;}
	.st25{fill:#A7473B;}
	.st26{fill:#FFBF8F;}
	.st27{fill:#E5D371;}
	.st28{fill:#B97850;}
	.st29{opacity:0.21;fill:#A56941;}
	.st30{fill:#97F4EC;}
	.st31{fill:#54B5B7;}
	.st32{fill:#98CBCD;}
	.st33{fill:url(#SVGID_2_);}
	.st34{fill:url(#SVGID_3_);}
	.st35{fill:url(#SVGID_4_);}
	.st36{opacity:0.8;fill:#D4088C;}
	.st37{fill:#6EE8FC;}
	.st38{fill:#D4088C;}
	.st39{fill:#6EE1F8;}
	.st40{opacity:0.8;fill:#0C0F38;}
	.st41{fill:url(#SVGID_5_);}
	.st42{fill:#3A9BD5;}
	.st43{fill:url(#SVGID_6_);}
	.st44{fill:url(#SVGID_7_);}
	.st45{fill:url(#SVGID_8_);}
	.st46{fill:url(#SVGID_9_);}
	.st47{fill:url(#SVGID_10_);}
	.st48{opacity:0.11;}
	.st49{clip-path:url(#SVGID_12_);}
	.st50{fill:url(#SVGID_13_);}
	.st51{fill:url(#SVGID_14_);}
	.st52{fill:url(#SVGID_15_);}
	.st53{fill:url(#SVGID_16_);}
	.st54{fill:url(#SVGID_17_);}
	.st55{fill:url(#SVGID_18_);}
	.st56{opacity:0.5;}
	.st57{fill:#F4B427;}
	.st58{fill:#FFD23C;}
	.st59{fill:#1E87DC;}
	.st60{fill:#283D77;}
	.st61{fill:#0073AA;}
	.st62{opacity:0.44;fill:#0073AA;}
</style>
<radialGradient id="SVGID_1_" cx="357.9683" cy="1790.4424" r="280.8489" gradientTransform="matrix(2.6118 0 0 1.9019 -373.0872 -3187.7305)" gradientUnits="userSpaceOnUse">
	<stop  offset="0" style="stop-color:#22215B"/>
	<stop  offset="0.3261" style="stop-color:#1E1E55"/>
	<stop  offset="0.7509" style="stop-color:#141645"/>
	<stop  offset="1" style="stop-color:#0C0F38"/>
</radialGradient>
<path class="st0" d="M915.4,538.4c-18.7,6.3-37.1,2-37.1,2c-4.5-7.7-12.9-19.3-27-29c-5.9-4-16.8-11.4-33-14
	c-17.6-2.9-31.9,1.3-39.1,4c-8.9,2.4-18.7,5.7-29,10c-20.3,8.5-36.6,18.8-49.1,28c-8.6,6.3-21.4,14.7-38.1,22
	c-21.1,9.3-49.9,21.9-84.1,16c-27.5-4.7-66-22.5-80.1-56.1c-14.5-34.7,8.4-58.8-11-81.1c-13.6-15.6-37.4-18.4-51.1-20
	c-21.1-2.5-27.6,2.6-45.1,3c-54.9,1.3-96.3-46.6-100.1-51.1c-20.5-24.3-27.2-49.3-31-64.1c-11.6-45,5.5-54.9-3-87.1
	c-17.7-67.3-89.8-67-103.1-135.2c-3.4-17.4-3.8-43.1,0-68.1c2.9-19.2,7.8-34.9,12-46.1c2.2-1.4,5.8-3.8,10-7
	c12.9-10,20.3-20.1,21-21C212.1-75,541.6-241,802.8-52.2c10.8,7.8,22.9,16.6,38,30.7C1032,157,990.5,513,915.4,538.4z"/>
<g>
	<g>
		<g>
			<circle class="st1" cx="705.1" cy="78.2" r="42.3"/>
			<path class="st2" d="M708.5,52.1c0,3.2-2.6,5.8-5.8,5.8h-10.9c-1.5,0-2.8,0.6-3.7,1.5c-0.9,1-1.5,2.3-1.5,3.7
				c0,2.9,2.4,5.3,5.3,5.3h1.4c1.6,0,3.1,0.7,4.1,1.7c1,1,1.7,2.5,1.7,4.1c0,3.2-2.6,5.8-5.8,5.8h-30.4c0-0.6,0-1.2,0-1.9
				c0-12.7,5.6-24.1,14.5-31.9h25.4C705.9,46.3,708.5,48.9,708.5,52.1z"/>
			<path class="st2" d="M747.3,80c-0.8,17.6-12.2,32.3-28,38h-9.2c-1.3,0-2.5-0.5-3.4-1.4c-0.9-0.9-1.4-2-1.4-3.4
				c0-1.3,0.5-2.5,1.4-3.4c0.9-0.9,2-1.4,3.4-1.4c0.7,0,1.4-0.3,1.9-0.8c0.5-0.5,0.8-1.1,0.8-1.9c0-1.5-1.2-2.6-2.6-2.6h-11.6
				c-1.3,0-2.5-0.5-3.4-1.4c-0.9-0.9-1.4-2-1.4-3.4c0-2.6,2.1-4.7,4.7-4.7h11.1c0.9,0,1.7-0.4,2.2-0.9c0.6-0.6,0.9-1.4,0.9-2.2
				c0-1.8-1.4-3.2-3.2-3.2h-2.6c-2,0-3.7-1.7-3.7-3.7c0-2,1.7-3.7,3.7-3.7H747.3z"/>
			<path class="st3" d="M745,64.2h-32.2c-1.7,0-3.2-1.4-3.2-3.2c0-0.9,0.4-1.7,0.9-2.2c0.6-0.6,1.4-0.9,2.2-0.9h29.4
				C743.3,59.9,744.2,62,745,64.2z"/>
			<path class="st3" d="M700.1,89.5c0,0.6-0.2,1.1-0.6,1.5c-0.4,0.4-0.9,0.6-1.5,0.6h-33c-0.5-1.4-0.9-2.8-1.2-4.2H698
				C699.1,87.4,700.1,88.4,700.1,89.5z"/>
			<path class="st3" d="M743,96.9c-0.7,1.5-1.5,2.9-2.4,4.2h-30c-1.2,0-2.1-0.9-2.1-2.1c0-0.6,0.2-1.1,0.6-1.5
				c0.4-0.4,0.9-0.6,1.5-0.6H743z"/>
			<path class="st3" d="M722.2,53.7h-44.3c-1.2,0-2.1-0.9-2.1-2.1l0,0c0-1.2,0.9-2.1,2.1-2.1h44.3c1.2,0,2.1,0.9,2.1,2.1l0,0
				C724.3,52.7,723.4,53.7,722.2,53.7z"/>
			<path class="st4" d="M705.1,35.9c-1.5,0-3.1,0.1-4.6,0.2c16.7,2,29.7,16.2,29.7,33.4c0,18.6-15.1,33.7-33.7,33.7
				c-17.2,0-31.5-13-33.4-29.7c-0.2,1.5-0.2,3-0.2,4.6c0,23.3,18.9,42.3,42.3,42.3c23.3,0,42.3-18.9,42.3-42.3
				C747.3,54.8,728.4,35.9,705.1,35.9z"/>
		</g>
	</g>
	<path class="st5" d="M741.5,114.1l0.8,2c0.2,0.4,0.5,0.7,0.8,0.8l2,0.8c1.3,0.5,1.3,2.3,0,2.8l-2,0.8c-0.4,0.2-0.7,0.5-0.8,0.8
		l-0.8,2c-0.5,1.3-2.3,1.3-2.8,0l-0.8-2c-0.2-0.4-0.5-0.7-0.8-0.8l-2-0.8c-1.3-0.5-1.3-2.3,0-2.8l2-0.8c0.4-0.2,0.7-0.5,0.8-0.8
		l0.8-2C739.2,112.8,741,112.8,741.5,114.1z"/>
	<path class="st5" d="M667.7,28.8l0.6,1.4c0.1,0.3,0.3,0.5,0.6,0.6l1.4,0.6c0.9,0.4,0.9,1.6,0,2l-1.4,0.6c-0.3,0.1-0.5,0.3-0.6,0.6
		l-0.6,1.4c-0.4,0.9-1.6,0.9-2,0l-0.6-1.4c-0.1-0.3-0.3-0.5-0.6-0.6l-1.4-0.6c-0.9-0.4-0.9-1.6,0-2l1.4-0.6c0.3-0.1,0.5-0.3,0.6-0.6
		l0.6-1.4C666.1,27.9,667.3,27.9,667.7,28.8z"/>
	<path class="st5" d="M669.9,123.4l0.3,0.9c0.1,0.2,0.2,0.3,0.4,0.4l0.9,0.3c0.6,0.2,0.6,1,0,1.2l-0.9,0.3c-0.2,0.1-0.3,0.2-0.4,0.4
		l-0.3,0.9c-0.2,0.6-1,0.6-1.2,0l-0.3-0.9c-0.1-0.2-0.2-0.3-0.4-0.4l-0.9-0.3c-0.6-0.2-0.6-1,0-1.2l0.9-0.3c0.2-0.1,0.3-0.2,0.4-0.4
		l0.3-0.9C668.9,122.8,669.7,122.8,669.9,123.4z"/>
	<path class="st5" d="M742.7,33.8l0.3,0.9c0.1,0.2,0.2,0.3,0.4,0.4l0.9,0.3c0.6,0.2,0.6,1,0,1.2l-0.9,0.3c-0.2,0.1-0.3,0.2-0.4,0.4
		l-0.3,0.9c-0.2,0.6-1,0.6-1.2,0l-0.3-0.9c-0.1-0.2-0.2-0.3-0.4-0.4l-0.9-0.3c-0.6-0.2-0.6-1,0-1.2l0.9-0.3c0.2-0.1,0.3-0.2,0.4-0.4
		l0.3-0.9C741.7,33.2,742.5,33.2,742.7,33.8z"/>
</g>
<g>
	<g>
		<g>
			<circle class="st6" cx="773.9" cy="23.2" r="13.3"/>
			<path class="st7" d="M773.9,9.9c-0.5,0-1,0-1.4,0.1c5.3,0.6,9.3,5.1,9.3,10.5c0,5.9-4.8,10.6-10.6,10.6c-5.4,0-9.9-4.1-10.5-9.3
				c-0.1,0.5-0.1,0.9-0.1,1.4c0,7.4,6,13.3,13.3,13.3s13.3-6,13.3-13.3C787.2,15.8,781.2,9.9,773.9,9.9z"/>
			<circle class="st7" cx="767.5" cy="18.2" r="1.9"/>
			<circle class="st7" cx="775.2" cy="22.9" r="1.9"/>
			<circle class="st7" cx="779.9" cy="16.1" r="1.5"/>
			<circle class="st7" cx="765.6" cy="24.6" r="0.8"/>
			<circle class="st8" cx="777.5" cy="32.3" r="0.8"/>
			<circle class="st8" cx="766.9" cy="32.4" r="0.8"/>
			<circle class="st8" cx="782.5" cy="27.3" r="1.8"/>
			<circle class="st7" cx="770.6" cy="27.1" r="1"/>
			<circle class="st7" cx="772.5" cy="15.3" r="0.8"/>
		</g>
	</g>
	<path class="st5" d="M789.3,6l0.3,0.7c0.1,0.1,0.2,0.2,0.3,0.3l0.7,0.3c0.4,0.2,0.4,0.8,0,1l-0.7,0.3c-0.1,0.1-0.2,0.2-0.3,0.3
		l-0.3,0.7c-0.2,0.4-0.8,0.4-1,0L788,8.8c-0.1-0.1-0.2-0.2-0.3-0.3L787,8.3c-0.4-0.2-0.4-0.8,0-1l0.7-0.3c0.1-0.1,0.2-0.2,0.3-0.3
		l0.3-0.7C788.5,5.6,789.1,5.6,789.3,6z"/>
	<path class="st5" d="M759.4,2.1l0.3,0.7c0.1,0.1,0.2,0.2,0.3,0.3l0.7,0.3c0.4,0.2,0.4,0.8,0,1L760,4.6c-0.1,0.1-0.2,0.2-0.3,0.3
		l-0.3,0.7c-0.2,0.4-0.8,0.4-1,0l-0.3-0.7c-0.1-0.1-0.2-0.2-0.3-0.3l-0.7-0.3c-0.4-0.2-0.4-0.8,0-1l0.7-0.3c0.1-0.1,0.2-0.2,0.3-0.3
		l0.3-0.7C758.6,1.7,759.3,1.7,759.4,2.1z"/>
	<path class="st5" d="M792.9,33.6l0.3,0.7c0.1,0.1,0.2,0.2,0.3,0.3l0.7,0.3c0.4,0.2,0.4,0.8,0,1l-0.7,0.3c-0.1,0.1-0.2,0.2-0.3,0.3
		l-0.3,0.7c-0.2,0.4-0.8,0.4-1,0l-0.3-0.7c-0.1-0.1-0.2-0.2-0.3-0.3l-0.7-0.3c-0.4-0.2-0.4-0.8,0-1l0.7-0.3c0.1-0.1,0.2-0.2,0.3-0.3
		l0.3-0.7C792.1,33.2,792.7,33.2,792.9,33.6z"/>
	<path class="st5" d="M753.5,32.6l0.2,0.6c0,0.1,0.1,0.2,0.2,0.2l0.6,0.2c0.4,0.1,0.4,0.6,0,0.8l-0.6,0.2c-0.1,0-0.2,0.1-0.2,0.2
		l-0.2,0.6c-0.1,0.4-0.6,0.4-0.8,0l-0.2-0.6c0-0.1-0.1-0.2-0.2-0.2l-0.6-0.2c-0.4-0.1-0.4-0.6,0-0.8l0.6-0.2c0.1,0,0.2-0.1,0.2-0.2
		l0.2-0.6C752.9,32.2,753.4,32.2,753.5,32.6z"/>
</g>
<g>
	<g>
		<g>
			<circle class="st9" cx="531.1" cy="175.2" r="29.9"/>
			<path class="st10" d="M516,185.3h43.2c-4.2,11.5-15.2,19.8-28.1,19.8c-1.6,0-3.1-0.1-4.6-0.3c0.8-0.8,1.9-1.2,3.1-1.2h4.2
				c2.5,0,4.5-2,4.5-4.5c0-2.5-2-4.5-4.5-4.5H516c-2.5,0-4.5-2-4.5-4.5C511.5,187.4,513.5,185.3,516,185.3z"/>
			<path class="st10" d="M561,175.2c0,0.9,0,1.7-0.1,2.6h-18.7c-2.1,0-3.8-1.7-3.8-3.8v-1.5c0-2.1,1.7-3.8,3.8-3.8h18.1
				C560.7,170.8,561,172.9,561,175.2z"/>
			<path class="st10" d="M530.3,172.7c0,2.5-2,4.5-4.5,4.5h-24.5c-0.1-0.7-0.1-1.3-0.1-2c0-3.7,0.7-7.2,1.9-10.5
				c0.2,1.9,1.8,3.4,3.8,3.4h18.9C528.3,168.1,530.3,170.1,530.3,172.7z"/>
			<path class="st10" d="M542.4,154.5c0,2.5-2,4.5-4.5,4.5h-29.5c-1.1,0-2.2,0.3-3,1c3.1-5.3,7.7-9.5,13.3-12c0.8,1.2,2.2,2,3.8,2
				h15.4C540.3,149.9,542.4,152,542.4,154.5z"/>
			<path class="st11" d="M531.1,145.3c-1.1,0-2.2,0.1-3.2,0.2c11.8,1.4,21,11.5,21,23.7c0,13.2-10.7,23.8-23.8,23.8
				c-12.2,0-22.3-9.2-23.7-21c-0.1,1.1-0.2,2.1-0.2,3.2c0,16.5,13.4,29.9,29.9,29.9c16.5,0,29.9-13.4,29.9-29.9
				C561,158.7,547.6,145.3,531.1,145.3z"/>
		</g>
	</g>
	<path class="st5" d="M564.9,202.3l0.6,1.4c0.1,0.3,0.3,0.5,0.6,0.6l1.4,0.6c0.9,0.4,0.9,1.6,0,2l-1.4,0.6c-0.3,0.1-0.5,0.3-0.6,0.6
		l-0.6,1.4c-0.4,0.9-1.6,0.9-2,0l-0.6-1.4c-0.1-0.3-0.3-0.5-0.6-0.6l-1.4-0.6c-0.9-0.4-0.9-1.6,0-2l1.4-0.6c0.3-0.1,0.5-0.3,0.6-0.6
		l0.6-1.4C563.3,201.4,564.6,201.4,564.9,202.3z"/>
	<path class="st5" d="M499.6,137.7l0.8,2c0.2,0.4,0.5,0.7,0.8,0.8l2,0.8c1.3,0.5,1.3,2.3,0,2.8l-2,0.8c-0.4,0.2-0.7,0.5-0.8,0.8
		l-0.8,2c-0.5,1.3-2.3,1.3-2.8,0l-0.8-2c-0.2-0.4-0.5-0.7-0.8-0.8l-2-0.8c-1.3-0.5-1.3-2.3,0-2.8l2-0.8c0.4-0.2,0.7-0.5,0.8-0.8
		l0.8-2C497.3,136.4,499.1,136.4,499.6,137.7z"/>
	<path class="st5" d="M558.8,134.8l0.3,0.9c0.1,0.2,0.2,0.3,0.4,0.4l0.9,0.4c0.6,0.2,0.6,1,0,1.2l-0.9,0.3c-0.2,0.1-0.3,0.2-0.4,0.4
		l-0.4,0.9c-0.2,0.6-1,0.6-1.2,0l-0.3-0.9c-0.1-0.2-0.2-0.3-0.4-0.4l-0.9-0.4c-0.6-0.2-0.6-1,0-1.2l0.9-0.3c0.2-0.1,0.3-0.2,0.4-0.4
		l0.4-0.9C557.8,134.3,558.6,134.3,558.8,134.8z"/>
	<path class="st5" d="M498.7,198.9l0.3,0.9c0.1,0.2,0.2,0.3,0.4,0.4l0.9,0.3c0.6,0.2,0.6,1,0,1.2l-0.9,0.3c-0.2,0.1-0.3,0.2-0.4,0.4
		l-0.3,0.9c-0.2,0.6-1,0.6-1.2,0l-0.3-0.9c-0.1-0.2-0.2-0.3-0.4-0.4l-0.9-0.3c-0.6-0.2-0.6-1,0-1.2l0.9-0.3c0.2-0.1,0.3-0.2,0.4-0.4
		l0.3-0.9C497.7,198.3,498.4,198.3,498.7,198.9z"/>
</g>
<g>
	<g>
		<g>
			<circle class="st12" cx="749.4" cy="266.8" r="20.2"/>
			<path class="st13" d="M761.2,265.5c-1.2,1.8-3.7,2.2-5.4,0.9l-13.2-9.4c-0.8-0.6-1.7-0.8-2.6-0.8c-1.4,0-2.8,0.7-3.7,1.9
				c-1,1.5-0.7,3.5,0.8,4.5l13.2,9.4c1.8,1.2,2.2,3.7,0.9,5.4c-1.2,1.7-3.7,2.2-5.4,0.9l-16.4-11.6c0-11.1,9.1-20.1,20.2-20.1
				c6.1,0,11.6,2.7,15.3,7l-3.3-2.4c-1.8-1.2-4.2-0.8-5.4,0.9c-1.2,1.7-0.8,4.2,0.9,5.4l3.4,2.4C762,261.3,762.4,263.7,761.2,265.5z
				"/>
			<path class="st14" d="M749.4,246.6c-0.8,0-1.6,0.1-2.4,0.2c7.7,1,13.7,7.6,13.7,15.6c0,8.7-7,15.7-15.7,15.7
				c-8,0-14.6-6-15.6-13.7c-0.1,0.8-0.1,1.6-0.1,2.4c0,11.1,9,20.2,20.2,20.2s20.2-9,20.2-20.2C769.6,255.6,760.5,246.6,749.4,246.6
				z"/>
		</g>
	</g>
</g>
<g>
	<circle class="st15" cx="588.9" cy="323" r="29.4"/>
	<g>
		<path class="st16" d="M603.5,297.5l-43.9,28.9c-0.1-1.1-0.2-2.3-0.2-3.4c0-2,0.2-4,0.6-5.9l34.7-22.9
			C597.9,294.8,600.8,296,603.5,297.5z"/>
		<path class="st16" d="M614.3,337.8c-1.5,2.6-3.4,4.9-5.6,7c0,0,0,0,0,0l-7.6,5c-2.7,1.2-5.6,2.1-8.6,2.4L614.3,337.8z"/>
		<path class="st16" d="M589.7,293.6l-28.2,18.6c0.7-1.7,1.5-3.4,2.5-4.9l20.3-13.4c1.5-0.2,3-0.4,4.6-0.4
			C589.1,293.6,589.4,293.6,589.7,293.6z"/>
		<path class="st16" d="M618.3,323c0,2.4-0.3,4.6-0.8,6.9L583.9,352c-2.6-0.4-5.1-1.2-7.4-2.3l41.8-27.5
			C618.3,322.5,618.3,322.8,618.3,323z"/>
		<path class="st16" d="M583.7,322.1c0,1.2-0.6,2.4-1.7,3.2l-18.7,12.3c-1.3-2.2-2.3-4.6-2.9-7.2l17.5-11.5c1.8-1.1,4.1-0.7,5.3,1.1
			C583.5,320.7,583.7,321.4,583.7,322.1z"/>
		<path class="st16" d="M612.4,305.3l-10.8,7.1c-1.8,1.1-4.1,0.7-5.3-1.1c-0.4-0.6-0.6-1.4-0.6-2.1c0-1.2,0.6-2.4,1.7-3.2l9.6-6.3
			C609,301.4,610.8,303.2,612.4,305.3z"/>
		<path class="st16" d="M617.6,316.8l-32.8,21.6c-1.8,1.1-4.1,0.7-5.3-1.1c-0.4-0.6-0.6-1.4-0.6-2.1c0-1.2,0.6-2.4,1.7-3.2
			l34.3-22.6C616.2,311.7,617.1,314.2,617.6,316.8z"/>
	</g>
	<path class="st17" d="M588.9,293.6c-1,0-2.1,0.1-3.1,0.2c11.7,1.4,20.8,11.3,20.8,23.4c0,13-10.6,23.6-23.6,23.6
		c-12.1,0-22.1-9.1-23.4-20.8c-0.1,1-0.2,2.1-0.2,3.1c0,16.3,13.2,29.4,29.4,29.4s29.4-13.2,29.4-29.4
		C618.3,306.8,605.1,293.6,588.9,293.6z"/>
</g>
<g>
	<g>
		<g>
			<path class="st18" d="M826.9,386.7c10.3,21.2,1.5,46.7-19.7,57.1c-21.2,10.3-46.7,1.5-57-19.7c-10.3-21.2-1.5-46.7,19.7-57.1
				C791.1,356.7,816.6,365.5,826.9,386.7z"/>
			<g>
				<path class="st19" d="M816.2,372.9L746,408c-0.2-3.8,0-7.6,0.8-11.2l60-30C810.2,368.4,813.4,370.4,816.2,372.9z"/>
				<path class="st20" d="M824.8,383l-76,38c-0.6-1.5-1.1-3.1-1.5-4.7l74.7-37.4C823,380.2,824,381.5,824.8,383z"/>
				<path class="st19" d="M828.9,391.7l-75.6,37.8c-0.9-1.3-1.7-2.7-2.5-4.2l76.3-38.1C827.8,388.7,828.4,390.2,828.9,391.7z"/>
				<path class="st20" d="M831,401.4L759.9,437c-1.3-1.1-2.4-2.3-3.6-3.6l73.9-37C830.6,398,830.9,399.7,831,401.4z"/>
				<path class="st19" d="M830.8,411.1c-0.6,4.4-1.9,8.7-3.8,12.8v0l-46.8,23.4c-4.4-0.9-8.6-2.4-12.5-4.6L830.8,411.1z"/>
			</g>
			<path class="st21" d="M826.9,386.7c-1.2-2.4-2.6-4.7-4.1-6.7c5.9,20.8-4.3,40.2-22.8,50.1c-20.2,10.7-43,5.4-53.2-16.2
				c0.7,3.5,1.8,6.9,3.5,10.2c10.3,21.2,35.8,30,57,19.7C828.4,433.4,837.2,407.9,826.9,386.7z"/>
			<path class="st22" d="M847.1,374c-0.9-1.8-2.3-3-3.6-3.6c-0.3-0.2-0.6-0.3-0.9-0.4c-0.3-0.1-0.6-0.3-0.9-0.3
				c-0.5-0.1-1.1-0.3-1.6-0.4c-2-0.4-3.6-0.4-5.2-0.3c-3.1,0.1-5.9,0.7-8.7,1.2c-3.5,0.8-6.8,1.7-10.1,2.8c2.7,2.3,5.1,4.9,7.1,7.8
				c1.6-0.4,3.2-0.7,4.8-0.9c2.4-0.4,4.9-0.7,7-0.7c0.3,0,0.6,0,0.9,0c-0.2,0.3-0.4,0.5-0.7,0.8c-1.4,1.6-3.2,3.2-5.1,4.8
				c-3.8,3.1-8,5.9-12.4,8.6c-8.7,5.4-17.8,10.2-27.1,14.8c-4.6,2.3-9.3,4.5-14,6.5c-4.7,2-9.5,4-14.3,5.7
				c-4.8,1.7-9.6,3.3-14.4,4.4c-2.4,0.5-4.8,1-6.9,1.1c-0.4,0-0.7,0-1,0c0.2-0.2,0.3-0.5,0.5-0.7c1.3-1.7,3-3.5,4.8-5.1
				c0.7-0.7,1.4-1.3,2.2-1.9c-1.1-3.5-1.7-7.1-1.9-10.6c-2.3,1.6-4.6,3.3-6.8,5.1c-2.2,1.8-4.3,3.7-6.3,6.1c-1,1.2-2,2.5-2.9,4.3
				c-0.2,0.4-0.4,1-0.6,1.5c-0.1,0.3-0.2,0.6-0.3,0.9c-0.1,0.3-0.2,0.6-0.2,1c-0.2,1.4-0.2,3.3,0.7,5.1c0.9,1.8,2.3,3,3.5,3.7
				c0.3,0.2,0.6,0.3,0.9,0.5c0.3,0.1,0.6,0.3,0.9,0.4c0.5,0.2,1.1,0.4,1.6,0.5c2,0.5,3.6,0.5,5.2,0.5c3.2,0,6-0.4,8.8-0.9
				c5.6-1,10.9-2.4,16.1-4c5.2-1.7,10.3-3.5,15.3-5.5c5-2,10-4.2,14.8-6.5c9.7-4.7,19.2-10,28.1-16.3c4.5-3.2,8.8-6.5,13.1-10.3
				c2.1-1.9,4.2-3.9,6.1-6.4c1-1.3,1.9-2.6,2.8-4.4c0.2-0.4,0.4-1,0.6-1.5c0.1-0.3,0.2-0.6,0.3-0.9c0.1-0.3,0.1-0.6,0.2-1
				C848,377.7,847.9,375.8,847.1,374z M739.3,427.8C739.3,427.8,739.2,427.8,739.3,427.8c0-0.1,0-0.1,0-0.1
				C739.3,427.8,739.3,427.8,739.3,427.8z M838.3,379.5C838.3,379.5,838.3,379.5,838.3,379.5C838.2,379.5,838.3,379.5,838.3,379.5
				C838.3,379.5,838.3,379.5,838.3,379.5z"/>
			<path class="st23" d="M741.6,433.6c-1.6,0-2.9-0.1-4.5-0.4c-0.4-0.1-0.8-0.2-1.3-0.4c-0.2-0.1-0.4-0.2-0.5-0.2l-0.3-0.1
				c-0.1,0-0.2-0.1-0.3-0.2c-0.5-0.3-1.7-1.1-2.3-2.4c-0.6-1.3-0.5-2.6-0.4-3.1l0-0.1c0-0.1,0.1-0.2,0.1-0.4l0.1-0.2l0.1-0.2
				c0-0.1,0.1-0.2,0.1-0.3l0.1-0.2c0.1-0.3,0.3-0.7,0.4-1c0.7-1.5,1.5-2.5,2.6-3.7c1.8-2.1,3.6-3.7,6-5.7c0.7-0.6,1.4-1.2,2.2-1.7
				c0.2,1.3,0.5,2.5,0.8,3.8c-0.2,0.2-0.5,0.4-0.7,0.7c-2,1.9-5.5,4.4-6.3,7.1c-0.3,0.9-0.2,2,0.4,2.7c0.6,0.8,1.7,1,2.7,1
				c3,0,5.5,0,8.5-0.7c5.4-1.2,10.8-3,14.8-4.5c4.4-1.5,9-3.4,14.5-5.8c4.5-2,9.3-4.2,14.2-6.6c10.5-5.2,19.5-10.1,27.3-15
				c6.9-4.3,13.4-9,19-14.8c5.8-6-8.6-4.9-11-4.5c-1,0.2-2,0.3-3,0.5c-0.8-1-1.6-1.9-2.4-2.9c1.6-0.4,3.2-0.8,4.7-1.2
				c2.5-0.5,5.2-1,8.1-1.2c0.4,0,0.8,0,1.2,0c1.1,0,2.2,0.1,3.2,0.3c0.3,0,0.6,0.2,1,0.3l0.3,0.1c0.1,0,0.2,0.1,0.3,0.1l0.5,0.2
				c0.1,0,0.1,0.1,0.2,0.1l0.2,0.1c0.4,0.2,1.6,0.9,2.3,2.3c0.6,1.3,0.5,2.7,0.4,3.2l0,0.1c0,0.2-0.1,0.3-0.1,0.4l0,0.2
				c0,0.2-0.1,0.4-0.1,0.5c-0.2,0.4-0.3,0.9-0.5,1.2c-0.8,1.7-1.7,2.9-2.5,3.9c-1.9,2.4-3.9,4.3-5.8,6c-3.6,3.3-7.7,6.5-12.7,10
				c-8.3,5.8-17.4,11-27.7,16c-5.3,2.5-10.1,4.6-14.6,6.5c-4.9,2-9.9,3.8-15.1,5.4c-5.7,1.8-10.8,3.1-15.7,3.9
				C747.5,433.2,744.6,433.6,741.6,433.6z"/>
		</g>
	</g>
</g>
<g>
	<g>
		<g>
			<circle class="st24" cx="350.1" cy="101.9" r="44.6"/>
			<g>
				<path class="st25" d="M365.7,60.1l-57,25.3c2.2-5.5,5.4-10.4,9.4-14.5l30.5-13.5c0.5,0,1,0,1.5,0
					C355.6,57.3,360.8,58.3,365.7,60.1z"/>
				<path class="st26" d="M387.9,78.2L307.2,114c-0.4-1.5-0.8-3.1-1-4.7l79-35C386.1,75.5,387,76.9,387.9,78.2z"/>
				<path class="st27" d="M392,86.7l-81.3,36c-0.7-1.4-1.4-2.8-2-4.3l81.5-36.1C390.8,83.7,391.4,85.2,392,86.7z"/>
				<path class="st26" d="M394.3,95.9L316,130.6c-1.1-1.2-2-2.5-2.9-3.9l80.3-35.6C393.7,92.7,394,94.3,394.3,95.9z"/>
				<g>
					<path class="st28" d="M342.8,76.3L316,88.2c-2.4,1.1-3.5,3.9-2.4,6.2c1.1,2.4,3.9,3.5,6.2,2.4L346.6,85
						c2.4-1.1,3.5-3.9,2.4-6.2C348,76.3,345.2,75.3,342.8,76.3z"/>
					<path class="st28" d="M381,69.7l-5.9,2.6c-2.4,1.1-5.2,0-6.2-2.4c-1.1-2.4,0-5.2,2.4-6.2l1.1-0.5C375.5,65,378.4,67.2,381,69.7
						z"/>
				</g>
				<path class="st25" d="M390.3,121.1c-3,6.4-7.6,11.9-13.1,16.2l-19.2,8.5c-2.6,0.5-5.2,0.7-8,0.7c-4.4,0-8.7-0.7-12.8-1.9
					L390.3,121.1z"/>
				<g>
					<path class="st28" d="M394.6,102.7c-0.1,3.8-0.6,7.5-1.6,11c-2.3,0.8-4.9-0.2-5.9-2.5c-1.1-2.4,0-5.2,2.4-6.2L394.6,102.7z"/>
					<path class="st28" d="M343.5,135.7l26.8-11.9c2.4-1.1,3.5-3.9,2.4-6.2c-1.1-2.4-3.9-3.5-6.2-2.4l-26.8,11.9
						c-2.4,1.1-3.5,3.9-2.4,6.2C338.3,135.7,341.1,136.8,343.5,135.7z"/>
				</g>
			</g>
			<path class="st29" d="M350.1,57.3c-1.6,0-3.2,0.1-4.8,0.3c17.6,2.1,31.3,17.1,31.3,35.3c0,19.6-15.9,35.5-35.5,35.5
				c-18.2,0-33.2-13.7-35.3-31.3c-0.2,1.6-0.3,3.2-0.3,4.8c0,24.6,20,44.6,44.6,44.6c24.6,0,44.6-20,44.6-44.6
				C394.6,77.2,374.7,57.3,350.1,57.3z"/>
		</g>
	</g>
	<path class="st5" d="M384.8,150.2l0.8,2c0.2,0.4,0.5,0.7,0.8,0.8l2,0.8c1.3,0.5,1.3,2.3,0,2.8l-2,0.8c-0.4,0.2-0.7,0.5-0.8,0.8
		l-0.8,2c-0.5,1.3-2.3,1.3-2.8,0l-0.8-2c-0.2-0.4-0.5-0.7-0.8-0.8l-2-0.8c-1.3-0.5-1.3-2.3,0-2.8l2-0.8c0.4-0.2,0.7-0.5,0.8-0.8
		l0.8-2C382.5,148.9,384.2,148.9,384.8,150.2z"/>
	<path class="st5" d="M384.7,42.7l0.6,1.4c0.1,0.3,0.3,0.5,0.6,0.6l1.4,0.6c0.9,0.4,0.9,1.6,0,2l-1.4,0.6c-0.3,0.1-0.5,0.3-0.6,0.6
		l-0.6,1.4c-0.4,0.9-1.6,0.9-2,0l-0.6-1.4c-0.1-0.3-0.3-0.5-0.6-0.6l-1.4-0.6c-0.9-0.4-0.9-1.6,0-2l1.4-0.6c0.3-0.1,0.5-0.3,0.6-0.6
		l0.6-1.4C383.1,41.9,384.3,41.9,384.7,42.7z"/>
	<path class="st5" d="M296.1,65.9l0.6,1.4c0.1,0.3,0.3,0.5,0.6,0.6l1.4,0.6c0.9,0.4,0.9,1.6,0,2l-1.4,0.6c-0.3,0.1-0.5,0.3-0.6,0.6
		l-0.6,1.4c-0.4,0.9-1.6,0.9-2,0l-0.6-1.4c-0.1-0.3-0.3-0.5-0.6-0.6l-1.4-0.6c-0.9-0.4-0.9-1.6,0-2l1.4-0.6c0.3-0.1,0.5-0.3,0.6-0.6
		l0.6-1.4C294.5,65,295.8,65,296.1,65.9z"/>
	<path class="st5" d="M293.1,155.3l0.3,0.9c0.1,0.2,0.2,0.3,0.4,0.4l0.9,0.3c0.6,0.2,0.6,1,0,1.2l-0.9,0.3c-0.2,0.1-0.3,0.2-0.4,0.4
		l-0.3,0.9c-0.2,0.6-1,0.6-1.2,0l-0.3-0.9c-0.1-0.2-0.2-0.3-0.4-0.4l-0.9-0.3c-0.6-0.2-0.6-1,0-1.2l0.9-0.3c0.2-0.1,0.3-0.2,0.4-0.4
		l0.3-0.9C292.1,154.7,292.9,154.7,293.1,155.3z"/>
</g>
<g>
	<g>
		<circle class="st30" cx="544.8" cy="8.7" r="30.1"/>
		<path class="st31" d="M544.8-5.1c0,0.9-0.4,1.7-0.9,2.2c-0.6,0.6-1.4,0.9-2.2,0.9h-25c0.9-2.3,2-4.4,3.3-6.3h21.7
			C543.4-8.3,544.8-6.9,544.8-5.1z"/>
		<path class="st31" d="M574.2,14.9c-0.5,2.2-1.2,4.3-2.1,6.3H548c-1.8,0-3.2-1.4-3.2-3.2c0-0.9,0.4-1.7,0.9-2.2s1.4-0.9,2.2-0.9
			H574.2z"/>
		<path class="st31" d="M544.8,31.8c0,0.9-0.4,1.7-0.9,2.2c-0.6,0.6-1.4,0.9-2.2,0.9H530c-2.9-1.6-5.6-3.8-7.8-6.3h19.4
			C543.4,28.6,544.8,30,544.8,31.8z"/>
		<path class="st32" d="M544.8-21.4c-1.1,0-2.2,0.1-3.2,0.2c11.9,1.4,21.1,11.5,21.1,23.8c0,13.3-10.7,24-24,24
			c-12.3,0-22.4-9.2-23.8-21.1c-0.1,1.1-0.2,2.1-0.2,3.2c0,16.6,13.5,30.1,30.1,30.1c16.6,0,30.1-13.5,30.1-30.1
			C574.9-7.9,561.4-21.4,544.8-21.4z"/>
	</g>
	<path class="st5" d="M576.8-27l0.8,2c0.2,0.4,0.5,0.7,0.8,0.8l2,0.8c1.3,0.5,1.3,2.3,0,2.8l-2,0.8c-0.4,0.2-0.7,0.5-0.8,0.8l-0.8,2
		c-0.5,1.3-2.3,1.3-2.8,0l-0.8-2c-0.2-0.4-0.5-0.7-0.8-0.8l-2-0.8c-1.3-0.5-1.3-2.3,0-2.8l2-0.8c0.4-0.2,0.7-0.5,0.8-0.8l0.8-2
		C574.5-28.2,576.3-28.2,576.8-27z"/>
	<path class="st5" d="M514.5,38.5l0.6,1.4c0.1,0.3,0.3,0.5,0.6,0.6l1.4,0.6c0.9,0.4,0.9,1.6,0,2l-1.4,0.6c-0.3,0.1-0.5,0.3-0.6,0.6
		l-0.6,1.4c-0.4,0.9-1.6,0.9-2,0l-0.6-1.4c-0.1-0.3-0.3-0.5-0.6-0.6L510,43c-0.9-0.4-0.9-1.6,0-2l1.4-0.6c0.3-0.1,0.5-0.3,0.6-0.6
		l0.6-1.4C512.9,37.6,514.2,37.6,514.5,38.5z"/>
	<path class="st5" d="M575.9,42.7l0.3,0.9c0.1,0.2,0.2,0.3,0.4,0.4l0.9,0.4c0.6,0.2,0.6,1,0,1.2l-0.9,0.3c-0.2,0.1-0.3,0.2-0.4,0.4
		l-0.4,0.9c-0.2,0.6-1,0.6-1.2,0l-0.3-0.9c-0.1-0.2-0.2-0.3-0.4-0.4l-0.9-0.4c-0.6-0.2-0.6-1,0-1.2l0.9-0.3c0.2-0.1,0.3-0.2,0.4-0.4
		l0.4-0.9C574.9,42.1,575.7,42.1,575.9,42.7z"/>
	<path class="st5" d="M515.8-31.1l0.3,0.9c0.1,0.2,0.2,0.3,0.4,0.4l0.9,0.4c0.6,0.2,0.6,1,0,1.2l-0.9,0.3c-0.2,0.1-0.3,0.2-0.4,0.4
		l-0.4,0.9c-0.2,0.6-1,0.6-1.2,0l-0.3-0.9c-0.1-0.2-0.2-0.3-0.4-0.4l-0.9-0.4c-0.6-0.2-0.6-1,0-1.2l0.9-0.3c0.2-0.1,0.3-0.2,0.4-0.4
		l0.4-0.9C514.8-31.7,515.6-31.6,515.8-31.1z"/>
</g>
<g>
	
		<linearGradient id="SVGID_2_" gradientUnits="userSpaceOnUse" x1="300.6529" y1="1190.4841" x2="354.8948" y2="1190.4841" gradientTransform="matrix(-0.7071 0.7071 -0.7071 -0.7071 1414.269 962.1624)">
		<stop  offset="0" style="stop-color:#D4088C"/>
		<stop  offset="4.496314e-02" style="stop-color:#CC088C"/>
		<stop  offset="0.4621" style="stop-color:#85078A"/>
		<stop  offset="0.7624" style="stop-color:#590689"/>
		<stop  offset="0.914" style="stop-color:#480689"/>
	</linearGradient>
	<circle class="st33" cx="340.7" cy="352.1" r="27.1"/>
	
		<linearGradient id="SVGID_3_" gradientUnits="userSpaceOnUse" x1="221.1084" y1="1414.7733" x2="243.5708" y2="1414.7733" gradientTransform="matrix(-1 0 0 -1 608.1528 1575.2839)">
		<stop  offset="0" style="stop-color:#6EE8FC"/>
		<stop  offset="0.1572" style="stop-color:#6AE2FB"/>
		<stop  offset="0.3681" style="stop-color:#5ED1F7"/>
		<stop  offset="0.6094" style="stop-color:#4BB5F1"/>
		<stop  offset="0.8716" style="stop-color:#308EE8"/>
		<stop  offset="0.9624" style="stop-color:#267FE5"/>
	</linearGradient>
	<circle class="st34" cx="375.8" cy="160.5" r="11.2"/>
	
		<linearGradient id="SVGID_4_" gradientUnits="userSpaceOnUse" x1="267.5239" y1="738.1779" x2="293.2137" y2="738.1779" gradientTransform="matrix(0.8955 0.445 -0.445 0.8955 808.5575 -582.0529)">
		<stop  offset="0" style="stop-color:#6EE8FC"/>
		<stop  offset="0.1572" style="stop-color:#6AE2FB"/>
		<stop  offset="0.3681" style="stop-color:#5ED1F7"/>
		<stop  offset="0.6094" style="stop-color:#4BB5F1"/>
		<stop  offset="0.8716" style="stop-color:#308EE8"/>
		<stop  offset="0.9624" style="stop-color:#267FE5"/>
	</linearGradient>
	<circle class="st35" cx="730" cy="203.2" r="10.3"/>
	<g>
		<circle class="st36" cx="450" cy="113.8" r="2.9"/>
		<circle class="st36" cx="399.6" cy="406.4" r="3.5"/>
		<circle class="st37" cx="377.6" cy="391" r="1.8"/>
		<circle class="st37" cx="680.4" cy="325.1" r="1.8"/>
		<g>
			<circle class="st37" cx="338.4" cy="200.6" r="2.6"/>
			<circle class="st37" cx="532.5" cy="106" r="2.6"/>
			<circle class="st37" cx="350.2" cy="194.9" r="1.4"/>
		</g>
		<circle class="st38" cx="597.4" cy="115.2" r="1.7"/>
	</g>
	<g>
		<g>
			<polygon class="st39" points="349.6,285.8 349,283.5 353.9,282.2 352.6,277.2 354.8,276.6 356.8,283.8 			"/>
		</g>
		<g>
			<polygon class="st39" points="345.3,293.5 344.6,291.3 349.6,289.9 348.2,285 350.4,284.3 352.4,291.5 			"/>
		</g>
		<g>
			<polygon class="st39" points="349.9,291 347.9,283.9 355.1,281.9 355.7,284.1 350.7,285.5 352.1,290.4 			"/>
		</g>
	</g>
	<path class="st39" d="M520.3,120.7c-3,0-5.5-2.5-5.5-5.5s2.5-5.5,5.5-5.5c3,0,5.5,2.5,5.5,5.5S523.3,120.7,520.3,120.7z
		 M520.3,112.1c-1.8,0-3.2,1.4-3.2,3.2c0,1.8,1.4,3.2,3.2,3.2c1.8,0,3.2-1.4,3.2-3.2C523.4,113.5,522,112.1,520.3,112.1z"/>
	<path class="st39" d="M640.7,395.5l-6.2-6.2l6.2-6.2l6.2,6.2L640.7,395.5z M637.7,389.2l3,3l3-3l-3-3L637.7,389.2z"/>
	<g>
		
			<rect x="656.9" y="167.5" transform="matrix(0.707 -0.7072 0.7072 0.707 71.0269 515.7991)" class="st38" width="2.3" height="9.4"/>
		
			<rect x="653.3" y="171" transform="matrix(0.7071 -0.7071 0.7071 0.7071 70.9995 515.7523)" class="st38" width="9.4" height="2.3"/>
	</g>
</g>
<g>
	<path class="st40" d="M134.6,175.6l78,45c0.9,0.5,2.1,0.5,2.9,0.1l46.5-26.9c0.7-0.4,0.6-1.2-0.2-1.7l-78-45
		c-0.9-0.5-2.1-0.5-2.9-0.1l-46.5,26.9C133.6,174.3,133.7,175.1,134.6,175.6z"/>
	<g>
		<g>
			<g>
				<g>
					<g>
						
							<linearGradient id="SVGID_5_" gradientUnits="userSpaceOnUse" x1="-4875.9814" y1="124.8285" x2="-4784.9854" y2="124.8285" gradientTransform="matrix(-1 0 0 1 -4601.3818 0)">
							<stop  offset="0" style="stop-color:#7BDAFF"/>
							<stop  offset="1" style="stop-color:#59BDEF"/>
						</linearGradient>
						<path class="st41" d="M183.6,130.5l9.9-58.5l-0.8-0.3l1.2-0.7l0,0c0.2-0.2,0.6-0.1,0.9,0.1l78.8,45.5c0.6,0.4,1.1,1.3,1,2
							l-9.9,58.9c-0.1,0.3-0.2,0.5-0.4,0.6l0,0l-1.2,0.7l-0.2-1.1l0.1,0l-78.3-45.2C184,132.1,183.5,131.2,183.6,130.5z"/>
						<path class="st42" d="M273.1,118.1l1.3-0.6c0.1,0.3,0.2,0.7,0.2,1l-9.9,58.9c-0.1,0.3-0.2,0.5-0.4,0.6l0,0l-1.2,0.7l-0.2-1.1
							l0.1,0l-4-2.3L273.1,118.1z"/>
						
							<linearGradient id="SVGID_6_" gradientUnits="userSpaceOnUse" x1="-4874.7456" y1="125.2256" x2="-4783.7495" y2="125.2256" gradientTransform="matrix(-1 0 0 1 -4601.3818 0)">
							<stop  offset="0" style="stop-color:#2573BA"/>
							<stop  offset="1" style="stop-color:#0063AD"/>
						</linearGradient>
						<path class="st43" d="M183.4,133.2l78.8,45.5c0.6,0.4,1.1,0.1,1.2-0.5l9.9-58.9c0.1-0.7-0.4-1.6-1-2l-78.8-45.5
							c-0.6-0.4-1.1-0.1-1.2,0.5l-9.9,58.9C182.3,131.9,182.8,132.8,183.4,133.2z"/>
						
							<linearGradient id="SVGID_7_" gradientUnits="userSpaceOnUse" x1="-4874.7456" y1="125.2256" x2="-4783.7495" y2="125.2256" gradientTransform="matrix(-1 0 0 1 -4601.3818 0)">
							<stop  offset="0" style="stop-color:#2C75E4"/>
							<stop  offset="4.482364e-02" style="stop-color:#3461D5"/>
							<stop  offset="0.1323" style="stop-color:#4140BB"/>
							<stop  offset="0.2225" style="stop-color:#4B27A7"/>
							<stop  offset="0.3154" style="stop-color:#521499"/>
							<stop  offset="0.4127" style="stop-color:#570A91"/>
							<stop  offset="0.5215" style="stop-color:#58068E"/>
							<stop  offset="0.6592" style="stop-color:#5B078F"/>
							<stop  offset="0.7607" style="stop-color:#640A92"/>
							<stop  offset="0.8506" style="stop-color:#740F98"/>
							<stop  offset="0.9332" style="stop-color:#8B17A0"/>
							<stop  offset="1" style="stop-color:#A31FA9"/>
						</linearGradient>
						<path class="st44" d="M183.4,133.2l78.8,45.5c0.6,0.4,1.1,0.1,1.2-0.5l9.9-58.9c0.1-0.7-0.4-1.6-1-2l-78.8-45.5
							c-0.6-0.4-1.1-0.1-1.2,0.5l-9.9,58.9C182.3,131.9,182.8,132.8,183.4,133.2z"/>
						
							<linearGradient id="SVGID_8_" gradientUnits="userSpaceOnUse" x1="-4872.8765" y1="125.2367" x2="-4785.708" y2="125.2367" gradientTransform="matrix(-1 0 0 1 -4601.3818 0)">
							<stop  offset="0" style="stop-color:#7BDAFF"/>
							<stop  offset="1" style="stop-color:#59BDEF"/>
						</linearGradient>
						<polygon class="st45" points="193.7,75 271.5,119.9 262.1,175.5 184.3,130.6 						"/>
					</g>
					<g>
						
							<linearGradient id="SVGID_9_" gradientUnits="userSpaceOnUse" x1="-4863.79" y1="174.3976" x2="-4735.2739" y2="174.3976" gradientTransform="matrix(-1 0 0 1 -4601.3818 0)">
							<stop  offset="0" style="stop-color:#2C75E4"/>
							<stop  offset="4.482364e-02" style="stop-color:#3461D5"/>
							<stop  offset="0.1323" style="stop-color:#4140BB"/>
							<stop  offset="0.2225" style="stop-color:#4B27A7"/>
							<stop  offset="0.3154" style="stop-color:#521499"/>
							<stop  offset="0.4127" style="stop-color:#570A91"/>
							<stop  offset="0.5215" style="stop-color:#58068E"/>
							<stop  offset="0.6592" style="stop-color:#5B078F"/>
							<stop  offset="0.7607" style="stop-color:#640A92"/>
							<stop  offset="0.8506" style="stop-color:#740F98"/>
							<stop  offset="0.9332" style="stop-color:#8B17A0"/>
							<stop  offset="1" style="stop-color:#A31FA9"/>
						</linearGradient>
						<path class="st46" d="M133.9,161.1l4.3,2.2l43.1-24.9c0.7-0.4,2-0.4,2.8,0.1l74.3,42.9c0.7-0.4,4-2,4-2l-1.6,4.1c0,0,0,0,0,0
							c-0.1,0.2-0.2,0.4-0.4,0.5L215,210.3c-0.7,0.4-2,0.4-2.8-0.1l-76.1-43.9c-0.3-0.2-0.6-0.4-0.6-0.7l0,0L133.9,161.1z"/>
						
							<radialGradient id="SVGID_10_" cx="-4867.7271" cy="180.5198" r="136.4456" gradientTransform="matrix(-1 0 0 1 -4601.3818 0)" gradientUnits="userSpaceOnUse">
							<stop  offset="0" style="stop-color:#2979E4"/>
							<stop  offset="0.2449" style="stop-color:#4958CD"/>
							<stop  offset="0.5716" style="stop-color:#6E33B2"/>
							<stop  offset="0.8349" style="stop-color:#851BA1"/>
							<stop  offset="1" style="stop-color:#8D139B"/>
						</radialGradient>
						<path class="st47" d="M134.6,161.8l78,45c0.9,0.5,2.1,0.5,2.9,0.1l46.5-26.9c0.7-0.4,0.6-1.2-0.2-1.7l-78-45
							c-0.9-0.5-2.1-0.5-2.9-0.1l-46.5,26.9C133.6,160.6,133.7,161.3,134.6,161.8z"/>
						<path class="st37" d="M134.6,161l78,45c0.9,0.5,2.1,0.5,2.9,0.1l46.5-26.9c0.2-0.1,0.3-0.2,0.4-0.4c0.2,0.4,0.1,0.8-0.4,1.1
							l-46.5,26.9c-0.7,0.4-2,0.4-2.9-0.1l-78-45c-0.7-0.4-0.9-0.9-0.6-1.3C134.1,160.7,134.3,160.9,134.6,161z"/>
					</g>
				</g>
				<g class="st48">
					<defs>
						<polygon id="SVGID_11_" class="st48" points="194.6,75.5 271.5,119.9 262.1,175.5 185.2,131.1 						"/>
					</defs>
					<clipPath id="SVGID_12_">
						<use xlink:href="#SVGID_11_"  style="overflow:visible;"/>
					</clipPath>
					<g class="st49">
						
							<linearGradient id="SVGID_13_" gradientUnits="userSpaceOnUse" x1="-4879.5137" y1="142.6001" x2="-4736.3638" y2="142.6001" gradientTransform="matrix(-1 0 0 1 -4601.3818 0)">
							<stop  offset="0" style="stop-color:#C0BFF6"/>
							<stop  offset="0.2938" style="stop-color:#C5C4F7"/>
							<stop  offset="0.6399" style="stop-color:#D3D2F9"/>
							<stop  offset="1" style="stop-color:#E9E9FD"/>
						</linearGradient>
						<path class="st50" d="M183.9,133.4l86.8,50.1c1,0.5,2.4,0.6,3.2,0.1l51.8-29.9c0.8-0.5,0.7-1.3-0.2-1.9l-86.8-50.1
							c-1-0.5-2.4-0.6-3.2-0.1l-51.8,29.9C182.8,132,182.9,132.8,183.9,133.4z"/>
						<g>
							<g>
								<radialGradient id="SVGID_14_" cx="233.0586" cy="150.9506" r="26.6703" gradientUnits="userSpaceOnUse">
									<stop  offset="0" style="stop-color:#22215B"/>
									<stop  offset="0.3261" style="stop-color:#1E1E55"/>
									<stop  offset="0.7509" style="stop-color:#141645"/>
									<stop  offset="1" style="stop-color:#0C0F38"/>
								</radialGradient>
								<polygon class="st51" points="202.9,132.1 265.7,168.4 263.2,169.8 200.4,133.5 								"/>
								<radialGradient id="SVGID_15_" cx="238.1239" cy="146.2296" r="25.4" gradientUnits="userSpaceOnUse">
									<stop  offset="0" style="stop-color:#22215B"/>
									<stop  offset="0.3261" style="stop-color:#1E1E55"/>
									<stop  offset="0.7509" style="stop-color:#141645"/>
									<stop  offset="1" style="stop-color:#0C0F38"/>
								</radialGradient>
								<polygon class="st52" points="209.5,128.3 269.2,162.8 266.7,164.2 207,129.7 								"/>
								<g>
									<polygon class="st39" points="273.7,165.3 279.3,168.5 276.8,170 271.2,166.8 									"/>
								</g>
								<g>
									<polygon class="st39" points="268.8,170.1 272.6,172.4 270.2,173.8 266.3,171.6 									"/>
								</g>
								<radialGradient id="SVGID_16_" cx="247.2917" cy="146.7322" r="29.4981" gradientUnits="userSpaceOnUse">
									<stop  offset="0" style="stop-color:#22215B"/>
									<stop  offset="0.3261" style="stop-color:#1E1E55"/>
									<stop  offset="0.7509" style="stop-color:#141645"/>
									<stop  offset="1" style="stop-color:#0C0F38"/>
								</radialGradient>
								<polygon class="st53" points="213.7,125.9 283.4,166.2 280.9,167.6 211.2,127.3 								"/>
								<radialGradient id="SVGID_17_" cx="251.4404" cy="144.337" r="29.4981" gradientUnits="userSpaceOnUse">
									<stop  offset="0" style="stop-color:#22215B"/>
									<stop  offset="0.3261" style="stop-color:#1E1E55"/>
									<stop  offset="0.7509" style="stop-color:#141645"/>
									<stop  offset="1" style="stop-color:#0C0F38"/>
								</radialGradient>
								<polygon class="st54" points="217.8,123.5 287.6,163.8 285.1,165.2 215.3,124.9 								"/>
								<radialGradient id="SVGID_18_" cx="255.589" cy="141.9417" r="29.4981" gradientUnits="userSpaceOnUse">
									<stop  offset="0" style="stop-color:#22215B"/>
									<stop  offset="0.3261" style="stop-color:#1E1E55"/>
									<stop  offset="0.7509" style="stop-color:#141645"/>
									<stop  offset="1" style="stop-color:#0C0F38"/>
								</radialGradient>
								<polygon class="st55" points="222,121.1 291.7,161.4 289.2,162.8 219.5,122.5 								"/>
							</g>
						</g>
					</g>
				</g>
			</g>
		</g>
		<g>
			<g>
				<polygon class="st39" points="181.9,143.5 238.2,176 240.7,174.6 184.4,142.1 				"/>
			</g>
			<g>
				<polygon class="st39" points="175.7,147.1 228.5,177.6 231,176.1 178.2,145.6 				"/>
			</g>
			<g>
				<polygon class="st39" points="171.7,149.4 233.9,185.3 236.4,183.8 174.2,147.9 				"/>
			</g>
			<g>
				<polygon class="st39" points="167.8,151.7 229.9,187.6 232.4,186.1 170.3,150.3 				"/>
			</g>
			<g>
				<polygon class="st39" points="163.8,154 225.9,189.9 228.4,188.4 166.3,152.6 				"/>
			</g>
			<g>
				<polygon class="st39" points="241.6,178 244.1,179.4 246.6,178 244.1,176.6 				"/>
			</g>
			<g>
				<polygon class="st39" points="232.7,180 237.9,183 240.4,181.5 235.2,178.5 				"/>
			</g>
		</g>
	</g>
	<g class="st56">
		<polygon class="st3" points="200.1,91.6 205.3,94.6 205.4,93.7 200.3,90.7 		"/>
		<polygon class="st3" points="206.1,95.1 208.9,96.7 209,95.8 206.2,94.2 		"/>
		<polygon class="st3" points="213.3,99.2 215.3,100.4 215.4,99.5 213.4,98.3 		"/>
		<polygon class="st3" points="211.8,98.3 212.5,98.7 212.6,97.8 211.9,97.4 		"/>
		<polygon class="st3" points="209.7,97.2 211,97.9 211.1,97 209.9,96.3 		"/>
		<polygon class="st3" points="204.2,98.4 206.2,99.6 206.4,98.7 204.3,97.5 		"/>
		<polygon class="st3" points="199.4,95.7 203.4,98 203.6,97.1 199.6,94.8 		"/>
		<g>
			<polygon class="st3" points="205.1,110.2 209.1,112.5 209.3,111.6 205.3,109.3 			"/>
			<polygon class="st3" points="203.1,109 204.3,109.7 204.5,108.8 203.2,108.1 			"/>
		</g>
		<polygon class="st3" points="205.8,106.1 209.8,108.4 209.9,107.5 205.9,105.2 		"/>
		<polygon class="st3" points="203.7,104.9 205,105.6 205.2,104.7 203.9,104 		"/>
		<polygon class="st3" points="202.2,127.8 194.7,123.5 194.6,124.4 202,128.7 		"/>
		<polygon class="st3" points="204.8,129.3 203,128.2 202.8,129.1 204.7,130.2 		"/>
		<polygon class="st3" points="218,130.2 210.5,125.9 210.4,126.7 217.8,131.1 		"/>
		<polygon class="st3" points="220.6,131.7 218.8,130.6 218.6,131.5 220.5,132.6 		"/>
		<polygon class="st3" points="197.1,122.6 195.1,121.4 194.9,122.3 196.9,123.5 		"/>
		<polygon class="st3" points="209.4,125.2 207.4,124.1 207.2,125 209.3,126.1 		"/>
		<polygon class="st3" points="201.8,125.3 197.9,123.1 197.7,123.9 201.7,126.2 		"/>
		<polygon class="st3" points="203.9,126.5 202.6,125.8 202.5,126.7 203.7,127.4 		"/>
		<polygon class="st3" points="208.7,129.3 204.7,127 204.6,127.9 208.5,130.2 		"/>
		<polygon class="st3" points="210.7,130.5 209.5,129.7 209.3,130.6 210.6,131.4 		"/>
		<polygon class="st3" points="209.1,127.3 207.1,126.1 206.9,127 208.9,128.2 		"/>
		<polygon class="st3" points="213.8,130 209.9,127.7 209.7,128.6 213.7,130.9 		"/>
		<polygon class="st3" points="215.9,131.2 214.6,130.5 214.5,131.4 215.7,132.1 		"/>
		<polygon class="st3" points="199.6,121.8 195.4,119.4 195.3,120.3 199.4,122.7 		"/>
		<polygon class="st3" points="203.3,124 200.3,122.2 200.2,123.1 203.2,124.9 		"/>
		<polygon class="st3" points="206.2,125.6 204.1,124.4 204,125.3 206,126.5 		"/>
		<polygon class="st3" points="225.8,134.7 221.7,132.3 221.5,133.2 225.7,135.6 		"/>
		<polygon class="st3" points="229.6,136.9 226.6,135.1 226.5,136 229.5,137.8 		"/>
		<polygon class="st3" points="232.4,138.5 230.4,137.3 230.2,138.2 232.3,139.4 		"/>
		<polygon class="st3" points="224.2,107.7 228.3,110.1 228.5,109.2 224.3,106.8 		"/>
		<polygon class="st3" points="220.4,105.6 223.4,107.3 223.6,106.4 220.6,104.7 		"/>
		<polygon class="st3" points="217.6,103.9 219.6,105.1 219.8,104.2 217.7,103 		"/>
		<polygon class="st3" points="222.8,104.7 227,107.1 227.1,106.2 223,103.8 		"/>
		<polygon class="st3" points="219,102.5 222,104.2 222.2,103.4 219.2,101.6 		"/>
		<polygon class="st3" points="216.2,100.9 218.2,102.1 218.4,101.2 216.4,100 		"/>
		<polygon class="st3" points="206.1,108.5 207.5,109.3 207.6,108.4 206.2,107.6 		"/>
		<polygon class="st3" points="203.4,106.9 205.3,108 205.4,107.1 203.6,106.1 		"/>
		<polygon class="st3" points="199.9,119.8 195.8,117.4 195.6,118.3 199.8,120.6 		"/>
		<polygon class="st3" points="203.7,121.9 200.7,120.2 200.6,121.1 203.6,122.8 		"/>
		<polygon class="st3" points="206.5,123.6 204.5,122.4 204.3,123.3 206.4,124.5 		"/>
		<polygon class="st3" points="197.5,116.1 196.1,115.3 196,116.2 197.4,117 		"/>
		<polygon class="st3" points="200.2,117.7 198.3,116.6 198.2,117.5 200,118.5 		"/>
		<polygon class="st3" points="203.9,119.8 200.9,118.1 200.8,119 203.8,120.7 		"/>
		<polygon class="st3" points="208,102.8 209.4,103.7 209.5,102.8 208.1,102 		"/>
		<polygon class="st3" points="205.3,101.3 207.2,102.4 207.3,101.5 205.5,100.4 		"/>
		<polygon class="st3" points="201.6,99.1 204.5,100.9 204.7,100 201.7,98.3 		"/>
		<polygon class="st3" points="210.1,106.2 213.1,107.9 213.2,107 210.3,105.3 		"/>
		<polygon class="st3" points="205.2,103.5 209.2,105.8 209.4,104.9 205.4,102.6 		"/>
		<polygon class="st3" points="203.2,102.3 204.4,103 204.6,102.2 203.3,101.4 		"/>
		<polygon class="st3" points="201.2,101.2 202.5,101.9 202.6,101 201.4,100.3 		"/>
		<g>
			<polygon class="st3" points="201.5,112.7 205.5,115 205.6,114.1 201.6,111.8 			"/>
			<polygon class="st3" points="199.4,111.5 200.7,112.3 200.9,111.4 199.6,110.6 			"/>
			<polygon class="st3" points="201.8,115.1 203.2,115.9 203.3,115 201.9,114.2 			"/>
			<polygon class="st3" points="206.7,113.5 208.1,114.3 208.3,113.4 206.9,112.6 			"/>
			<polygon class="st3" points="208.7,114.6 212.1,116.6 212.2,115.7 208.9,113.7 			"/>
			<polygon class="st3" points="212.7,116.9 214.7,118.1 214.8,117.2 212.8,116 			"/>
			<polygon class="st3" points="199.1,113.6 201,114.7 201.1,113.8 199.3,112.7 			"/>
			<g>
				<polygon class="st3" points="199,115.7 200.4,116.5 200.5,115.6 199.1,114.8 				"/>
				<polygon class="st3" points="196.3,114.2 198.2,115.2 198.3,114.3 196.5,113.3 				"/>
			</g>
			<polygon class="st3" points="204.7,112.3 205.9,113 206.1,112.1 204.8,111.4 			"/>
			<polygon class="st3" points="202.7,111.2 204,111.9 204.1,111 202.9,110.3 			"/>
		</g>
		<polygon class="st3" points="212.4,100.9 216.7,103.4 216.8,102.5 212.5,100 		"/>
		<polygon class="st3" points="207.6,98.1 211.6,100.5 211.7,99.6 207.7,97.2 		"/>
		<polygon class="st3" points="205.5,97 206.8,97.7 206.9,96.8 205.7,96.1 		"/>
		<polygon class="st3" points="203.6,95.8 204.8,96.6 205,95.7 203.7,94.9 		"/>
		<polygon class="st3" points="202.5,95.2 199.8,93.6 199.9,92.7 202.6,94.3 		"/>
	</g>
</g>
<g>
	<path class="st57" d="M596.3,534.4h3.4c-2.4,1.5-4.9,2.9-7.5,4C592.3,536.2,594.1,534.4,596.3,534.4z"/>
	<g>
		<circle class="st58" cx="596" cy="491.1" r="51.7"/>
		<path class="st57" d="M609.4,448.9c0,2.2-1.8,4.1-4.1,4.1h-16c-2.2,0-4.1,1.8-4.1,4.1c0,2.2,1.8,4.1,4.1,4.1h4.5
			c1.9,0,3.4,1.5,3.4,3.4v1.4c0,1.9-1.5,3.4-3.4,3.4h-15.6c-2.2,0-4.1,1.8-4.1,4.1c0,2.2,1.8,4.1,4.1,4.1h4.3c2.3,0,4.1,1.8,4.1,4.1
			c0,2.2-1.8,4.1-4.1,4.1h-16.9c-1.3,0-2.5,0.5-3.4,1.4c-0.9,0.9-1.4,2-1.4,3.4c0,1.9,1.5,3.4,3.4,3.4h17c2.2,0,4.1,1.8,4.1,4.1
			s-1.8,4.1-4.1,4.1h-35.8c-0.7-3.4-1.1-7-1.1-10.7c0-20.3,11.7-37.8,28.7-46.3h32.3C607.6,444.8,609.4,446.6,609.4,448.9z"/>
		<path class="st57" d="M647.6,491.1c0,13.6-5.2,25.9-13.8,35.2h-14.4c-2.3,0-4.1-1.8-4.1-4.1c0-2.2,1.8-4.1,4.1-4.1h4.3
			c2.2,0,4.1-1.8,4.1-4.1c0-2.2-1.8-4.1-4.1-4.1h-14.9c-2.2,0-4.1-1.8-4.1-4.1c0-2.2,1.8-4.1,4.1-4.1h3.8c2.2,0,4.1-1.8,4.1-4.1
			s-1.8-4.1-4.1-4.1h-16c-2.2,0-4.1-1.8-4.1-4.1c0-2.3,1.8-4.1,4.1-4.1h41.1c1.9,0,3.4-1.5,3.4-3.4c0-1.9-1.5-3.4-3.4-3.4h-17.6
			c-1.9,0-3.4-1.5-3.4-3.4V474c0-1.9,1.5-3.4,3.4-3.4h23.3C646.1,476.9,647.6,483.8,647.6,491.1z"/>
		<path class="st57" d="M568.5,523.8H556c-2.1-2.5-3.9-5.2-5.5-8.1h18c1.9,0,3.4,1.5,3.4,3.4v1.4
			C571.9,522.3,570.4,523.8,568.5,523.8z"/>
		<path class="st57" d="M596.1,534.7c0,2.2-1.8,4.1-4.1,4.1h-16c-4.9-2-9.3-4.8-13.3-8.1H592C594.3,530.6,596.1,532.4,596.1,534.7z"
			/>
	</g>
</g>
<g>
	<g>
		<path class="st3" d="M437.3,268.6c1.9,0,1.9-3,0-3C435.3,265.6,435.3,268.6,437.3,268.6L437.3,268.6z"/>
	</g>
</g>
<g>
	<g>
		<path class="st3" d="M778.2,184c1.9,0,1.9-3,0-3C776.3,181,776.3,184,778.2,184L778.2,184z"/>
	</g>
</g>
<g>
	<g>
		<path class="st3" d="M615.4,122.5c1.9,0,1.9-3,0-3C613.5,119.5,613.5,122.5,615.4,122.5L615.4,122.5z"/>
	</g>
</g>
<g>
	<g>
		<path class="st3" d="M620.5,40.5c1.9,0,1.9-3,0-3C618.6,37.5,618.6,40.5,620.5,40.5L620.5,40.5z"/>
	</g>
</g>
<g>
	<g>
		<path class="st3" d="M295,163.5c1.9,0,1.9-3,0-3C293.1,160.5,293.1,163.5,295,163.5L295,163.5z"/>
	</g>
</g>
<g>
	<g>
		<path class="st3" d="M273.2,81.5c1.9,0,1.9-3,0-3C271.3,78.5,271.3,81.5,273.2,81.5L273.2,81.5z"/>
	</g>
</g>
<g>
	<g>
		<path class="st3" d="M452.6,75.1c1.9,0,1.9-3,0-3C450.7,72.1,450.7,75.1,452.6,75.1L452.6,75.1z"/>
	</g>
</g>
<g>
	<g>
		<path class="st3" d="M502.6,341.7c1.9,0,1.9-3,0-3C500.7,338.7,500.7,341.7,502.6,341.7L502.6,341.7z"/>
	</g>
</g>
<g>
	<g>
		<path class="st3" d="M657.7,269.9c1.9,0,1.9-3,0-3C655.8,266.9,655.8,269.9,657.7,269.9L657.7,269.9z"/>
	</g>
</g>
<g>
	<g>
		<path class="st3" d="M744.9,307.1c1.9,0,1.9-3,0-3C742.9,304.1,742.9,307.1,744.9,307.1L744.9,307.1z"/>
	</g>
</g>
<g>
	<g>
		<path class="st3" d="M812.8,237.9c1.9,0,1.9-3,0-3C810.9,234.9,810.9,237.9,812.8,237.9L812.8,237.9z"/>
	</g>
</g>
<g>
	<g>
		<path class="st3" d="M709.2,370.1c1.9,0,1.9-3,0-3C707.2,367.1,707.2,370.1,709.2,370.1L709.2,370.1z"/>
	</g>
</g>
<g>
	<g>
		<path class="st3" d="M729.2,475.1c1.9,0,1.9-3,0-3C727.3,472.1,727.3,475.1,729.2,475.1L729.2,475.1z"/>
	</g>
</g>
<g>
	<g>
		<path class="st3" d="M656.4,468.6c1.9,0,1.9-3,0-3C654.5,465.6,654.5,468.6,656.4,468.6L656.4,468.6z"/>
	</g>
</g>
<g>
	<g>
		<path class="st3" d="M423.2,389.1c1.9,0,1.9-3,0-3C421.2,386.1,421.2,389.1,423.2,389.1L423.2,389.1z"/>
	</g>
</g>
<g>
	<g>
		<path class="st3" d="M696.2,555.7c1.9,0,1.9-3,0-3C694.2,552.7,694.2,555.7,696.2,555.7L696.2,555.7z"/>
	</g>
</g>
<g>
	<g>
		<path class="st3" d="M810.2,550.6c1.9,0,1.9-3,0-3C808.3,547.6,808.3,550.6,810.2,550.6L810.2,550.6z"/>
	</g>
</g>
<g>
	<g>
		<path class="st3" d="M526.3,500.6c1.9,0,1.9-3,0-3C524.3,497.6,524.3,500.6,526.3,500.6L526.3,500.6z"/>
	</g>
</g>
<g>
	<g>
		<path class="st3" d="M477.5,274.3c1.9,0,1.9-3,0-3C475.6,271.3,475.6,274.3,477.5,274.3L477.5,274.3z"/>
	</g>
</g>
<g>
	<g>
		<path class="st3" d="M274.5,295.5c1.9,0,1.9-3,0-3C272.5,292.5,272.5,295.5,274.5,295.5L274.5,295.5z"/>
	</g>
</g>
<g>
	<g>
		<path class="st3" d="M253.7,57.9c1.9,0,1.9-3,0-3C251.7,54.9,251.7,57.9,253.7,57.9L253.7,57.9z"/>
	</g>
</g>
<g>
	<g>
		<path class="st3" d="M218.7,65.3c1.9,0,1.9-3,0-3C216.8,62.3,216.8,65.3,218.7,65.3L218.7,65.3z"/>
	</g>
</g>
<g>
	<g>
		<path class="st3" d="M139.9,54.6c1.9,0,1.9-3,0-3C138,51.6,138,54.6,139.9,54.6L139.9,54.6z"/>
	</g>
</g>
<g>
	<g>
		<path class="st3" d="M198.9,25.1c1.9,0,1.9-3,0-3C196.9,22.1,196.9,25.1,198.9,25.1L198.9,25.1z"/>
	</g>
</g>
<g>
	<g>
		<path class="st3" d="M385.1,169.5c1.9,0,1.9-3,0-3C383.1,166.5,383.1,169.5,385.1,169.5L385.1,169.5z"/>
	</g>
</g>
<g>
	<g>
		<path class="st3" d="M328.3,239.7c1,0,1-1.5,0-1.5C327.3,238.2,327.3,239.7,328.3,239.7L328.3,239.7z"/>
	</g>
</g>
<g>
	<g>
		<path class="st3" d="M414.2,158.9c1,0,1-1.5,0-1.5C413.2,157.4,413.2,158.9,414.2,158.9L414.2,158.9z"/>
	</g>
</g>
<g>
	<g>
		<path class="st3" d="M511.6,108.9c1,0,1-1.5,0-1.5C510.6,107.4,510.6,108.9,511.6,108.9L511.6,108.9z"/>
	</g>
</g>
<g>
	<g>
		<path class="st3" d="M660.3,124.3c1,0,1-1.5,0-1.5C659.3,122.8,659.3,124.3,660.3,124.3L660.3,124.3z"/>
	</g>
</g>
<g>
	<g>
		<path class="st3" d="M675.7,247.4c1,0,1-1.5,0-1.5C674.7,245.9,674.7,247.4,675.7,247.4L675.7,247.4z"/>
	</g>
</g>
<g>
	<g>
		<path class="st3" d="M685.6,431.4c1,0,1-1.5,0-1.5C684.7,429.9,684.7,431.4,685.6,431.4L685.6,431.4z"/>
	</g>
</g>
<g>
	<g>
		<path class="st3" d="M553.9,480.6c1,0,1-1.5,0-1.5C552.9,479.1,552.9,480.6,553.9,480.6L553.9,480.6z"/>
	</g>
</g>
<g>
	<g>
		<path class="st3" d="M473.6,384c1,0,1-1.5,0-1.5C472.6,382.5,472.6,384,473.6,384L473.6,384z"/>
	</g>
</g>
<g>
	<g>
		<path class="st3" d="M657.7,398.6c1,0,1-1.5,0-1.5C656.7,397.1,656.7,398.6,657.7,398.6L657.7,398.6z"/>
	</g>
</g>
<g>
	<g>
		<path class="st3" d="M575.7,293.5c1,0,1-1.5,0-1.5C574.7,292,574.7,293.5,575.7,293.5L575.7,293.5z"/>
	</g>
</g>
<g>
	<g>
		<path class="st3" d="M471.9,180.7c1,0,1-1.5,0-1.5C470.9,179.2,470.9,180.7,471.9,180.7L471.9,180.7z"/>
	</g>
</g>
<g>
	<g>
		<path class="st3" d="M756.4,115.4c1,0,1-1.5,0-1.5C755.4,113.9,755.4,115.4,756.4,115.4L756.4,115.4z"/>
	</g>
</g>
<g>
	<g>
		<path class="st3" d="M776.9,74.3c1,0,1-1.5,0-1.5C775.9,72.8,775.9,74.3,776.9,74.3L776.9,74.3z"/>
	</g>
</g>
<g>
	<g>
		<path class="st3" d="M828.2,101.3c1,0,1-1.5,0-1.5C827.2,99.8,827.2,101.3,828.2,101.3L828.2,101.3z"/>
	</g>
</g>
<g>
	<g>
		<path class="st3" d="M797.4,101.3c1,0,1-1.5,0-1.5C796.5,99.8,796.5,101.3,797.4,101.3L797.4,101.3z"/>
	</g>
</g>
<g>
	<g>
		<path class="st3" d="M793.6,176.9c1,0,1-1.5,0-1.5C792.6,175.4,792.6,176.9,793.6,176.9L793.6,176.9z"/>
	</g>
</g>
<g>
	<g>
		<path class="st3" d="M571.8,158.9c1,0,1-1.5,0-1.5C570.9,157.4,570.9,158.9,571.8,158.9L571.8,158.9z"/>
	</g>
</g>
<g>
	<g>
		<path class="st3" d="M651.3,34.6c1,0,1-1.5,0-1.5C650.3,33.1,650.3,34.6,651.3,34.6L651.3,34.6z"/>
	</g>
</g>
<g>
	<g>
		<path class="st3" d="M446.2,32c1,0,1-1.5,0-1.5C445.3,30.5,445.3,32,446.2,32L446.2,32z"/>
	</g>
</g>
<g>
	<g>
		<path class="st3" d="M389.8,208.9c1,0,1-1.5,0-1.5C388.9,207.4,388.9,208.9,389.8,208.9L389.8,208.9z"/>
	</g>
</g>
<g>
	<g>
		<path class="st3" d="M299.4,254.1c1,0,1-1.5,0-1.5C298.5,252.6,298.5,254.1,299.4,254.1L299.4,254.1z"/>
	</g>
</g>
<g>
	<g>
		<path class="st3" d="M252.3,29.6c1,0,1-1.5,0-1.5C251.4,28.1,251.4,29.6,252.3,29.6L252.3,29.6z"/>
	</g>
</g>
<g>
	<g>
		<path class="st3" d="M179.8,61.3c1,0,1-1.5,0-1.5C178.9,59.8,178.9,61.3,179.8,61.3L179.8,61.3z"/>
	</g>
</g>
<g>
	<g>
		<path class="st3" d="M306.5,35.9c1,0,1-1.5,0-1.5C305.6,34.4,305.6,35.9,306.5,35.9L306.5,35.9z"/>
	</g>
</g>
<g>
	<g>
		<path class="st3" d="M389.8,12.8c1,0,1-1.5,0-1.5C388.9,11.3,388.9,12.8,389.8,12.8L389.8,12.8z"/>
	</g>
</g>
<g>
	<g>
		<path class="st3" d="M430.8,305c1,0,1-1.5,0-1.5C429.9,303.5,429.9,305,430.8,305L430.8,305z"/>
	</g>
</g>
<g>
	<g>
		<path class="st3" d="M379.6,333.2c1,0,1-1.5,0-1.5C378.6,331.7,378.6,333.2,379.6,333.2L379.6,333.2z"/>
	</g>
</g>
<g>
	<g>
		<path class="st3" d="M526.2,407.1c1,0,1-1.5,0-1.5C525.2,405.6,525.2,407.1,526.2,407.1L526.2,407.1z"/>
	</g>
</g>
<g>
	<g>
		<path class="st3" d="M321.9,357.6c1,0,1-1.5,0-1.5C320.9,356.1,320.9,357.6,321.9,357.6L321.9,357.6z"/>
	</g>
</g>
<g>
	<g>
		<path class="st3" d="M591.1,234.6c1,0,1-1.5,0-1.5C590.1,233.1,590.1,234.6,591.1,234.6L591.1,234.6z"/>
	</g>
</g>
<g>
	<g>
		<path class="st3" d="M518,252.5c1,0,1-1.5,0-1.5C517,251,517,252.5,518,252.5L518,252.5z"/>
	</g>
</g>
<g>
	<g>
		<path class="st3" d="M697.4,158.9c1,0,1-1.5,0-1.5C696.5,157.4,696.5,158.9,697.4,158.9L697.4,158.9z"/>
	</g>
</g>
<g>
	<g>
		<path class="st3" d="M739.7,512.7c1,0,1-1.5,0-1.5C738.8,511.2,738.8,512.7,739.7,512.7L739.7,512.7z"/>
	</g>
</g>
<g>
	<g>
		<path class="st3" d="M569.3,394.8c1,0,1-1.5,0-1.5C568.3,393.3,568.3,394.8,569.3,394.8L569.3,394.8z"/>
	</g>
</g>
<g>
	<g>
		<path class="st3" d="M284.5,205.2c1,0,1-1.5,0-1.5C283.6,203.7,283.6,205.2,284.5,205.2L284.5,205.2z"/>
	</g>
</g>
<g>
	<g>
		<path class="st3" d="M408.1,243.1c1,0,1-1.5,0-1.5C407.2,241.6,407.2,243.1,408.1,243.1L408.1,243.1z"/>
	</g>
</g>
<g>
	<g>
		<path class="st3" d="M656.4,543.4c1,0,1-1.5,0-1.5C655.5,541.9,655.5,543.4,656.4,543.4L656.4,543.4z"/>
	</g>
</g>
<g>
	<g>
		<path class="st3" d="M705.1,321.7c1,0,1-1.5,0-1.5C704.2,320.2,704.2,321.7,705.1,321.7L705.1,321.7z"/>
	</g>
</g>
<g>
	<g>
		<path class="st3" d="M60.4,58.4c1.9,0,1.9-3,0-3C58.5,55.4,58.5,58.4,60.4,58.4L60.4,58.4z"/>
	</g>
</g>
<g>
	<g>
		<path class="st3" d="M73.2,154.6c1.9,0,1.9-3,0-3C71.3,151.6,71.3,154.6,73.2,154.6L73.2,154.6z"/>
	</g>
</g>
<g>
	<g>
		<path class="st3" d="M102.7,100.7c1.9,0,1.9-3,0-3C100.8,97.7,100.8,100.7,102.7,100.7L102.7,100.7z"/>
	</g>
</g>
<g>
	<g>
		<path class="st3" d="M429.9,345.1c1.9,0,1.9-3,0-3C428,342.1,428,345.1,429.9,345.1L429.9,345.1z"/>
	</g>
</g>
<g>
	<g>
		<path class="st3" d="M564.4,216.8c1.9,0,1.9-3,0-3C562.5,213.8,562.5,216.8,564.4,216.8L564.4,216.8z"/>
	</g>
</g>
<g>
	<g>
		<path class="st3" d="M578,432.1c1.9,0,1.9-3,0-3C576.1,429.1,576.1,432.1,578,432.1L578,432.1z"/>
	</g>
</g>
<g>
	<g>
		<path class="st3" d="M565.4,541.6c1.9,0,1.9-3,0-3C563.5,538.6,563.5,541.6,565.4,541.6L565.4,541.6z"/>
	</g>
</g>
<g>
	<g>
		<path class="st3" d="M377.4,293.1c1,0,1-1.5,0-1.5C376.4,291.6,376.4,293.1,377.4,293.1L377.4,293.1z"/>
	</g>
</g>
<g>
	<g>
		<path class="st3" d="M312.9,460.1c1,0,1-1.5,0-1.5C312,458.6,312,460.1,312.9,460.1L312.9,460.1z"/>
	</g>
</g>
<g>
	<g>
		<path class="st3" d="M518,561.4c1,0,1-1.5,0-1.5C517,559.9,517,561.4,518,561.4L518,561.4z"/>
	</g>
</g>
<g>
	<g>
		<path class="st3" d="M510.7,485.9c1,0,1-1.5,0-1.5C509.7,484.4,509.7,485.9,510.7,485.9L510.7,485.9z"/>
	</g>
</g>
<g>
	<g>
		<path class="st3" d="M511.8,243c1,0,1-1.5,0-1.5C510.9,241.5,510.9,243,511.8,243L511.8,243z"/>
	</g>
</g>
<g>
	<g>
		<path class="st3" d="M669.5,205.8c1,0,1-1.5,0-1.5C668.5,204.3,668.5,205.8,669.5,205.8L669.5,205.8z"/>
	</g>
</g>
<g>
	<g>
		<g>
			<g>
				<circle class="st59" cx="462.1" cy="301.6" r="35.6"/>
				<g>
					<path class="st60" d="M480.2,270.8l-0.1,0.1l-53.4,34.5c-0.1-1.2-0.2-2.5-0.2-3.8c0-2.6,0.3-5.1,0.8-7.6v0l42.1-27.2
						c1.4,0.3,2.8,0.6,4.1,1.1c0,0,0.1,0,0.1,0C475.9,268.7,478.1,269.6,480.2,270.8z"/>
					<path class="st60" d="M492.2,320.5c-2.5,3.9-5.7,7.3-9.4,10c0,0-0.1,0-0.1,0.1l-3.1,2h0c-3.9,2.2-8.2,3.7-12.8,4.3L492.2,320.5
						z"/>
					<path class="st61" d="M463.1,266.1l-34,21.9c0.9-2.1,1.9-4.1,3.2-6v0l24.1-15.6c1.9-0.3,3.7-0.4,5.7-0.4
						C462.4,266.1,462.8,266.1,463.1,266.1z"/>
					<path class="st60" d="M497.7,301.2v0.3c0,3.1-0.4,6.2-1.2,9l-40.3,26c-3.2-0.5-6.2-1.5-9.1-2.8L497.7,301.2z"/>
					<path class="st61" d="M455.8,300.6c0,1.5-0.7,3-2.1,3.8l-22.6,14.6c-1.5-2.7-2.7-5.7-3.5-8.7l20.9-13.5
						c2.2-1.4,5.1-0.8,6.5,1.3C455.5,298.9,455.8,299.8,455.8,300.6z"/>
					<path class="st61" d="M490.8,280.5l-13,8.4c-2.2,1.4-4.6,10.6-6.1,8.5c-0.5-0.8-1.2-11.5-1.2-12.3c0-1.5,0.7-3,2.1-3.8
						l11.7-7.5C486.7,275.7,488.9,278,490.8,280.5z"/>
					<path class="st61" d="M497,294.6l-39.9,25.8c-2.2,1.4-5.1,0.8-6.5-1.3c-0.5-0.8-0.8-1.6-0.8-2.5c0-1.5,0.7-3,2.1-3.9l41.9-27.1
						C495.3,288.4,496.3,291.4,497,294.6z"/>
				</g>
				<path class="st62" d="M462.1,266c-1.5,0-3,0.1-4.4,0.3c13.2,1.9,23.4,13.3,23.4,27c0,15.1-12.2,27.3-27.3,27.3
					c-13.8,0-25.1-10.2-27-23.4c-0.2,1.4-0.3,2.9-0.3,4.4c0,19.7,15.9,35.6,35.6,35.6c19.7,0,35.6-15.9,35.6-35.6
					C497.7,281.9,481.7,266,462.1,266z"/>
			</g>
		</g>
		<path class="st5" d="M497.7,325.5l0.8,2c0.2,0.4,0.5,0.7,0.8,0.8l2,0.8c1.3,0.5,1.3,2.3,0,2.8l-2,0.8c-0.4,0.2-0.7,0.5-0.8,0.8
			l-0.8,2c-0.5,1.3-2.3,1.3-2.8,0l-0.8-2c-0.2-0.4-0.5-0.7-0.8-0.8l-2-0.8c-1.3-0.5-1.3-2.3,0-2.8l2-0.8c0.4-0.2,0.7-0.5,0.8-0.8
			l0.8-2C495.4,324.2,497.2,324.2,497.7,325.5z"/>
		<path class="st5" d="M423.8,260.2l0.6,1.4c0.1,0.3,0.3,0.5,0.6,0.6l1.4,0.6c0.9,0.4,0.9,1.6,0,2l-1.4,0.6
			c-0.3,0.1-0.5,0.3-0.6,0.6l-0.6,1.4c-0.4,0.9-1.6,0.9-2,0l-0.6-1.4c-0.1-0.3-0.3-0.5-0.6-0.6l-1.4-0.6c-0.9-0.4-0.9-1.6,0-2
			l1.4-0.6c0.3-0.1,0.5-0.3,0.6-0.6l0.6-1.4C422.2,259.3,423.5,259.3,423.8,260.2z"/>
		<path class="st5" d="M426.1,334.8l0.3,0.9c0.1,0.2,0.2,0.3,0.4,0.4l0.9,0.3c0.6,0.2,0.6,1,0,1.2l-0.9,0.3
			c-0.2,0.1-0.3,0.2-0.4,0.4l-0.3,0.9c-0.2,0.6-1,0.6-1.2,0l-0.3-0.9c-0.1-0.2-0.2-0.3-0.4-0.4l-0.9-0.3c-0.6-0.2-0.6-1,0-1.2
			l0.9-0.3c0.2-0.1,0.3-0.2,0.4-0.4l0.3-0.9C425.1,334.2,425.9,334.2,426.1,334.8z"/>
	</g>
</g>
</svg>
