<?xml version="1.0" encoding="utf-8"?>
<!-- Generator: Adobe Illustrator 21.0.2, SVG Export Plug-In . SVG Version: 6.00 Build 0)  -->
<svg version="1.1" xmlns="http://www.w3.org/2000/svg" xmlns:xlink="http://www.w3.org/1999/xlink" x="0px" y="0px"
	 viewBox="0 0 818 667" style="enable-background:new 0 0 818 667;" xml:space="preserve">
<style type="text/css">
	.st0{fill:url(#SVGID_1_);}
	.st1{fill:#0091C8;}
	.st2{fill:#2BE279;}
	.st3{fill:#FFFFFF;}
	.st4{opacity:0.23;fill:#0073AA;enable-background:new    ;}
	.st5{fill:#182B5B;}
	.st6{fill:#B4D7DC;}
	.st7{fill:#9BB9C3;}
	.st8{fill:#A5C8CD;}
	.st9{fill:#FF3C3C;}
	.st10{fill:#BE1423;}
	.st11{opacity:0.49;fill:#BC3132;enable-background:new    ;}
	.st12{fill:#D8A799;}
	.st13{fill:#E3D2C8;}
	.st14{opacity:0.26;fill:#D8A799;enable-background:new    ;}
	.st15{fill:#EF9318;}
	.st16{fill:#F2B816;}
	.st17{opacity:0.4;fill:#EF9318;enable-background:new    ;}
	.st18{fill:#E48332;}
	.st19{fill:#D56730;}
	.st20{fill:#F6964F;}
	.st21{opacity:0.32;fill:#CC6843;enable-background:new    ;}
	.st22{fill:#ADC2D6;}
	.st23{fill:#8799AA;}
	.st24{fill:#E79968;}
	.st25{fill:#A7473B;}
	.st26{fill:#FFBF8F;}
	.st27{fill:#E5D371;}
	.st28{fill:#B97850;}
	.st29{opacity:0.21;fill:#A56941;enable-background:new    ;}
	.st30{fill:#97F4EC;}
	.st31{fill:#54B5B7;}
	.st32{fill:#98CBCD;}
	.st33{fill:url(#SVGID_2_);}
	.st34{fill:url(#SVGID_3_);}
	.st35{fill:url(#SVGID_4_);}
	.st36{opacity:0.8;fill:#D4088C;enable-background:new    ;}
	.st37{fill:#6EE8FC;}
	.st38{fill:#D4088C;}
	.st39{fill:#6EE1F8;}
	.st40{fill:#F4B427;}
	.st41{fill:#FFD23C;}
	.st42{fill:#1E87DC;}
	.st43{fill:#283D77;}
	.st44{fill:#0073AA;}
	.st45{opacity:0.44;fill:#0073AA;enable-background:new    ;}
	.st46{fill:url(#SVGID_5_);}
</style>
<g id="Layer_1">
	
		<radialGradient id="SVGID_1_" cx="479.5935" cy="256.3683" r="419.9647" gradientTransform="matrix(1 -9.166691e-03 6.675140e-03 0.7282 -1.6911 74.0863)" gradientUnits="userSpaceOnUse">
		<stop  offset="0" style="stop-color:#22215B"/>
		<stop  offset="0.3261" style="stop-color:#1E1E55"/>
		<stop  offset="0.7509" style="stop-color:#141645"/>
		<stop  offset="1" style="stop-color:#0C0F38"/>
	</radialGradient>
	<path class="st0" d="M895.1,530.3c-0.1,0-0.3,0.1-0.5,0.2c-14.9,5.5-9.1,35.3-17.7,44.3c-17.1,18-81.9-58.4-151.9-54.7
		c-62.3,3.3-68.2,66.5-152.8,84.9c-16.8,3.6-77,16.7-120.8-15.1c-52.4-38.1-27.2-101.6-77.4-134c-37.5-24.2-60.1,4.1-124.5-16
		c-10.1-3.2-74.3-26.7-108.5-83c-34.3-56.5-8.4-91-46.2-150c-30.3-47.3-55.5-37.4-76.4-76.4C-22.6,54,23.8-77.9,90.1-96
		c31-8.4,54.6,11.3,88.4,27.4C372.4,24,756-73.7,777.1-59.2c12.9,8.9,24.8,18.7,24.8,18.7c4.2,3.5,8.7,7.3,13.4,11.7
		C1008.2,147.9,969.9,504.2,895.1,530.3z"/>
	<g>
		<g>
			<g>
				<circle class="st1" cx="694.3" cy="78" r="42.3"/>
				<path class="st2" d="M697.7,51.9c0,3.2-2.6,5.8-5.8,5.8H681c-1.5,0-2.8,0.6-3.7,1.5c-0.9,1-1.5,2.3-1.5,3.7
					c0,2.9,2.4,5.3,5.3,5.3h1.4c1.6,0,3.1,0.7,4.1,1.7s1.7,2.5,1.7,4.1c0,3.2-2.6,5.8-5.8,5.8h-30.4c0-0.6,0-1.2,0-1.9
					c0-12.7,5.6-24.1,14.5-31.9H692C695.1,46.1,697.7,48.7,697.7,51.9z"/>
				<path class="st2" d="M736.5,79.8c-0.8,17.6-12.2,32.3-28,38h-9.2c-1.3,0-2.5-0.5-3.4-1.4s-1.4-2-1.4-3.4c0-1.3,0.5-2.5,1.4-3.4
					s2-1.4,3.4-1.4c0.7,0,1.4-0.3,1.9-0.8s0.8-1.1,0.8-1.9c0-1.5-1.2-2.6-2.6-2.6h-11.6c-1.3,0-2.5-0.5-3.4-1.4s-1.4-2-1.4-3.4
					c0-2.6,2.1-4.7,4.7-4.7h11.1c0.9,0,1.7-0.4,2.2-0.9c0.6-0.6,0.9-1.4,0.9-2.2c0-1.8-1.4-3.2-3.2-3.2h-2.6c-2,0-3.7-1.7-3.7-3.7
					s1.7-3.7,3.7-3.7L736.5,79.8L736.5,79.8z"/>
				<path class="st3" d="M734.2,64H702c-1.7,0-3.2-1.4-3.2-3.2c0-0.9,0.4-1.7,0.9-2.2c0.6-0.6,1.4-0.9,2.2-0.9h29.4
					C732.5,59.7,733.4,61.8,734.2,64z"/>
				<path class="st3" d="M689.3,89.3c0,0.6-0.2,1.1-0.6,1.5c-0.4,0.4-0.9,0.6-1.5,0.6h-33c-0.5-1.4-0.9-2.8-1.2-4.2h34.2
					C688.3,87.2,689.3,88.2,689.3,89.3z"/>
				<path class="st3" d="M732.2,96.7c-0.7,1.5-1.5,2.9-2.4,4.2h-30c-1.2,0-2.1-0.9-2.1-2.1c0-0.6,0.2-1.1,0.6-1.5
					c0.4-0.4,0.9-0.6,1.5-0.6H732.2z"/>
				<path class="st3" d="M711.4,53.5h-44.3c-1.2,0-2.1-0.9-2.1-2.1l0,0c0-1.2,0.9-2.1,2.1-2.1h44.3c1.2,0,2.1,0.9,2.1,2.1l0,0
					C713.5,52.5,712.6,53.5,711.4,53.5z"/>
				<path class="st4" d="M694.3,35.7c-1.5,0-3.1,0.1-4.6,0.2c16.7,2,29.7,16.2,29.7,33.4c0,18.6-15.1,33.7-33.7,33.7
					c-17.2,0-31.5-13-33.4-29.7c-0.2,1.5-0.2,3-0.2,4.6c0,23.3,18.9,42.3,42.3,42.3c23.3,0,42.3-18.9,42.3-42.3
					C736.5,54.6,717.6,35.7,694.3,35.7z"/>
			</g>
		</g>
		<path class="st5" d="M730.7,113.9l0.8,2c0.2,0.4,0.5,0.7,0.8,0.8l2,0.8c1.3,0.5,1.3,2.3,0,2.8l-2,0.8c-0.4,0.2-0.7,0.5-0.8,0.8
			l-0.8,2c-0.5,1.3-2.3,1.3-2.8,0l-0.8-2c-0.2-0.4-0.5-0.7-0.8-0.8l-2-0.8c-1.3-0.5-1.3-2.3,0-2.8l2-0.8c0.4-0.2,0.7-0.5,0.8-0.8
			l0.8-2C728.4,112.6,730.2,112.6,730.7,113.9z"/>
		<path class="st5" d="M656.9,28.6l0.6,1.4c0.1,0.3,0.3,0.5,0.6,0.6l1.4,0.6c0.9,0.4,0.9,1.6,0,2l-1.4,0.6c-0.3,0.1-0.5,0.3-0.6,0.6
			l-0.6,1.4c-0.4,0.9-1.6,0.9-2,0l-0.6-1.4c-0.1-0.3-0.3-0.5-0.6-0.6l-1.4-0.6c-0.9-0.4-0.9-1.6,0-2l1.4-0.6
			c0.3-0.1,0.5-0.3,0.6-0.6l0.6-1.4C655.3,27.7,656.5,27.7,656.9,28.6z"/>
		<path class="st5" d="M659.1,123.2l0.3,0.9c0.1,0.2,0.2,0.3,0.4,0.4l0.9,0.3c0.6,0.2,0.6,1,0,1.2l-0.9,0.3
			c-0.2,0.1-0.3,0.2-0.4,0.4l-0.3,0.9c-0.2,0.6-1,0.6-1.2,0l-0.3-0.9c-0.1-0.2-0.2-0.3-0.4-0.4l-0.9-0.3c-0.6-0.2-0.6-1,0-1.2
			l0.9-0.3c0.2-0.1,0.3-0.2,0.4-0.4l0.3-0.9C658.1,122.6,658.9,122.6,659.1,123.2z"/>
		<path class="st5" d="M731.9,33.6l0.3,0.9c0.1,0.2,0.2,0.3,0.4,0.4l0.9,0.3c0.6,0.2,0.6,1,0,1.2l-0.9,0.3c-0.2,0.1-0.3,0.2-0.4,0.4
			l-0.3,0.9c-0.2,0.6-1,0.6-1.2,0l-0.3-0.9c-0.1-0.2-0.2-0.3-0.4-0.4l-0.9-0.3c-0.6-0.2-0.6-1,0-1.2l0.9-0.3
			c0.2-0.1,0.3-0.2,0.4-0.4l0.3-0.9C730.9,33,731.7,33,731.9,33.6z"/>
	</g>
	<g>
		<g>
			<g>
				<circle class="st6" cx="763.1" cy="23" r="13.3"/>
				<path class="st7" d="M763.1,9.7c-0.5,0-1,0-1.4,0.1c5.3,0.6,9.3,5.1,9.3,10.5c0,5.9-4.8,10.6-10.6,10.6c-5.4,0-9.9-4.1-10.5-9.3
					c-0.1,0.5-0.1,0.9-0.1,1.4c0,7.4,6,13.3,13.3,13.3s13.3-6,13.3-13.3C776.4,15.6,770.4,9.7,763.1,9.7z"/>
				<circle class="st7" cx="756.7" cy="18" r="1.9"/>
				<circle class="st7" cx="764.4" cy="22.7" r="1.9"/>
				<circle class="st7" cx="769.1" cy="15.9" r="1.5"/>
				<circle class="st7" cx="754.8" cy="24.4" r="0.8"/>
				<circle class="st8" cx="766.7" cy="32.1" r="0.8"/>
				<circle class="st8" cx="756.1" cy="32.2" r="0.8"/>
				<circle class="st8" cx="771.7" cy="27.1" r="1.8"/>
				<circle class="st7" cx="759.8" cy="26.9" r="1"/>
				<circle class="st7" cx="761.7" cy="15.1" r="0.8"/>
			</g>
		</g>
		<path class="st5" d="M778.5,5.8l0.3,0.7c0.1,0.1,0.2,0.2,0.3,0.3l0.7,0.3c0.4,0.2,0.4,0.8,0,1l-0.7,0.3c-0.1,0.1-0.2,0.2-0.3,0.3
			l-0.3,0.7c-0.2,0.4-0.8,0.4-1,0l-0.3-0.8c-0.1-0.1-0.2-0.2-0.3-0.3l-0.7-0.2c-0.4-0.2-0.4-0.8,0-1l0.7-0.3
			c0.1-0.1,0.2-0.2,0.3-0.3l0.3-0.7C777.7,5.4,778.3,5.4,778.5,5.8z"/>
		<path class="st5" d="M748.6,1.9l0.3,0.7c0.1,0.1,0.2,0.2,0.3,0.3l0.7,0.3c0.4,0.2,0.4,0.8,0,1l-0.7,0.2c-0.1,0.1-0.2,0.2-0.3,0.3
			l-0.3,0.7c-0.2,0.4-0.8,0.4-1,0l-0.3-0.7c-0.1-0.1-0.2-0.2-0.3-0.3l-0.7-0.3c-0.4-0.2-0.4-0.8,0-1l0.7-0.3
			c0.1-0.1,0.2-0.2,0.3-0.3l0.3-0.7C747.8,1.5,748.5,1.5,748.6,1.9z"/>
		<path class="st5" d="M782.1,33.4l0.3,0.7c0.1,0.1,0.2,0.2,0.3,0.3l0.7,0.3c0.4,0.2,0.4,0.8,0,1l-0.7,0.3c-0.1,0.1-0.2,0.2-0.3,0.3
			l-0.3,0.7c-0.2,0.4-0.8,0.4-1,0l-0.3-0.7c-0.1-0.1-0.2-0.2-0.3-0.3l-0.7-0.3c-0.4-0.2-0.4-0.8,0-1l0.7-0.3
			c0.1-0.1,0.2-0.2,0.3-0.3l0.3-0.7C781.3,33,781.9,33,782.1,33.4z"/>
		<path class="st5" d="M742.7,32.4l0.2,0.6c0,0.1,0.1,0.2,0.2,0.2l0.6,0.2c0.4,0.1,0.4,0.6,0,0.8l-0.6,0.2c-0.1,0-0.2,0.1-0.2,0.2
			l-0.2,0.6c-0.1,0.4-0.6,0.4-0.8,0l-0.2-0.6c0-0.1-0.1-0.2-0.2-0.2l-0.6-0.2c-0.4-0.1-0.4-0.6,0-0.8l0.6-0.2c0.1,0,0.2-0.1,0.2-0.2
			l0.2-0.6C742.1,32,742.6,32,742.7,32.4z"/>
	</g>
	<g>
		<g>
			<g>
				<circle class="st9" cx="373.7" cy="94.3" r="29.9"/>
				<path class="st10" d="M358.6,104.4h43.2c-4.2,11.5-15.2,19.8-28.1,19.8c-1.6,0-3.1-0.1-4.6-0.3c0.8-0.8,1.9-1.2,3.1-1.2h4.2
					c2.5,0,4.5-2,4.5-4.5s-2-4.5-4.5-4.5h-17.8c-2.5,0-4.5-2-4.5-4.5C354.1,106.5,356.1,104.4,358.6,104.4z"/>
				<path class="st10" d="M403.6,94.3c0,0.9,0,1.7-0.1,2.6h-18.7c-2.1,0-3.8-1.7-3.8-3.8v-1.5c0-2.1,1.7-3.8,3.8-3.8h18.1
					C403.3,89.9,403.6,92,403.6,94.3z"/>
				<path class="st10" d="M372.9,91.8c0,2.5-2,4.5-4.5,4.5h-24.5c-0.1-0.7-0.1-1.3-0.1-2c0-3.7,0.7-7.2,1.9-10.5
					c0.2,1.9,1.8,3.4,3.8,3.4h18.9C370.9,87.2,372.9,89.2,372.9,91.8z"/>
				<path class="st10" d="M385,73.6c0,2.5-2,4.5-4.5,4.5H351c-1.1,0-2.2,0.3-3,1c3.1-5.3,7.7-9.5,13.3-12c0.8,1.2,2.2,2,3.8,2h15.4
					C382.9,69,385,71.1,385,73.6z"/>
				<path class="st11" d="M373.7,64.4c-1.1,0-2.2,0.1-3.2,0.2c11.8,1.4,21,11.5,21,23.7c0,13.2-10.7,23.8-23.8,23.8
					c-12.2,0-22.3-9.2-23.7-21c-0.1,1.1-0.2,2.1-0.2,3.2c0,16.5,13.4,29.9,29.9,29.9s29.9-13.4,29.9-29.9S390.2,64.4,373.7,64.4z"/>
			</g>
		</g>
		<path class="st5" d="M407.5,121.4l0.6,1.4c0.1,0.3,0.3,0.5,0.6,0.6l1.4,0.6c0.9,0.4,0.9,1.6,0,2l-1.4,0.6
			c-0.3,0.1-0.5,0.3-0.6,0.6l-0.6,1.4c-0.4,0.9-1.6,0.9-2,0l-0.6-1.4c-0.1-0.3-0.3-0.5-0.6-0.6l-1.4-0.6c-0.9-0.4-0.9-1.6,0-2
			l1.4-0.6c0.3-0.1,0.5-0.3,0.6-0.6l0.6-1.4C405.9,120.5,407.2,120.5,407.5,121.4z"/>
		<path class="st5" d="M342.2,56.8l0.8,2c0.2,0.4,0.5,0.7,0.8,0.8l2,0.8c1.3,0.5,1.3,2.3,0,2.8l-2,0.8c-0.4,0.2-0.7,0.5-0.8,0.8
			l-0.8,2c-0.5,1.3-2.3,1.3-2.8,0l-0.8-2c-0.2-0.4-0.5-0.7-0.8-0.8l-2-0.8c-1.3-0.5-1.3-2.3,0-2.8l2-0.8c0.4-0.2,0.7-0.5,0.8-0.8
			l0.8-2C339.9,55.5,341.7,55.5,342.2,56.8z"/>
		<path class="st5" d="M401.4,53.9l0.3,0.9c0.1,0.2,0.2,0.3,0.4,0.4l0.9,0.4c0.6,0.2,0.6,1,0,1.2l-0.9,0.3c-0.2,0.1-0.3,0.2-0.4,0.4
			l-0.4,0.9c-0.2,0.6-1,0.6-1.2,0l-0.3-0.9c-0.1-0.2-0.2-0.3-0.4-0.4l-0.9-0.4c-0.6-0.2-0.6-1,0-1.2l0.9-0.3
			c0.2-0.1,0.3-0.2,0.4-0.4l0.4-0.9C400.4,53.4,401.2,53.4,401.4,53.9z"/>
		<path class="st5" d="M341.3,118l0.3,0.9c0.1,0.2,0.2,0.3,0.4,0.4l0.9,0.3c0.6,0.2,0.6,1,0,1.2l-0.9,0.3c-0.2,0.1-0.3,0.2-0.4,0.4
			l-0.3,0.9c-0.2,0.6-1,0.6-1.2,0l-0.3-0.9c-0.1-0.2-0.2-0.3-0.4-0.4l-0.9-0.3c-0.6-0.2-0.6-1,0-1.2l0.9-0.3
			c0.2-0.1,0.3-0.2,0.4-0.4l0.3-0.9C340.3,117.4,341,117.4,341.3,118z"/>
	</g>
	<g>
		<g>
			<g>
				<circle class="st12" cx="738.6" cy="266.6" r="20.2"/>
				<path class="st13" d="M750.4,265.3c-1.2,1.8-3.7,2.2-5.4,0.9l-13.2-9.4c-0.8-0.6-1.7-0.8-2.6-0.8c-1.4,0-2.8,0.7-3.7,1.9
					c-1,1.5-0.7,3.5,0.8,4.5l13.2,9.4c1.8,1.2,2.2,3.7,0.9,5.4c-1.2,1.7-3.7,2.2-5.4,0.9l-16.4-11.6c0-11.1,9.1-20.1,20.2-20.1
					c6.1,0,11.6,2.7,15.3,7l-3.3-2.4c-1.8-1.2-4.2-0.8-5.4,0.9s-0.8,4.2,0.9,5.4l3.4,2.4C751.2,261.1,751.6,263.5,750.4,265.3z"/>
				<path class="st14" d="M738.6,246.4c-0.8,0-1.6,0.1-2.4,0.2c7.7,1,13.7,7.6,13.7,15.6c0,8.7-7,15.7-15.7,15.7
					c-8,0-14.6-6-15.6-13.7c-0.1,0.8-0.1,1.6-0.1,2.4c0,11.1,9,20.2,20.2,20.2s20.2-9,20.2-20.2
					C758.8,255.4,749.7,246.4,738.6,246.4z"/>
			</g>
		</g>
	</g>
	<g>
		<circle class="st15" cx="578.1" cy="322.8" r="29.4"/>
		<g>
			<path class="st16" d="M592.7,297.3l-43.9,28.9c-0.1-1.1-0.2-2.3-0.2-3.4c0-2,0.2-4,0.6-5.9l34.7-22.9
				C587.1,294.6,590,295.8,592.7,297.3z"/>
			<path class="st16" d="M603.5,337.6c-1.5,2.6-3.4,4.9-5.6,7l0,0l-7.6,5c-2.7,1.2-5.6,2.1-8.6,2.4L603.5,337.6z"/>
			<path class="st16" d="M578.9,293.4L550.7,312c0.7-1.7,1.5-3.4,2.5-4.9l20.3-13.4c1.5-0.2,3-0.4,4.6-0.4
				C578.3,293.4,578.6,293.4,578.9,293.4z"/>
			<path class="st16" d="M607.5,322.8c0,2.4-0.3,4.6-0.8,6.9l-33.6,22.1c-2.6-0.4-5.1-1.2-7.4-2.3l41.8-27.5
				C607.5,322.3,607.5,322.6,607.5,322.8z"/>
			<path class="st16" d="M572.9,321.9c0,1.2-0.6,2.4-1.7,3.2l-18.7,12.3c-1.3-2.2-2.3-4.6-2.9-7.2l17.5-11.5
				c1.8-1.1,4.1-0.7,5.3,1.1C572.7,320.5,572.9,321.2,572.9,321.9z"/>
			<path class="st16" d="M601.6,305.1l-10.8,7.1c-1.8,1.1-4.1,0.7-5.3-1.1c-0.4-0.6-0.6-1.4-0.6-2.1c0-1.2,0.6-2.4,1.7-3.2l9.6-6.3
				C598.2,301.2,600,303,601.6,305.1z"/>
			<path class="st16" d="M606.8,316.6L574,338.2c-1.8,1.1-4.1,0.7-5.3-1.1c-0.4-0.6-0.6-1.4-0.6-2.1c0-1.2,0.6-2.4,1.7-3.2
				l34.3-22.6C605.4,311.5,606.3,314,606.8,316.6z"/>
		</g>
		<path class="st17" d="M578.1,293.4c-1,0-2.1,0.1-3.1,0.2c11.7,1.4,20.8,11.3,20.8,23.4c0,13-10.6,23.6-23.6,23.6
			c-12.1,0-22.1-9.1-23.4-20.8c-0.1,1-0.2,2.1-0.2,3.1c0,16.3,13.2,29.4,29.4,29.4s29.4-13.2,29.4-29.4
			C607.5,306.6,594.3,293.4,578.1,293.4z"/>
	</g>
	<g>
		<g>
			<g>
				<path class="st18" d="M816.1,386.5c10.3,21.2,1.5,46.7-19.7,57.1c-21.2,10.3-46.7,1.5-57-19.7s-1.5-46.7,19.7-57.1
					C780.3,356.5,805.8,365.3,816.1,386.5z"/>
				<g>
					<path class="st19" d="M805.4,372.7l-70.2,35.1c-0.2-3.8,0-7.6,0.8-11.2l60-30C799.4,368.2,802.6,370.2,805.4,372.7z"/>
					<path class="st20" d="M814,382.8l-76,38c-0.6-1.5-1.1-3.1-1.5-4.7l74.7-37.4C812.2,380,813.2,381.3,814,382.8z"/>
					<path class="st19" d="M818.1,391.5l-75.6,37.8c-0.9-1.3-1.7-2.7-2.5-4.2l76.3-38.1C817,388.5,817.6,390,818.1,391.5z"/>
					<path class="st20" d="M820.2,401.2l-71.1,35.6c-1.3-1.1-2.4-2.3-3.6-3.6l73.9-37C819.8,397.8,820.1,399.5,820.2,401.2z"/>
					<path class="st19" d="M820,410.9c-0.6,4.4-1.9,8.7-3.8,12.8l0,0l-46.8,23.4c-4.4-0.9-8.6-2.4-12.5-4.6L820,410.9z"/>
				</g>
				<path class="st21" d="M816.1,386.5c-1.2-2.4-2.6-4.7-4.1-6.7c5.9,20.8-4.3,40.2-22.8,50.1c-20.2,10.7-43,5.4-53.2-16.2
					c0.7,3.5,1.8,6.9,3.5,10.2c10.3,21.2,35.8,30,57,19.7C817.6,433.2,826.4,407.7,816.1,386.5z"/>
				<path class="st22" d="M836.3,373.8c-0.9-1.8-2.3-3-3.6-3.6c-0.3-0.2-0.6-0.3-0.9-0.4c-0.3-0.1-0.6-0.3-0.9-0.3
					c-0.5-0.1-1.1-0.3-1.6-0.4c-2-0.4-3.6-0.4-5.2-0.3c-3.1,0.1-5.9,0.7-8.7,1.2c-3.5,0.8-6.8,1.7-10.1,2.8c2.7,2.3,5.1,4.9,7.1,7.8
					c1.6-0.4,3.2-0.7,4.8-0.9c2.4-0.4,4.9-0.7,7-0.7c0.3,0,0.6,0,0.9,0c-0.2,0.3-0.4,0.5-0.7,0.8c-1.4,1.6-3.2,3.2-5.1,4.8
					c-3.8,3.1-8,5.9-12.4,8.6c-8.7,5.4-17.8,10.2-27.1,14.8c-4.6,2.3-9.3,4.5-14,6.5s-9.5,4-14.3,5.7s-9.6,3.3-14.4,4.4
					c-2.4,0.5-4.8,1-6.9,1.1c-0.4,0-0.7,0-1,0c0.2-0.2,0.3-0.5,0.5-0.7c1.3-1.7,3-3.5,4.8-5.1c0.7-0.7,1.4-1.3,2.2-1.9
					c-1.1-3.5-1.7-7.1-1.9-10.6c-2.3,1.6-4.6,3.3-6.8,5.1c-2.2,1.8-4.3,3.7-6.3,6.1c-1,1.2-2,2.5-2.9,4.3c-0.2,0.4-0.4,1-0.6,1.5
					c-0.1,0.3-0.2,0.6-0.3,0.9s-0.2,0.6-0.2,1c-0.2,1.4-0.2,3.3,0.7,5.1c0.9,1.8,2.3,3,3.5,3.7c0.3,0.2,0.6,0.3,0.9,0.5
					c0.3,0.1,0.6,0.3,0.9,0.4c0.5,0.2,1.1,0.4,1.6,0.5c2,0.5,3.6,0.5,5.2,0.5c3.2,0,6-0.4,8.8-0.9c5.6-1,10.9-2.4,16.1-4
					c5.2-1.7,10.3-3.5,15.3-5.5s10-4.2,14.8-6.5c9.7-4.7,19.2-10,28.1-16.3c4.5-3.2,8.8-6.5,13.1-10.3c2.1-1.9,4.2-3.9,6.1-6.4
					c1-1.3,1.9-2.6,2.8-4.4c0.2-0.4,0.4-1,0.6-1.5c0.1-0.3,0.2-0.6,0.3-0.9s0.1-0.6,0.2-1C837.2,377.5,837.1,375.6,836.3,373.8z
					 M728.5,427.6C728.5,427.6,728.4,427.6,728.5,427.6c0-0.1,0-0.1,0-0.1C728.5,427.6,728.5,427.6,728.5,427.6z M827.5,379.3
					L827.5,379.3C827.4,379.3,827.5,379.3,827.5,379.3L827.5,379.3z"/>
				<path class="st23" d="M730.8,433.4c-1.6,0-2.9-0.1-4.5-0.4c-0.4-0.1-0.8-0.2-1.3-0.4c-0.2-0.1-0.4-0.2-0.5-0.2l-0.3-0.1
					c-0.1,0-0.2-0.1-0.3-0.2c-0.5-0.3-1.7-1.1-2.3-2.4s-0.5-2.6-0.4-3.1v-0.1c0-0.1,0.1-0.2,0.1-0.4l0.1-0.2l0.1-0.2
					c0-0.1,0.1-0.2,0.1-0.3l0.1-0.2c0.1-0.3,0.3-0.7,0.4-1c0.7-1.5,1.5-2.5,2.6-3.7c1.8-2.1,3.6-3.7,6-5.7c0.7-0.6,1.4-1.2,2.2-1.7
					c0.2,1.3,0.5,2.5,0.8,3.8c-0.2,0.2-0.5,0.4-0.7,0.7c-2,1.9-5.5,4.4-6.3,7.1c-0.3,0.9-0.2,2,0.4,2.7c0.6,0.8,1.7,1,2.7,1
					c3,0,5.5,0,8.5-0.7c5.4-1.2,10.8-3,14.8-4.5c4.4-1.5,9-3.4,14.5-5.8c4.5-2,9.3-4.2,14.2-6.6c10.5-5.2,19.5-10.1,27.3-15
					c6.9-4.3,13.4-9,19-14.8c5.8-6-8.6-4.9-11-4.5c-1,0.2-2,0.3-3,0.5c-0.8-1-1.6-1.9-2.4-2.9c1.6-0.4,3.2-0.8,4.7-1.2
					c2.5-0.5,5.2-1,8.1-1.2c0.4,0,0.8,0,1.2,0c1.1,0,2.2,0.1,3.2,0.3c0.3,0,0.6,0.2,1,0.3l0.3,0.1c0.1,0,0.2,0.1,0.3,0.1l0.5,0.2
					c0.1,0,0.1,0.1,0.2,0.1l0.2,0.1c0.4,0.2,1.6,0.9,2.3,2.3c0.6,1.3,0.5,2.7,0.4,3.2v0.1c0,0.2-0.1,0.3-0.1,0.4v0.2
					c0,0.2-0.1,0.4-0.1,0.5c-0.2,0.4-0.3,0.9-0.5,1.2c-0.8,1.7-1.7,2.9-2.5,3.9c-1.9,2.4-3.9,4.3-5.8,6c-3.6,3.3-7.7,6.5-12.7,10
					c-8.3,5.8-17.4,11-27.7,16c-5.3,2.5-10.1,4.6-14.6,6.5c-4.9,2-9.9,3.8-15.1,5.4c-5.7,1.8-10.8,3.1-15.7,3.9
					C736.7,433,733.8,433.4,730.8,433.4z"/>
			</g>
		</g>
	</g>
	<g>
		<g>
			<g>
				<circle class="st24" cx="187.9" cy="151.6" r="44.6"/>
				<g>
					<path class="st25" d="M203.5,109.8l-57,25.3c2.2-5.5,5.4-10.4,9.4-14.5l30.5-13.5c0.5,0,1,0,1.5,0
						C193.4,107,198.6,108,203.5,109.8z"/>
					<path class="st26" d="M225.7,127.9L145,163.7c-0.4-1.5-0.8-3.1-1-4.7l79-35C223.9,125.2,224.8,126.6,225.7,127.9z"/>
					<path class="st27" d="M229.8,136.4l-81.3,36c-0.7-1.4-1.4-2.8-2-4.3L228,132C228.6,133.4,229.2,134.9,229.8,136.4z"/>
					<path class="st26" d="M232.1,145.6l-78.3,34.7c-1.1-1.2-2-2.5-2.9-3.9l80.3-35.6C231.5,142.4,231.8,144,232.1,145.6z"/>
					<g>
						<path class="st28" d="M180.6,126l-26.8,11.9c-2.4,1.1-3.5,3.9-2.4,6.2c1.1,2.4,3.9,3.5,6.2,2.4l26.8-11.8
							c2.4-1.1,3.5-3.9,2.4-6.2C185.8,126,183,125,180.6,126z"/>
						<path class="st28" d="M218.8,119.4l-5.9,2.6c-2.4,1.1-5.2,0-6.2-2.4c-1.1-2.4,0-5.2,2.4-6.2l1.1-0.5
							C213.3,114.7,216.2,116.9,218.8,119.4z"/>
					</g>
					<path class="st25" d="M228.1,170.8c-3,6.4-7.6,11.9-13.1,16.2l-19.2,8.5c-2.6,0.5-5.2,0.7-8,0.7c-4.4,0-8.7-0.7-12.8-1.9
						L228.1,170.8z"/>
					<g>
						<path class="st28" d="M232.4,152.4c-0.1,3.8-0.6,7.5-1.6,11c-2.3,0.8-4.9-0.2-5.9-2.5c-1.1-2.4,0-5.2,2.4-6.2L232.4,152.4z"/>
						<path class="st28" d="M181.3,185.4l26.8-11.9c2.4-1.1,3.5-3.9,2.4-6.2c-1.1-2.4-3.9-3.5-6.2-2.4l-26.8,11.9
							c-2.4,1.1-3.5,3.9-2.4,6.2C176.1,185.4,178.9,186.5,181.3,185.4z"/>
					</g>
				</g>
				<path class="st29" d="M187.9,107c-1.6,0-3.2,0.1-4.8,0.3c17.6,2.1,31.3,17.1,31.3,35.3c0,19.6-15.9,35.5-35.5,35.5
					c-18.2,0-33.2-13.7-35.3-31.3c-0.2,1.6-0.3,3.2-0.3,4.8c0,24.6,20,44.6,44.6,44.6s44.6-20,44.6-44.6
					C232.4,126.9,212.5,107,187.9,107z"/>
			</g>
		</g>
		<path class="st5" d="M222.6,199.9l0.8,2c0.2,0.4,0.5,0.7,0.8,0.8l2,0.8c1.3,0.5,1.3,2.3,0,2.8l-2,0.8c-0.4,0.2-0.7,0.5-0.8,0.8
			l-0.8,2c-0.5,1.3-2.3,1.3-2.8,0l-0.8-2c-0.2-0.4-0.5-0.7-0.8-0.8l-2-0.8c-1.3-0.5-1.3-2.3,0-2.8l2-0.8c0.4-0.2,0.7-0.5,0.8-0.8
			l0.8-2C220.3,198.6,222,198.6,222.6,199.9z"/>
		<path class="st5" d="M222.5,92.4l0.6,1.4c0.1,0.3,0.3,0.5,0.6,0.6l1.4,0.6c0.9,0.4,0.9,1.6,0,2l-1.4,0.6c-0.3,0.1-0.5,0.3-0.6,0.6
			l-0.6,1.4c-0.4,0.9-1.6,0.9-2,0l-0.6-1.4c-0.1-0.3-0.3-0.5-0.6-0.6l-1.4-0.6c-0.9-0.4-0.9-1.6,0-2l1.4-0.6
			c0.3-0.1,0.5-0.3,0.6-0.6l0.6-1.4C220.9,91.6,222.1,91.6,222.5,92.4z"/>
		<path class="st5" d="M133.9,115.6l0.6,1.4c0.1,0.3,0.3,0.5,0.6,0.6l1.4,0.6c0.9,0.4,0.9,1.6,0,2l-1.4,0.6
			c-0.3,0.1-0.5,0.3-0.6,0.6l-0.6,1.4c-0.4,0.9-1.6,0.9-2,0l-0.6-1.4c-0.1-0.3-0.3-0.5-0.6-0.6l-1.4-0.6c-0.9-0.4-0.9-1.6,0-2
			l1.4-0.6c0.3-0.1,0.5-0.3,0.6-0.6l0.6-1.4C132.3,114.7,133.6,114.7,133.9,115.6z"/>
		<path class="st5" d="M130.9,205l0.3,0.9c0.1,0.2,0.2,0.3,0.4,0.4l0.9,0.3c0.6,0.2,0.6,1,0,1.2l-0.9,0.3c-0.2,0.1-0.3,0.2-0.4,0.4
			l-0.3,0.9c-0.2,0.6-1,0.6-1.2,0l-0.3-0.9c-0.1-0.2-0.2-0.3-0.4-0.4l-0.9-0.3c-0.6-0.2-0.6-1,0-1.2l0.9-0.3
			c0.2-0.1,0.3-0.2,0.4-0.4l0.3-0.9C129.9,204.4,130.7,204.4,130.9,205z"/>
	</g>
	<g>
		<g>
			<circle class="st30" cx="510.5" cy="184.6" r="30.1"/>
			<path class="st31" d="M510.5,170.8c0,0.9-0.4,1.7-0.9,2.2c-0.6,0.6-1.4,0.9-2.2,0.9h-25c0.9-2.3,2-4.4,3.3-6.3h21.7
				C509.1,167.6,510.5,169,510.5,170.8z"/>
			<path class="st31" d="M539.9,190.8c-0.5,2.2-1.2,4.3-2.1,6.3h-24.1c-1.8,0-3.2-1.4-3.2-3.2c0-0.9,0.4-1.7,0.9-2.2
				c0.5-0.5,1.4-0.9,2.2-0.9C513.6,190.8,539.9,190.8,539.9,190.8z"/>
			<path class="st31" d="M510.5,207.7c0,0.9-0.4,1.7-0.9,2.2c-0.6,0.6-1.4,0.9-2.2,0.9h-11.7c-2.9-1.6-5.6-3.8-7.8-6.3h19.4
				C509.1,204.5,510.5,205.9,510.5,207.7z"/>
			<path class="st32" d="M510.5,154.5c-1.1,0-2.2,0.1-3.2,0.2c11.9,1.4,21.1,11.5,21.1,23.8c0,13.3-10.7,24-24,24
				c-12.3,0-22.4-9.2-23.8-21.1c-0.1,1.1-0.2,2.1-0.2,3.2c0,16.6,13.5,30.1,30.1,30.1c16.6,0,30.1-13.5,30.1-30.1
				C540.6,168,527.1,154.5,510.5,154.5z"/>
		</g>
		<path class="st5" d="M542.5,148.9l0.8,2c0.2,0.4,0.5,0.7,0.8,0.8l2,0.8c1.3,0.5,1.3,2.3,0,2.8l-2,0.8c-0.4,0.2-0.7,0.5-0.8,0.8
			l-0.8,2c-0.5,1.3-2.3,1.3-2.8,0l-0.8-2c-0.2-0.4-0.5-0.7-0.8-0.8l-2-0.8c-1.3-0.5-1.3-2.3,0-2.8l2-0.8c0.4-0.2,0.7-0.5,0.8-0.8
			l0.8-2C540.2,147.7,542,147.7,542.5,148.9z"/>
		<path class="st5" d="M480.2,214.4l0.6,1.4c0.1,0.3,0.3,0.5,0.6,0.6l1.4,0.6c0.9,0.4,0.9,1.6,0,2l-1.4,0.6
			c-0.3,0.1-0.5,0.3-0.6,0.6l-0.6,1.4c-0.4,0.9-1.6,0.9-2,0l-0.6-1.4c-0.1-0.3-0.3-0.5-0.6-0.6l-1.3-0.7c-0.9-0.4-0.9-1.6,0-2
			l1.4-0.6c0.3-0.1,0.5-0.3,0.6-0.6l0.6-1.4C478.6,213.5,479.9,213.5,480.2,214.4z"/>
		<path class="st5" d="M541.6,218.6l0.3,0.9c0.1,0.2,0.2,0.3,0.4,0.4l0.9,0.4c0.6,0.2,0.6,1,0,1.2l-0.9,0.3
			c-0.2,0.1-0.3,0.2-0.4,0.4l-0.4,0.9c-0.2,0.6-1,0.6-1.2,0l-0.3-0.9c-0.1-0.2-0.2-0.3-0.4-0.4l-0.9-0.4c-0.6-0.2-0.6-1,0-1.2
			l0.9-0.3c0.2-0.1,0.3-0.2,0.4-0.4l0.4-0.9C540.6,218,541.4,218,541.6,218.6z"/>
		<path class="st5" d="M481.5,144.8l0.3,0.9c0.1,0.2,0.2,0.3,0.4,0.4l0.9,0.4c0.6,0.2,0.6,1,0,1.2l-0.9,0.3
			c-0.2,0.1-0.3,0.2-0.4,0.4l-0.4,0.9c-0.2,0.6-1,0.6-1.2,0l-0.3-0.9c-0.1-0.2-0.2-0.3-0.4-0.4l-0.9-0.4c-0.6-0.2-0.6-1,0-1.2
			l0.9-0.3c0.2-0.1,0.3-0.2,0.4-0.4l0.4-0.9C480.5,144.2,481.3,144.3,481.5,144.8z"/>
	</g>
	<g>
		
			<linearGradient id="SVGID_2_" gradientUnits="userSpaceOnUse" x1="278.7737" y1="-568.241" x2="332.9743" y2="-568.241" gradientTransform="matrix(-0.7071 0.7071 0.7071 0.7071 864.0349 523.0839)">
			<stop  offset="0" style="stop-color:#D4088C"/>
			<stop  offset="4.496314e-02" style="stop-color:#CC088C"/>
			<stop  offset="0.4621" style="stop-color:#85078A"/>
			<stop  offset="0.7624" style="stop-color:#590689"/>
			<stop  offset="0.914" style="stop-color:#480689"/>
		</linearGradient>
		<circle class="st33" cx="245.9" cy="337.6" r="27.1"/>
		
			<linearGradient id="SVGID_3_" gradientUnits="userSpaceOnUse" x1="278.2565" y1="-762.3198" x2="300.7189" y2="-762.3198" gradientTransform="matrix(-1 0 0 1 570.549 908.2839)">
			<stop  offset="0" style="stop-color:#6EE8FC"/>
			<stop  offset="0.1572" style="stop-color:#6AE2FB"/>
			<stop  offset="0.3681" style="stop-color:#5ED1F7"/>
			<stop  offset="0.6094" style="stop-color:#4BB5F1"/>
			<stop  offset="0.8716" style="stop-color:#308EE8"/>
			<stop  offset="0.9624" style="stop-color:#267FE5"/>
		</linearGradient>
		<circle class="st34" cx="281" cy="146" r="11.2"/>
		
			<linearGradient id="SVGID_4_" gradientUnits="userSpaceOnUse" x1="144.9696" y1="32.6846" x2="170.6594" y2="32.6846" gradientTransform="matrix(0.8955 0.445 0.445 -0.8955 480.5127 148.2684)">
			<stop  offset="0" style="stop-color:#6EE8FC"/>
			<stop  offset="0.1572" style="stop-color:#6AE2FB"/>
			<stop  offset="0.3681" style="stop-color:#5ED1F7"/>
			<stop  offset="0.6094" style="stop-color:#4BB5F1"/>
			<stop  offset="0.8716" style="stop-color:#308EE8"/>
			<stop  offset="0.9624" style="stop-color:#267FE5"/>
		</linearGradient>
		<circle class="st35" cx="635.2" cy="188.7" r="10.3"/>
		<g>
			<circle class="st36" cx="355.2" cy="99.3" r="2.9"/>
			<circle class="st36" cx="304.8" cy="391.9" r="3.5"/>
			<circle class="st37" cx="282.8" cy="376.5" r="1.8"/>
			<circle class="st37" cx="585.6" cy="310.6" r="1.8"/>
			<g>
				<circle class="st37" cx="243.6" cy="186.1" r="2.6"/>
				<circle class="st37" cx="437.7" cy="91.5" r="2.6"/>
				<circle class="st37" cx="255.4" cy="180.4" r="1.4"/>
			</g>
			<circle class="st38" cx="502.6" cy="100.7" r="1.7"/>
		</g>
		<g>
			<g>
				<polygon class="st39" points="254.8,271.3 254.2,269 259.1,267.7 257.8,262.7 260,262.1 262,269.3 				"/>
			</g>
			<g>
				<polygon class="st39" points="250.5,279 249.8,276.8 254.8,275.4 253.4,270.5 255.6,269.8 257.6,277 				"/>
			</g>
			<g>
				<polygon class="st39" points="255.1,276.5 253.1,269.4 260.3,267.4 260.9,269.6 255.9,271 257.3,275.9 				"/>
			</g>
		</g>
		<path class="st39" d="M425.5,106.2c-3,0-5.5-2.5-5.5-5.5s2.5-5.5,5.5-5.5s5.5,2.5,5.5,5.5S428.5,106.2,425.5,106.2z M425.5,97.6
			c-1.8,0-3.2,1.4-3.2,3.2c0,1.8,1.4,3.2,3.2,3.2s3.2-1.4,3.2-3.2C428.6,99,427.2,97.6,425.5,97.6z"/>
		<path class="st39" d="M545.9,381l-6.2-6.2l6.2-6.2l6.2,6.2L545.9,381z M542.9,374.7l3,3l3-3l-3-3L542.9,374.7z"/>
		<g>
			
				<rect x="562.1" y="152.9" transform="matrix(0.707 -0.7072 0.7072 0.707 53.561 444.5531)" class="st38" width="2.3" height="9.4"/>
			
				<rect x="558.5" y="156.5" transform="matrix(0.7071 -0.7071 0.7071 0.7071 53.4802 444.4566)" class="st38" width="9.4" height="2.3"/>
		</g>
	</g>
	<g>
		<path class="st40" d="M473.8,555h3.4c-2.4,1.5-4.9,2.9-7.5,4C469.8,556.8,471.6,555,473.8,555z"/>
		<g>
			<circle class="st41" cx="473.5" cy="511.7" r="51.7"/>
			<path class="st40" d="M486.9,469.5c0,2.2-1.8,4.1-4.1,4.1h-16c-2.2,0-4.1,1.8-4.1,4.1c0,2.2,1.8,4.1,4.1,4.1h4.5
				c1.9,0,3.4,1.5,3.4,3.4v1.4c0,1.9-1.5,3.4-3.4,3.4h-15.6c-2.2,0-4.1,1.8-4.1,4.1c0,2.2,1.8,4.1,4.1,4.1h4.3
				c2.3,0,4.1,1.8,4.1,4.1c0,2.2-1.8,4.1-4.1,4.1h-16.9c-1.3,0-2.5,0.5-3.4,1.4s-1.4,2-1.4,3.4c0,1.9,1.5,3.4,3.4,3.4h17
				c2.2,0,4.1,1.8,4.1,4.1c0,2.3-1.8,4.1-4.1,4.1h-35.8c-0.7-3.4-1.1-7-1.1-10.7c0-20.3,11.7-37.8,28.7-46.3h32.3
				C485.1,465.4,486.9,467.2,486.9,469.5z"/>
			<path class="st40" d="M525.1,511.7c0,13.6-5.2,25.9-13.8,35.2h-14.4c-2.3,0-4.1-1.8-4.1-4.1c0-2.2,1.8-4.1,4.1-4.1h4.3
				c2.2,0,4.1-1.8,4.1-4.1c0-2.2-1.8-4.1-4.1-4.1h-14.9c-2.2,0-4.1-1.8-4.1-4.1c0-2.2,1.8-4.1,4.1-4.1h3.8c2.2,0,4.1-1.8,4.1-4.1
				c0-2.3-1.8-4.1-4.1-4.1h-16c-2.2,0-4.1-1.8-4.1-4.1c0-2.3,1.8-4.1,4.1-4.1h41.1c1.9,0,3.4-1.5,3.4-3.4s-1.5-3.4-3.4-3.4h-17.6
				c-1.9,0-3.4-1.5-3.4-3.4v-1.1c0-1.9,1.5-3.4,3.4-3.4h23.3C523.6,497.5,525.1,504.4,525.1,511.7z"/>
			<path class="st40" d="M446,544.4h-12.5c-2.1-2.5-3.9-5.2-5.5-8.1h18c1.9,0,3.4,1.5,3.4,3.4v1.4
				C449.4,542.9,447.9,544.4,446,544.4z"/>
			<path class="st40" d="M473.6,555.3c0,2.2-1.8,4.1-4.1,4.1h-16c-4.9-2-9.3-4.8-13.3-8.1h29.3C471.8,551.2,473.6,553,473.6,555.3z"
				/>
		</g>
	</g>
	<g>
		<g>
			<path class="st3" d="M426.5,268.4c1.9,0,1.9-3,0-3C424.5,265.4,424.5,268.4,426.5,268.4L426.5,268.4z"/>
		</g>
	</g>
	<g>
		<g>
			<path class="st3" d="M767.4,183.8c1.9,0,1.9-3,0-3S765.5,183.8,767.4,183.8L767.4,183.8z"/>
		</g>
	</g>
	<g>
		<g>
			<path class="st3" d="M604.6,122.3c1.9,0,1.9-3,0-3S602.7,122.3,604.6,122.3L604.6,122.3z"/>
		</g>
	</g>
	<g>
		<g>
			<path class="st3" d="M609.7,40.3c1.9,0,1.9-3,0-3S607.8,40.3,609.7,40.3L609.7,40.3z"/>
		</g>
	</g>
	<g>
		<g>
			<path class="st3" d="M284.2,163.3c1.9,0,1.9-3,0-3S282.3,163.3,284.2,163.3L284.2,163.3z"/>
		</g>
	</g>
	<g>
		<g>
			<path class="st3" d="M262.4,81.3c1.9,0,1.9-3,0-3C260.5,78.3,260.5,81.3,262.4,81.3L262.4,81.3z"/>
		</g>
	</g>
	<g>
		<g>
			<path class="st3" d="M441.8,74.9c1.9,0,1.9-3,0-3S439.9,74.9,441.8,74.9L441.8,74.9z"/>
		</g>
	</g>
	<g>
		<g>
			<path class="st3" d="M491.8,341.5c1.9,0,1.9-3,0-3S489.9,341.5,491.8,341.5L491.8,341.5z"/>
		</g>
	</g>
	<g>
		<g>
			<path class="st3" d="M646.9,269.7c1.9,0,1.9-3,0-3S645,269.7,646.9,269.7L646.9,269.7z"/>
		</g>
	</g>
	<g>
		<g>
			<path class="st3" d="M734.1,306.9c1.9,0,1.9-3,0-3C732.1,303.9,732.1,306.9,734.1,306.9L734.1,306.9z"/>
		</g>
	</g>
	<g>
		<g>
			<path class="st3" d="M802,237.7c1.9,0,1.9-3,0-3C800.1,234.7,800.1,237.7,802,237.7L802,237.7z"/>
		</g>
	</g>
	<g>
		<g>
			<path class="st3" d="M698.4,369.9c1.9,0,1.9-3,0-3C696.4,366.9,696.4,369.9,698.4,369.9L698.4,369.9z"/>
		</g>
	</g>
	<g>
		<g>
			<path class="st3" d="M718.4,474.9c1.9,0,1.9-3,0-3S716.5,474.9,718.4,474.9L718.4,474.9z"/>
		</g>
	</g>
	<g>
		<g>
			<path class="st3" d="M645.6,468.4c1.9,0,1.9-3,0-3S643.7,468.4,645.6,468.4L645.6,468.4z"/>
		</g>
	</g>
	<g>
		<g>
			<path class="st3" d="M412.4,388.9c1.9,0,1.9-3,0-3C410.4,385.9,410.4,388.9,412.4,388.9L412.4,388.9z"/>
		</g>
	</g>
	<g>
		<g>
			<path class="st3" d="M685.4,555.5c1.9,0,1.9-3,0-3C683.4,552.5,683.4,555.5,685.4,555.5L685.4,555.5z"/>
		</g>
	</g>
	<g>
		<g>
			<path class="st3" d="M799.4,550.4c1.9,0,1.9-3,0-3S797.5,550.4,799.4,550.4L799.4,550.4z"/>
		</g>
	</g>
	<g>
		<g>
			<path class="st3" d="M515.5,500.4c1.9,0,1.9-3,0-3C513.5,497.4,513.5,500.4,515.5,500.4L515.5,500.4z"/>
		</g>
	</g>
	<g>
		<g>
			<path class="st3" d="M466.7,274.1c1.9,0,1.9-3,0-3S464.8,274.1,466.7,274.1L466.7,274.1z"/>
		</g>
	</g>
	<g>
		<g>
			<path class="st3" d="M263.7,295.3c1.9,0,1.9-3,0-3C261.7,292.3,261.7,295.3,263.7,295.3L263.7,295.3z"/>
		</g>
	</g>
	<g>
		<g>
			<path class="st3" d="M242.9,57.7c1.9,0,1.9-3,0-3C240.9,54.7,240.9,57.7,242.9,57.7L242.9,57.7z"/>
		</g>
	</g>
	<g>
		<g>
			<path class="st3" d="M207.9,65.1c1.9,0,1.9-3,0-3C206,62.1,206,65.1,207.9,65.1L207.9,65.1z"/>
		</g>
	</g>
	<g>
		<g>
			<path class="st3" d="M129.1,54.4c1.9,0,1.9-3,0-3C127.2,51.4,127.2,54.4,129.1,54.4L129.1,54.4z"/>
		</g>
	</g>
	<g>
		<g>
			<path class="st3" d="M188.1,24.9c1.9,0,1.9-3,0-3C186.1,21.9,186.1,24.9,188.1,24.9L188.1,24.9z"/>
		</g>
	</g>
	<g>
		<g>
			<path class="st3" d="M374.3,169.3c1.9,0,1.9-3,0-3C372.3,166.3,372.3,169.3,374.3,169.3L374.3,169.3z"/>
		</g>
	</g>
	<g>
		<g>
			<path class="st3" d="M317.5,239.5c1,0,1-1.5,0-1.5S316.5,239.5,317.5,239.5L317.5,239.5z"/>
		</g>
	</g>
	<g>
		<g>
			<path class="st3" d="M403.4,158.7c1,0,1-1.5,0-1.5S402.4,158.7,403.4,158.7L403.4,158.7z"/>
		</g>
	</g>
	<g>
		<g>
			<path class="st3" d="M500.8,108.7c1,0,1-1.5,0-1.5C499.8,107.2,499.8,108.7,500.8,108.7L500.8,108.7z"/>
		</g>
	</g>
	<g>
		<g>
			<path class="st3" d="M649.5,124.1c1,0,1-1.5,0-1.5S648.5,124.1,649.5,124.1L649.5,124.1z"/>
		</g>
	</g>
	<g>
		<g>
			<path class="st3" d="M664.9,247.2c1,0,1-1.5,0-1.5S663.9,247.2,664.9,247.2L664.9,247.2z"/>
		</g>
	</g>
	<g>
		<g>
			<path class="st3" d="M674.8,431.2c1,0,1-1.5,0-1.5C673.9,429.7,673.9,431.2,674.8,431.2L674.8,431.2z"/>
		</g>
	</g>
	<g>
		<g>
			<path class="st3" d="M543.1,480.4c1,0,1-1.5,0-1.5S542.1,480.4,543.1,480.4L543.1,480.4z"/>
		</g>
	</g>
	<g>
		<g>
			<path class="st3" d="M462.8,383.8c1,0,1-1.5,0-1.5S461.8,383.8,462.8,383.8L462.8,383.8z"/>
		</g>
	</g>
	<g>
		<g>
			<path class="st3" d="M646.9,398.4c1,0,1-1.5,0-1.5S645.9,398.4,646.9,398.4L646.9,398.4z"/>
		</g>
	</g>
	<g>
		<g>
			<path class="st3" d="M564.9,293.3c1,0,1-1.5,0-1.5S563.9,293.3,564.9,293.3L564.9,293.3z"/>
		</g>
	</g>
	<g>
		<g>
			<path class="st3" d="M461.1,180.5c1,0,1-1.5,0-1.5S460.1,180.5,461.1,180.5L461.1,180.5z"/>
		</g>
	</g>
	<g>
		<g>
			<path class="st3" d="M745.6,115.2c1,0,1-1.5,0-1.5S744.6,115.2,745.6,115.2L745.6,115.2z"/>
		</g>
	</g>
	<g>
		<g>
			<path class="st3" d="M766.1,74.1c1,0,1-1.5,0-1.5S765.1,74.1,766.1,74.1L766.1,74.1z"/>
		</g>
	</g>
	<g>
		<g>
			<path class="st3" d="M817.4,101.1c1,0,1-1.5,0-1.5S816.4,101.1,817.4,101.1L817.4,101.1z"/>
		</g>
	</g>
	<g>
		<g>
			<path class="st3" d="M786.6,101.1c1,0,1-1.5,0-1.5C785.7,99.6,785.7,101.1,786.6,101.1L786.6,101.1z"/>
		</g>
	</g>
	<g>
		<g>
			<path class="st3" d="M782.8,176.7c1,0,1-1.5,0-1.5S781.8,176.7,782.8,176.7L782.8,176.7z"/>
		</g>
	</g>
	<g>
		<g>
			<path class="st3" d="M561,158.7c1,0,1-1.5,0-1.5C560.1,157.2,560.1,158.7,561,158.7L561,158.7z"/>
		</g>
	</g>
	<g>
		<g>
			<path class="st3" d="M640.5,34.4c1,0,1-1.5,0-1.5S639.5,34.4,640.5,34.4L640.5,34.4z"/>
		</g>
	</g>
	<g>
		<g>
			<path class="st3" d="M435.4,31.8c1,0,1-1.5,0-1.5C434.5,30.3,434.5,31.8,435.4,31.8L435.4,31.8z"/>
		</g>
	</g>
	<g>
		<g>
			<path class="st3" d="M379,208.7c1,0,1-1.5,0-1.5C378.1,207.2,378.1,208.7,379,208.7L379,208.7z"/>
		</g>
	</g>
	<g>
		<g>
			<path class="st3" d="M288.6,253.9c1,0,1-1.5,0-1.5C287.7,252.4,287.7,253.9,288.6,253.9L288.6,253.9z"/>
		</g>
	</g>
	<g>
		<g>
			<path class="st3" d="M241.5,29.4c1,0,1-1.5,0-1.5C240.6,27.9,240.6,29.4,241.5,29.4L241.5,29.4z"/>
		</g>
	</g>
	<g>
		<g>
			<path class="st3" d="M169,61.1c1,0,1-1.5,0-1.5C168.1,59.6,168.1,61.1,169,61.1L169,61.1z"/>
		</g>
	</g>
	<g>
		<g>
			<path class="st3" d="M295.7,35.7c1,0,1-1.5,0-1.5C294.8,34.2,294.8,35.7,295.7,35.7L295.7,35.7z"/>
		</g>
	</g>
	<g>
		<g>
			<path class="st3" d="M379,12.6c1,0,1-1.5,0-1.5C378.1,11.1,378.1,12.6,379,12.6L379,12.6z"/>
		</g>
	</g>
	<g>
		<g>
			<path class="st3" d="M420,304.8c1,0,1-1.5,0-1.5C419.1,303.3,419.1,304.8,420,304.8L420,304.8z"/>
		</g>
	</g>
	<g>
		<g>
			<path class="st3" d="M368.8,333c1,0,1-1.5,0-1.5S367.8,333,368.8,333L368.8,333z"/>
		</g>
	</g>
	<g>
		<g>
			<path class="st3" d="M515.4,406.9c1,0,1-1.5,0-1.5S514.4,406.9,515.4,406.9L515.4,406.9z"/>
		</g>
	</g>
	<g>
		<g>
			<path class="st3" d="M311.1,357.4c1,0,1-1.5,0-1.5S310.1,357.4,311.1,357.4L311.1,357.4z"/>
		</g>
	</g>
	<g>
		<g>
			<path class="st3" d="M580.3,234.4c1,0,1-1.5,0-1.5S579.3,234.4,580.3,234.4L580.3,234.4z"/>
		</g>
	</g>
	<g>
		<g>
			<path class="st3" d="M507.2,252.3c1,0,1-1.5,0-1.5S506.2,252.3,507.2,252.3L507.2,252.3z"/>
		</g>
	</g>
	<g>
		<g>
			<path class="st3" d="M686.6,158.7c1,0,1-1.5,0-1.5C685.7,157.2,685.7,158.7,686.6,158.7L686.6,158.7z"/>
		</g>
	</g>
	<g>
		<g>
			<path class="st3" d="M728.9,512.5c1,0,1-1.5,0-1.5C728,511,728,512.5,728.9,512.5L728.9,512.5z"/>
		</g>
	</g>
	<g>
		<g>
			<path class="st3" d="M558.5,394.6c1,0,1-1.5,0-1.5S557.5,394.6,558.5,394.6L558.5,394.6z"/>
		</g>
	</g>
	<g>
		<g>
			<path class="st3" d="M273.7,205c1,0,1-1.5,0-1.5C272.8,203.5,272.8,205,273.7,205L273.7,205z"/>
		</g>
	</g>
	<g>
		<g>
			<path class="st3" d="M397.3,242.9c1,0,1-1.5,0-1.5C396.4,241.4,396.4,242.9,397.3,242.9L397.3,242.9z"/>
		</g>
	</g>
	<g>
		<g>
			<path class="st3" d="M645.6,543.2c1,0,1-1.5,0-1.5C644.7,541.7,644.7,543.2,645.6,543.2L645.6,543.2z"/>
		</g>
	</g>
	<g>
		<g>
			<path class="st3" d="M694.3,321.5c1,0,1-1.5,0-1.5C693.4,320,693.4,321.5,694.3,321.5L694.3,321.5z"/>
		</g>
	</g>
	<g>
		<g>
			<path class="st3" d="M49.6,58.2c1.9,0,1.9-3,0-3S47.7,58.2,49.6,58.2L49.6,58.2z"/>
		</g>
	</g>
	<g>
		<g>
			<path class="st3" d="M62.4,154.4c1.9,0,1.9-3,0-3C60.5,151.4,60.5,154.4,62.4,154.4L62.4,154.4z"/>
		</g>
	</g>
	<g>
		<g>
			<path class="st3" d="M91.9,100.5c1.9,0,1.9-3,0-3C90,97.5,90,100.5,91.9,100.5L91.9,100.5z"/>
		</g>
	</g>
	<g>
		<g>
			<path class="st3" d="M419.1,344.9c1.9,0,1.9-3,0-3S417.2,344.9,419.1,344.9L419.1,344.9z"/>
		</g>
	</g>
	<g>
		<g>
			<path class="st3" d="M553.6,216.6c1.9,0,1.9-3,0-3S551.7,216.6,553.6,216.6L553.6,216.6z"/>
		</g>
	</g>
	<g>
		<g>
			<path class="st3" d="M567.2,431.9c1.9,0,1.9-3,0-3S565.3,431.9,567.2,431.9L567.2,431.9z"/>
		</g>
	</g>
	<g>
		<g>
			<path class="st3" d="M554.6,541.4c1.9,0,1.9-3,0-3S552.7,541.4,554.6,541.4L554.6,541.4z"/>
		</g>
	</g>
	<g>
		<g>
			<path class="st3" d="M366.6,292.9c1,0,1-1.5,0-1.5S365.6,292.9,366.6,292.9L366.6,292.9z"/>
		</g>
	</g>
	<g>
		<g>
			<path class="st3" d="M302.1,459.9c1,0,1-1.5,0-1.5C301.2,458.4,301.2,459.9,302.1,459.9L302.1,459.9z"/>
		</g>
	</g>
	<g>
		<g>
			<path class="st3" d="M507.2,561.2c1,0,1-1.5,0-1.5S506.2,561.2,507.2,561.2L507.2,561.2z"/>
		</g>
	</g>
	<g>
		<g>
			<path class="st3" d="M499.9,485.7c1,0,1-1.5,0-1.5S498.9,485.7,499.9,485.7L499.9,485.7z"/>
		</g>
	</g>
	<g>
		<g>
			<path class="st3" d="M501,242.8c1,0,1-1.5,0-1.5C500.1,241.3,500.1,242.8,501,242.8L501,242.8z"/>
		</g>
	</g>
	<g>
		<g>
			<path class="st3" d="M658.7,205.6c1,0,1-1.5,0-1.5S657.7,205.6,658.7,205.6L658.7,205.6z"/>
		</g>
	</g>
	<g>
		<g>
			<g>
				<g>
					<circle class="st42" cx="451.3" cy="301.4" r="35.6"/>
					<g>
						<path class="st43" d="M469.4,270.6l-0.1,0.1l-53.4,34.5c-0.1-1.2-0.2-2.5-0.2-3.8c0-2.6,0.3-5.1,0.8-7.6l0,0l42.1-27.2
							c1.4,0.3,2.8,0.6,4.1,1.1h0.1C465.1,268.5,467.3,269.4,469.4,270.6z"/>
						<path class="st43" d="M481.4,320.3c-2.5,3.9-5.7,7.3-9.4,10c0,0-0.1,0-0.1,0.1l-3.1,2l0,0c-3.9,2.2-8.2,3.7-12.8,4.3
							L481.4,320.3z"/>
						<path class="st44" d="M452.3,265.9l-34,21.9c0.9-2.1,1.9-4.1,3.2-6l0,0l24.1-15.6c1.9-0.3,3.7-0.4,5.7-0.4
							C451.6,265.9,452,265.9,452.3,265.9z"/>
						<path class="st43" d="M486.9,301v0.3c0,3.1-0.4,6.2-1.2,9l-40.3,26c-3.2-0.5-6.2-1.5-9.1-2.8L486.9,301z"/>
						<path class="st44" d="M445,300.4c0,1.5-0.7,3-2.1,3.8l-22.6,14.6c-1.5-2.7-2.7-5.7-3.5-8.7l20.9-13.5c2.2-1.4,5.1-0.8,6.5,1.3
							C444.7,298.7,445,299.6,445,300.4z"/>
						<path class="st44" d="M480,280.3l-13,8.4c-2.2,1.4-4.6,10.6-6.1,8.5c-0.5-0.8-1.2-11.5-1.2-12.3c0-1.5,0.7-3,2.1-3.8l11.7-7.5
							C475.9,275.5,478.1,277.8,480,280.3z"/>
						<path class="st44" d="M486.2,294.4l-39.9,25.8c-2.2,1.4-5.1,0.8-6.5-1.3c-0.5-0.8-0.8-1.6-0.8-2.5c0-1.5,0.7-3,2.1-3.9
							l41.9-27.1C484.5,288.2,485.5,291.2,486.2,294.4z"/>
					</g>
					<path class="st45" d="M451.3,265.8c-1.5,0-3,0.1-4.4,0.3c13.2,1.9,23.4,13.3,23.4,27c0,15.1-12.2,27.3-27.3,27.3
						c-13.8,0-25.1-10.2-27-23.4c-0.2,1.4-0.3,2.9-0.3,4.4c0,19.7,15.9,35.6,35.6,35.6s35.6-15.9,35.6-35.6
						C486.9,281.7,470.9,265.8,451.3,265.8z"/>
				</g>
			</g>
			<path class="st5" d="M486.9,325.3l0.8,2c0.2,0.4,0.5,0.7,0.8,0.8l2,0.8c1.3,0.5,1.3,2.3,0,2.8l-2,0.8c-0.4,0.2-0.7,0.5-0.8,0.8
				l-0.8,2c-0.5,1.3-2.3,1.3-2.8,0l-0.8-2c-0.2-0.4-0.5-0.7-0.8-0.8l-2-0.8c-1.3-0.5-1.3-2.3,0-2.8l2-0.8c0.4-0.2,0.7-0.5,0.8-0.8
				l0.8-2C484.6,324,486.4,324,486.9,325.3z"/>
			<path class="st5" d="M413,260l0.6,1.4c0.1,0.3,0.3,0.5,0.6,0.6l1.4,0.6c0.9,0.4,0.9,1.6,0,2l-1.4,0.6c-0.3,0.1-0.5,0.3-0.6,0.6
				l-0.6,1.4c-0.4,0.9-1.6,0.9-2,0l-0.6-1.4c-0.1-0.3-0.3-0.5-0.6-0.6l-1.4-0.6c-0.9-0.4-0.9-1.6,0-2l1.4-0.6
				c0.3-0.1,0.5-0.3,0.6-0.6l0.6-1.4C411.4,259.1,412.7,259.1,413,260z"/>
			<path class="st5" d="M415.3,334.6l0.3,0.9c0.1,0.2,0.2,0.3,0.4,0.4l0.9,0.3c0.6,0.2,0.6,1,0,1.2l-0.9,0.3
				c-0.2,0.1-0.3,0.2-0.4,0.4l-0.3,0.9c-0.2,0.6-1,0.6-1.2,0l-0.3-0.9c-0.1-0.2-0.2-0.3-0.4-0.4l-0.9-0.3c-0.6-0.2-0.6-1,0-1.2
				l0.9-0.3c0.2-0.1,0.3-0.2,0.4-0.4l0.3-0.9C414.3,334,415.1,334,415.3,334.6z"/>
		</g>
	</g>
	<radialGradient id="SVGID_5_" cx="885.4056" cy="592.7075" r="0" gradientUnits="userSpaceOnUse">
		<stop  offset="0" style="stop-color:#22215B"/>
		<stop  offset="0.3261" style="stop-color:#1E1E55"/>
		<stop  offset="0.7509" style="stop-color:#141645"/>
		<stop  offset="1" style="stop-color:#0C0F38"/>
	</radialGradient>
	<path class="st46" d="M885.4,592.7"/>
</g>
<g id="Layer_2">
</g>
</svg>
