<?xml version="1.0" encoding="utf-8"?>
<!-- Generator: Adobe Illustrator 21.0.2, SVG Export Plug-In . SVG Version: 6.00 Build 0)  -->
<svg version="1.1" xmlns="http://www.w3.org/2000/svg" xmlns:xlink="http://www.w3.org/1999/xlink" x="0px" y="0px"
	 viewBox="0 0 1366 768" style="enable-background:new 0 0 1366 768;" xml:space="preserve">
<style type="text/css">
	.st0{fill:url(#SVGID_1_);}
	.st1{fill:#0091C8;}
	.st2{fill:#2BE279;}
	.st3{fill:#FFFFFF;}
	.st4{opacity:0.23;fill:#0073AA;}
	.st5{fill:#182B5B;}
	.st6{fill:#B4D7DC;}
	.st7{fill:#9BB9C3;}
	.st8{fill:#A5C8CD;}
	.st9{fill:#FF3C3C;}
	.st10{fill:#BE1423;}
	.st11{opacity:0.49;fill:#BC3132;}
	.st12{fill:#D8A799;}
	.st13{fill:#E3D2C8;}
	.st14{opacity:0.26;fill:#D8A799;}
	.st15{display:none;fill:#182B5B;}
	.st16{fill:#EF9318;}
	.st17{fill:#F2B816;}
	.st18{opacity:0.4;fill:#EF9318;}
	.st19{fill:#E48332;}
	.st20{fill:#D56730;}
	.st21{fill:#F6964F;}
	.st22{opacity:0.32;fill:#CC6843;}
	.st23{fill:#ADC2D6;}
	.st24{fill:#8799AA;}
	.st25{fill:#E79968;}
	.st26{fill:#A7473B;}
	.st27{fill:#FFBF8F;}
	.st28{fill:#E5D371;}
	.st29{fill:#B97850;}
	.st30{opacity:0.21;fill:#A56941;}
	.st31{fill:#97F4EC;}
	.st32{fill:#54B5B7;}
	.st33{fill:#98CBCD;}
	.st34{opacity:0.8;fill:#D4088C;}
	.st35{fill:#6EE8FC;}
	.st36{fill:#D4088C;}
	.st37{fill:#6EE1F8;}
	.st38{fill:#FFD23C;}
	.st39{fill:#F4B427;}
	.st40{fill:#87A0AF;}
	.st41{fill:#738C96;}
	.st42{opacity:0.64;fill:#87A0AF;}
	.st43{fill:#1E87DC;}
	.st44{fill:#283D77;}
	.st45{fill:#0073AA;}
	.st46{opacity:0.44;fill:#0073AA;}
</style>
<g id="Layer_1">
	
		<radialGradient id="SVGID_1_" cx="576.9988" cy="1869.7297" r="376.2386" gradientTransform="matrix(2.6118 0 0 1.9019 -829.2244 -3173.2998)" gradientUnits="userSpaceOnUse">
		<stop  offset="0" style="stop-color:#22215B"/>
		<stop  offset="0.3261" style="stop-color:#1E1E55"/>
		<stop  offset="0.7509" style="stop-color:#141645"/>
		<stop  offset="1" style="stop-color:#0C0F38"/>
	</radialGradient>
	<rect class="st0" width="1366" height="768"/>
	<g>
		<g>
			<g>
				<circle class="st1" cx="472.9" cy="533.4" r="36.6"/>
				<path class="st2" d="M475.9,510.8c0,2.8-2.2,5-5,5h-9.5c-1.3,0-2.4,0.5-3.2,1.3c-0.8,0.8-1.3,2-1.3,3.2c0,2.5,2,4.6,4.6,4.6h1.2
					c1.4,0,2.7,0.6,3.6,1.5c0.9,0.9,1.5,2.2,1.5,3.6c0,2.8-2.2,5-5,5h-26.3c0-0.5,0-1.1,0-1.6c0-11,4.9-20.9,12.6-27.6h22
					C473.7,505.8,475.9,508,475.9,510.8z"/>
				<path class="st2" d="M509.5,535c-0.7,15.2-10.6,28-24.3,32.9h-8c-1.1,0-2.2-0.5-2.9-1.2c-0.7-0.7-1.2-1.8-1.2-2.9
					s0.5-2.2,1.2-2.9c0.7-0.7,1.8-1.2,2.9-1.2c0.6,0,1.2-0.3,1.6-0.7c0.4-0.4,0.7-1,0.7-1.6c0-1.3-1-2.3-2.3-2.3h-10.1
					c-1.1,0-2.2-0.5-2.9-1.2c-0.7-0.7-1.2-1.8-1.2-2.9c0-2.3,1.8-4.1,4.1-4.1h9.6c0.8,0,1.4-0.3,1.9-0.8c0.5-0.5,0.8-1.2,0.8-1.9
					c0-1.5-1.2-2.7-2.7-2.7h-2.3c-1.8,0-3.2-1.4-3.2-3.2s1.4-3.2,3.2-3.2H509.5z"/>
				<path class="st3" d="M507.5,521.3h-28c-1.5,0-2.7-1.2-2.7-2.7c0-0.8,0.3-1.4,0.8-1.9c0.5-0.5,1.2-0.8,1.9-0.8h25.5
					C506.1,517.6,506.9,519.4,507.5,521.3z"/>
				<path class="st3" d="M468.6,543.3c0,0.5-0.2,1-0.5,1.3c-0.3,0.3-0.8,0.5-1.3,0.5h-28.6c-0.4-1.2-0.7-2.4-1-3.7h29.6
					C467.8,541.4,468.6,542.3,468.6,543.3z"/>
				<path class="st3" d="M505.8,549.7c-0.6,1.3-1.3,2.5-2.1,3.7h-26c-1,0-1.8-0.8-1.8-1.8c0-0.5,0.2-1,0.5-1.3
					c0.3-0.3,0.8-0.5,1.3-0.5H505.8z"/>
				<path class="st3" d="M487.8,512.2h-38.4c-1,0-1.8-0.8-1.8-1.8l0,0c0-1,0.8-1.8,1.8-1.8h38.4c1,0,1.8,0.8,1.8,1.8l0,0
					C489.6,511.4,488.8,512.2,487.8,512.2z"/>
				<path class="st4" d="M472.9,496.8c-1.3,0-2.6,0.1-3.9,0.2c14.5,1.7,25.7,14,25.7,29c0,16.1-13.1,29.2-29.2,29.2
					c-14.9,0-27.3-11.2-29-25.7c-0.1,1.3-0.2,2.6-0.2,3.9c0,20.2,16.4,36.6,36.6,36.6c20.2,0,36.6-16.4,36.6-36.6
					C509.6,513.2,493.2,496.8,472.9,496.8z"/>
			</g>
		</g>
		<path class="st5" d="M504.6,564.5l0.7,1.7c0.1,0.3,0.4,0.6,0.7,0.7l1.7,0.7c1.1,0.4,1.1,2,0,2.4l-1.7,0.7
			c-0.3,0.1-0.6,0.4-0.7,0.7l-0.7,1.7c-0.4,1.1-2,1.1-2.4,0l-0.7-1.7c-0.1-0.3-0.4-0.6-0.7-0.7l-1.7-0.7c-1.1-0.4-1.1-2,0-2.4
			l1.7-0.7c0.3-0.1,0.6-0.4,0.7-0.7l0.7-1.7C502.6,563.4,504.1,563.4,504.6,564.5z"/>
		<path class="st5" d="M440.5,490.6l0.5,1.2c0.1,0.2,0.3,0.4,0.5,0.5l1.2,0.5c0.8,0.3,0.8,1.4,0,1.7l-1.2,0.5
			c-0.2,0.1-0.4,0.3-0.5,0.5l-0.5,1.2c-0.3,0.8-1.4,0.8-1.7,0l-0.5-1.2c-0.1-0.2-0.3-0.4-0.5-0.5l-1.2-0.5c-0.8-0.3-0.8-1.4,0-1.7
			l1.2-0.5c0.2-0.1,0.4-0.3,0.5-0.5l0.5-1.2C439.1,489.8,440.2,489.8,440.5,490.6z"/>
		<path class="st5" d="M442.5,572.6l0.3,0.8c0.1,0.1,0.2,0.3,0.3,0.3l0.8,0.3c0.5,0.2,0.5,0.9,0,1.1l-0.8,0.3
			c-0.1,0.1-0.3,0.2-0.3,0.3l-0.3,0.8c-0.2,0.5-0.9,0.5-1.1,0l-0.3-0.8c-0.1-0.1-0.2-0.3-0.3-0.3l-0.8-0.3c-0.5-0.2-0.5-0.9,0-1.1
			l0.8-0.3c0.1-0.1,0.3-0.2,0.3-0.3l0.3-0.8C441.6,572.1,442.3,572.1,442.5,572.6z"/>
		<path class="st5" d="M505.5,494.9l0.3,0.8c0.1,0.1,0.2,0.3,0.3,0.3l0.8,0.3c0.5,0.2,0.5,0.9,0,1.1l-0.8,0.3
			c-0.1,0.1-0.3,0.2-0.3,0.3l-0.3,0.8c-0.2,0.5-0.9,0.5-1.1,0l-0.3-0.8c-0.1-0.1-0.2-0.3-0.3-0.3l-0.8-0.3c-0.5-0.2-0.5-0.9,0-1.1
			l0.8-0.3c0.1-0.1,0.3-0.2,0.3-0.3l0.3-0.8C504.7,494.4,505.4,494.4,505.5,494.9z"/>
	</g>
	<g>
		<g>
			<g>
				<circle class="st6" cx="506.1" cy="495.5" r="15.4"/>
				<path class="st7" d="M506.1,480c-0.6,0-1.1,0-1.7,0.1c6.1,0.7,10.8,5.9,10.8,12.2c0,6.8-5.5,12.3-12.3,12.3
					c-6.3,0-11.5-4.7-12.2-10.8c-0.1,0.5-0.1,1.1-0.1,1.7c0,8.5,6.9,15.4,15.4,15.4s15.4-6.9,15.4-15.4
					C521.5,486.9,514.6,480,506.1,480z"/>
				<circle class="st7" cx="498.7" cy="489.7" r="2.2"/>
				<circle class="st7" cx="507.7" cy="495.1" r="2.2"/>
				<circle class="st7" cx="513" cy="487.2" r="1.8"/>
				<circle class="st7" cx="496.4" cy="497" r="0.9"/>
				<circle class="st8" cx="510.3" cy="506" r="0.9"/>
				<circle class="st8" cx="498" cy="506.1" r="0.9"/>
				<circle class="st8" cx="516" cy="500.3" r="2.1"/>
				<circle class="st7" cx="502.3" cy="500" r="1.1"/>
				<circle class="st7" cx="504.5" cy="486.3" r="0.9"/>
			</g>
		</g>
		<path class="st5" d="M523.9,475.6l0.3,0.8c0.1,0.2,0.2,0.3,0.3,0.3l0.8,0.3c0.5,0.2,0.5,0.9,0,1.1l-0.8,0.3
			c-0.2,0.1-0.3,0.2-0.3,0.3l-0.3,0.8c-0.2,0.5-0.9,0.5-1.1,0l-0.3-0.8c-0.1-0.2-0.2-0.3-0.3-0.3l-0.8-0.3c-0.5-0.2-0.5-0.9,0-1.1
			l0.8-0.3c0.2-0.1,0.3-0.2,0.3-0.3l0.3-0.8C523,475,523.7,475,523.9,475.6z"/>
		<path class="st5" d="M489.3,471l0.3,0.8c0.1,0.2,0.2,0.3,0.3,0.3l0.8,0.3c0.5,0.2,0.5,0.9,0,1.1l-0.8,0.3
			c-0.2,0.1-0.3,0.2-0.3,0.3l-0.3,0.8c-0.2,0.5-0.9,0.5-1.1,0l-0.3-0.8c-0.1-0.2-0.2-0.3-0.3-0.3l-0.8-0.3c-0.5-0.2-0.5-0.9,0-1.1
			l0.8-0.3c0.2-0.1,0.3-0.2,0.3-0.3l0.3-0.8C488.4,470.5,489.1,470.5,489.3,471z"/>
		<path class="st5" d="M528.2,507.5l0.3,0.8c0.1,0.2,0.2,0.3,0.3,0.3l0.8,0.3c0.5,0.2,0.5,0.9,0,1.1l-0.8,0.3
			c-0.2,0.1-0.3,0.2-0.3,0.3l-0.3,0.8c-0.2,0.5-0.9,0.5-1.1,0l-0.3-0.8c-0.1-0.2-0.2-0.3-0.3-0.3l-0.8-0.3c-0.5-0.2-0.5-0.9,0-1.1
			l0.8-0.3c0.2-0.1,0.3-0.2,0.3-0.3l0.3-0.8C527.2,507,527.9,507,528.2,507.5z"/>
		<path class="st5" d="M482.5,506.3l0.3,0.6c0,0.1,0.1,0.2,0.3,0.3l0.6,0.3c0.4,0.2,0.4,0.7,0,0.9l-0.6,0.3c-0.1,0-0.2,0.1-0.3,0.3
			l-0.3,0.6c-0.2,0.4-0.7,0.4-0.9,0l-0.3-0.6c0-0.1-0.1-0.2-0.3-0.3l-0.6-0.3c-0.4-0.2-0.4-0.7,0-0.9l0.6-0.3c0.1,0,0.2-0.1,0.3-0.3
			l0.3-0.6C481.8,505.9,482.3,505.9,482.5,506.3z"/>
	</g>
	<g>
		<g>
			<g>
				<circle class="st9" cx="592.1" cy="241.5" r="25.9"/>
				<path class="st10" d="M579,250.3h37.5c-3.6,10-13.2,17.1-24.4,17.1c-1.4,0-2.7-0.1-4-0.3c0.7-0.7,1.7-1.1,2.7-1.1h3.7
					c2.2,0,3.9-1.8,3.9-3.9c0-2.2-1.8-3.9-3.9-3.9H579c-2.2,0-3.9-1.8-3.9-3.9C575.1,252.1,576.9,250.3,579,250.3z"/>
				<path class="st10" d="M618,241.5c0,0.7,0,1.5-0.1,2.2h-16.2c-1.8,0-3.3-1.5-3.3-3.3v-1.3c0-1.8,1.5-3.3,3.3-3.3h15.7
					C617.8,237.7,618,239.6,618,241.5z"/>
				<path class="st10" d="M591.4,239.3c0,2.2-1.8,3.9-3.9,3.9h-21.2c-0.1-0.6-0.1-1.2-0.1-1.8c0-3.2,0.6-6.3,1.7-9.1
					c0.1,1.7,1.6,3,3.3,3h16.4C589.7,235.4,591.4,237.2,591.4,239.3z"/>
				<path class="st10" d="M601.9,223.6c0,2.2-1.8,3.9-3.9,3.9h-25.5c-1,0-1.9,0.3-2.6,0.8c2.7-4.6,6.7-8.2,11.6-10.4
					c0.7,1,1.9,1.7,3.3,1.7H598C600.1,219.6,601.9,221.4,601.9,223.6z"/>
				<path class="st11" d="M592.1,215.6c-0.9,0-1.9,0.1-2.8,0.2c10.2,1.2,18.2,9.9,18.2,20.5c0,11.4-9.3,20.7-20.7,20.7
					c-10.6,0-19.3-7.9-20.5-18.2c-0.1,0.9-0.2,1.8-0.2,2.8c0,14.3,11.6,25.9,25.9,25.9s25.9-11.6,25.9-25.9
					C618,227.2,606.4,215.6,592.1,215.6z"/>
			</g>
		</g>
		<path class="st5" d="M621.5,265l0.5,1.2c0.1,0.2,0.3,0.4,0.5,0.5l1.2,0.5c0.8,0.3,0.8,1.4,0,1.7l-1.2,0.5
			c-0.2,0.1-0.4,0.3-0.5,0.5l-0.5,1.2c-0.3,0.8-1.4,0.8-1.7,0l-0.5-1.2c-0.1-0.2-0.3-0.4-0.5-0.5l-1.2-0.5c-0.8-0.3-0.8-1.4,0-1.7
			l1.2-0.5c0.2-0.1,0.4-0.3,0.5-0.5l0.5-1.2C620.1,264.2,621.2,264.2,621.5,265z"/>
		<path class="st5" d="M564.8,209l0.7,1.7c0.1,0.3,0.4,0.6,0.7,0.7l1.7,0.7c1.1,0.4,1.1,2,0,2.4l-1.7,0.7c-0.3,0.1-0.6,0.4-0.7,0.7
			l-0.7,1.7c-0.4,1.1-2,1.1-2.4,0l-0.7-1.7c-0.1-0.3-0.4-0.6-0.7-0.7l-1.7-0.7c-1.1-0.4-1.1-2,0-2.4l1.7-0.7
			c0.3-0.1,0.6-0.4,0.7-0.7l0.7-1.7C562.9,207.9,564.4,207.9,564.8,209z"/>
		<path class="st5" d="M616.2,206.5l0.3,0.8c0.1,0.1,0.2,0.3,0.3,0.3l0.8,0.3c0.5,0.2,0.5,0.9,0,1.1l-0.8,0.3
			c-0.1,0.1-0.3,0.2-0.3,0.3l-0.3,0.8c-0.2,0.5-0.9,0.5-1.1,0l-0.3-0.8c-0.1-0.1-0.2-0.3-0.3-0.3l-0.8-0.3c-0.5-0.2-0.5-0.9,0-1.1
			l0.8-0.3c0.1-0.1,0.3-0.2,0.3-0.3l0.3-0.8C615.3,206.1,616,206.1,616.2,206.5z"/>
		<path class="st5" d="M564,262.1l0.3,0.8c0.1,0.1,0.2,0.3,0.3,0.3l0.8,0.3c0.5,0.2,0.5,0.9,0,1.1l-0.8,0.3
			c-0.1,0.1-0.3,0.2-0.3,0.3l-0.3,0.8c-0.2,0.5-0.9,0.5-1.1,0l-0.3-0.8c-0.1-0.1-0.2-0.3-0.3-0.3l-0.8-0.3c-0.5-0.2-0.5-0.9,0-1.1
			l0.8-0.3c0.1-0.1,0.3-0.2,0.3-0.3l0.3-0.8C563.1,261.6,563.8,261.6,564,262.1z"/>
	</g>
	<g>
		<g>
			<g>
				<circle class="st12" cx="191.4" cy="484.9" r="17.5"/>
				<path class="st13" d="M201.6,483.8c-1.1,1.5-3.2,1.9-4.7,0.8l-11.5-8.2c-0.7-0.5-1.5-0.7-2.3-0.7c-1.2,0-2.4,0.6-3.2,1.7
					c-0.9,1.3-0.6,3,0.7,3.9l11.5,8.2c1.5,1.1,1.9,3.2,0.8,4.7c-1.1,1.5-3.2,1.9-4.7,0.8l-14.2-10.1c0-9.6,7.9-17.4,17.5-17.4
					c5.3,0,10.1,2.4,13.3,6.1l-2.9-2.1c-1.5-1.1-3.6-0.7-4.7,0.8c-1.1,1.5-0.7,3.6,0.8,4.7l2.9,2.1
					C202.3,480.2,202.7,482.3,201.6,483.8z"/>
				<path class="st14" d="M191.4,467.4c-0.7,0-1.4,0.1-2,0.1c6.7,0.9,11.9,6.6,11.9,13.5c0,7.5-6.1,13.6-13.6,13.6
					c-6.9,0-12.6-5.2-13.5-11.9c-0.1,0.7-0.1,1.4-0.1,2c0,9.7,7.8,17.5,17.5,17.5c9.7,0,17.5-7.8,17.5-17.5
					C208.8,475.3,201,467.4,191.4,467.4z"/>
			</g>
		</g>
	</g>
	<g>
		<path class="st15" d="M206,191.6l0.5,1.2c0.1,0.2,0.3,0.4,0.5,0.5l1.2,0.5c0.8,0.3,0.8,1.4,0,1.7L207,196
			c-0.2,0.1-0.4,0.3-0.5,0.5l-0.5,1.2c-0.3,0.8-1.4,0.8-1.7,0l-0.5-1.2c-0.1-0.2-0.3-0.4-0.5-0.5l-1.2-0.5c-0.8-0.3-0.8-1.4,0-1.7
			l1.2-0.5c0.2-0.1,0.4-0.3,0.5-0.5l0.5-1.2C204.6,190.9,205.7,190.9,206,191.6z"/>
		<path class="st15" d="M149.4,135.6l0.7,1.7c0.1,0.3,0.4,0.6,0.7,0.7l1.7,0.7c1.1,0.4,1.1,2,0,2.4l-1.7,0.7
			c-0.3,0.1-0.6,0.4-0.7,0.7l-0.7,1.7c-0.4,1.1-2,1.1-2.4,0l-0.7-1.7c-0.1-0.3-0.4-0.6-0.7-0.7l-1.7-0.7c-1.1-0.4-1.1-2,0-2.4
			l1.7-0.7c0.3-0.1,0.6-0.4,0.7-0.7l0.7-1.7C147.4,134.5,149,134.5,149.4,135.6z"/>
		<path class="st15" d="M200.7,133.2l0.3,0.8c0.1,0.1,0.2,0.3,0.3,0.3l0.8,0.3c0.5,0.2,0.5,0.9,0,1.1l-0.8,0.3
			c-0.1,0.1-0.3,0.2-0.3,0.3l-0.3,0.8c-0.2,0.5-0.9,0.5-1.1,0l-0.3-0.8c-0.1-0.1-0.2-0.3-0.3-0.3l-0.8-0.3c-0.5-0.2-0.5-0.9,0-1.1
			l0.8-0.3c0.1-0.1,0.3-0.2,0.3-0.3l0.3-0.8C199.9,132.7,200.5,132.7,200.7,133.2z"/>
		<path class="st15" d="M148.6,188.7l0.3,0.8c0.1,0.1,0.2,0.3,0.3,0.3l0.8,0.3c0.5,0.2,0.5,0.9,0,1.1l-0.8,0.3
			c-0.1,0.1-0.3,0.2-0.3,0.3l-0.3,0.8c-0.2,0.5-0.9,0.5-1.1,0l-0.3-0.8c-0.1-0.1-0.2-0.3-0.3-0.3l-0.8-0.3c-0.5-0.2-0.5-0.9,0-1.1
			l0.8-0.3c0.1-0.1,0.3-0.2,0.3-0.3l0.3-0.8C147.7,188.2,148.4,188.2,148.6,188.7z"/>
		<g>
			<circle class="st16" cx="176.7" cy="166.7" r="25.5"/>
			<g>
				<path class="st17" d="M189.4,144.6l-38.1,25.1c-0.1-1-0.2-2-0.2-3c0-1.8,0.2-3.5,0.5-5.1l30.1-19.9
					C184.5,142.2,187.1,143.2,189.4,144.6z"/>
				<path class="st17" d="M198.7,179.5c-1.3,2.3-3,4.3-4.9,6c0,0,0,0,0,0l-6.6,4.3c-2.3,1.1-4.8,1.8-7.5,2.1L198.7,179.5z"/>
				<path class="st17" d="M177.4,141.2l-24.5,16.1c0.6-1.5,1.3-2.9,2.1-4.2l17.6-11.6c1.3-0.2,2.6-0.3,4-0.3
					C176.9,141.2,177.2,141.2,177.4,141.2z"/>
				<path class="st17" d="M202.2,166.7c0,2-0.2,4-0.7,5.9l-29.1,19.2c-2.2-0.4-4.4-1-6.4-2l36.2-23.9
					C202.2,166.2,202.2,166.5,202.2,166.7z"/>
				<path class="st17" d="M172.3,165.9c0,1.1-0.5,2.1-1.5,2.8l-16.2,10.7c-1.1-1.9-2-4-2.5-6.2l15.2-10c1.5-1,3.6-0.6,4.6,0.9
					C172.1,164.7,172.3,165.3,172.3,165.9z"/>
				<path class="st17" d="M197.1,151.4l-9.4,6.2c-1.5,1-3.6,0.6-4.6-0.9c-0.4-0.6-0.5-1.2-0.5-1.8c0-1.1,0.5-2.1,1.5-2.8l8.3-5.5
					C194.1,147.9,195.7,149.6,197.1,151.4z"/>
				<path class="st17" d="M201.6,161.3L173.2,180c-1.5,1-3.6,0.6-4.6-0.9c-0.4-0.6-0.5-1.2-0.5-1.8c0-1.1,0.5-2.1,1.5-2.8l29.7-19.6
					C200.4,156.9,201.1,159,201.6,161.3z"/>
			</g>
			<path class="st18" d="M176.7,141.2c-0.9,0-1.8,0-2.7,0.1c10.2,1.2,18.1,9.8,18.1,20.3c0,11.3-9.2,20.4-20.4,20.4
				c-10.5,0-19.1-7.9-20.3-18.1c-0.1,0.9-0.1,1.8-0.1,2.7c0,14.1,11.4,25.5,25.5,25.5c14.1,0,25.5-11.4,25.5-25.5
				C202.2,152.6,190.8,141.2,176.7,141.2z"/>
		</g>
	</g>
	<g>
		<g>
			<g>
				<path class="st19" d="M1071.9,277.9c8.9,18.4,1.3,40.5-17.1,49.5c-18.4,8.9-40.5,1.3-49.4-17.1c-8.9-18.4-1.3-40.5,17.1-49.5
					C1040.9,251.9,1063,259.5,1071.9,277.9z"/>
				<g>
					<path class="st20" d="M1062.7,265.9l-60.9,30.5c-0.2-3.3,0-6.6,0.7-9.8l52-26C1057.4,262,1060.2,263.8,1062.7,265.9z"/>
					<path class="st21" d="M1070.1,274.6l-65.9,32.9c-0.5-1.3-1-2.7-1.3-4l64.8-32.4C1068.6,272.3,1069.4,273.4,1070.1,274.6z"/>
					<path class="st20" d="M1073.7,282.2l-65.5,32.8c-0.8-1.2-1.5-2.4-2.2-3.6l66.1-33.1C1072.7,279.6,1073.2,280.9,1073.7,282.2z"
						/>
					<path class="st21" d="M1075.5,290.6l-61.7,30.8c-1.1-1-2.1-2-3.1-3.2l64.1-32C1075.1,287.7,1075.4,289.2,1075.5,290.6z"/>
					<path class="st20" d="M1075.3,299c-0.5,3.8-1.6,7.6-3.3,11.1v0l-40.5,20.3c-3.8-0.8-7.4-2.1-10.8-4L1075.3,299z"/>
				</g>
				<path class="st22" d="M1071.9,277.9c-1-2.1-2.2-4-3.5-5.8c5.1,18-3.7,34.9-19.8,43.4c-17.5,9.3-37.2,4.6-46.1-14
					c0.6,3,1.6,6,3,8.9c8.9,18.4,31.1,26,49.4,17.1C1073.2,318.4,1080.8,296.2,1071.9,277.9z"/>
				<path class="st23" d="M1089.4,266.9c-0.8-1.5-2-2.6-3.1-3.2c-0.3-0.2-0.5-0.2-0.8-0.4c-0.2-0.1-0.5-0.2-0.7-0.3
					c-0.4-0.1-0.9-0.3-1.4-0.4c-1.7-0.3-3.1-0.3-4.5-0.3c-2.7,0.1-5.1,0.6-7.5,1.1c-3,0.7-5.9,1.5-8.7,2.4c2.3,2,4.4,4.2,6.2,6.8
					c1.4-0.3,2.8-0.6,4.2-0.8c2.1-0.3,4.2-0.6,6.1-0.6c0.3,0,0.5,0,0.8,0c-0.2,0.2-0.4,0.5-0.6,0.7c-1.2,1.4-2.8,2.8-4.4,4.1
					c-3.3,2.7-7,5.1-10.7,7.5c-7.5,4.6-15.4,8.9-23.5,12.8c-4,2-8.1,3.9-12.2,5.7c-4.1,1.8-8.2,3.5-12.4,4.9
					c-4.2,1.5-8.4,2.9-12.5,3.8c-2,0.4-4.1,0.8-6,0.9c-0.3,0-0.6,0-0.9,0c0.1-0.2,0.3-0.4,0.5-0.6c1.1-1.5,2.6-3,4.2-4.4
					c0.6-0.6,1.3-1.1,1.9-1.7c-0.9-3-1.5-6.1-1.6-9.2c-2,1.4-3.9,2.8-5.9,4.4c-1.9,1.6-3.7,3.2-5.5,5.3c-0.9,1-1.8,2.1-2.5,3.7
					c-0.2,0.4-0.4,0.8-0.6,1.3c-0.1,0.2-0.2,0.5-0.2,0.8c-0.1,0.3-0.1,0.5-0.2,0.8c-0.2,1.2-0.2,2.8,0.6,4.4c0.8,1.6,2,2.6,3.1,3.2
					c0.3,0.2,0.5,0.3,0.8,0.4c0.2,0.1,0.5,0.2,0.8,0.3c0.4,0.1,0.9,0.3,1.4,0.4c1.7,0.4,3.2,0.5,4.5,0.5c2.8,0,5.2-0.3,7.7-0.7
					c4.8-0.9,9.4-2.1,14-3.5c4.5-1.4,8.9-3,13.3-4.8c4.4-1.8,8.6-3.7,12.9-5.7c8.4-4.1,16.6-8.7,24.4-14.1c3.9-2.7,7.7-5.6,11.3-8.9
					c1.8-1.7,3.6-3.4,5.3-5.6c0.8-1.1,1.7-2.3,2.4-3.8c0.2-0.4,0.4-0.9,0.5-1.3c0.1-0.2,0.2-0.5,0.2-0.8c0.1-0.3,0.1-0.5,0.2-0.8
					C1090.2,270.1,1090.1,268.4,1089.4,266.9z M995.9,313.5C995.9,313.5,995.9,313.5,995.9,313.5
					C995.9,313.4,995.9,313.4,995.9,313.5C995.9,313.5,995.9,313.5,995.9,313.5z M1081.8,271.7
					C1081.8,271.7,1081.8,271.7,1081.8,271.7C1081.7,271.6,1081.8,271.6,1081.8,271.7C1081.8,271.7,1081.8,271.7,1081.8,271.7z"/>
				<path class="st24" d="M997.9,318.6c-1.4,0-2.5-0.1-3.9-0.4c-0.3-0.1-0.7-0.2-1.1-0.3c-0.2-0.1-0.3-0.1-0.5-0.2l-0.2-0.1
					c-0.1,0-0.2-0.1-0.3-0.1c-0.5-0.3-1.5-0.9-2-2.1c-0.5-1.1-0.4-2.3-0.3-2.7l0-0.1c0-0.1,0-0.2,0.1-0.3l0-0.2l0-0.2
					c0-0.1,0.1-0.2,0.1-0.3l0.1-0.2c0.1-0.3,0.3-0.6,0.4-0.8c0.6-1.3,1.3-2.2,2.2-3.2c1.5-1.8,3.1-3.2,5.2-4.9
					c0.6-0.5,1.2-1,1.9-1.5c0.2,1.1,0.4,2.2,0.7,3.3c-0.2,0.2-0.4,0.4-0.6,0.6c-1.8,1.6-4.8,3.8-5.4,6.2c-0.2,0.8-0.2,1.7,0.4,2.3
					c0.6,0.7,1.5,0.9,2.4,0.9c2.6,0,4.8,0,7.3-0.6c4.7-1.1,9.3-2.6,12.8-3.9c3.8-1.3,7.8-2.9,12.6-5c3.9-1.7,8.1-3.6,12.3-5.7
					c9.1-4.6,16.9-8.8,23.7-13c6-3.7,11.6-7.8,16.5-12.9c5-5.2-7.5-4.2-9.5-3.9c-0.9,0.1-1.7,0.3-2.6,0.5c-0.7-0.9-1.4-1.7-2.1-2.5
					c1.4-0.4,2.7-0.7,4.1-1c2.1-0.4,4.5-0.9,7-1c0.3,0,0.7,0,1.1,0c1,0,1.9,0.1,2.8,0.3c0.2,0,0.6,0.1,0.8,0.2l0.3,0.1
					c0.1,0,0.1,0.1,0.2,0.1l0.4,0.2c0.1,0,0.1,0,0.2,0.1l0.1,0.1c0.4,0.2,1.4,0.8,2,2c0.5,1.1,0.4,2.3,0.4,2.8l0,0.1
					c0,0.1,0,0.2-0.1,0.4l0,0.2c0,0.2-0.1,0.3-0.1,0.5c-0.1,0.4-0.3,0.8-0.4,1c-0.7,1.5-1.5,2.5-2.1,3.4c-1.6,2.1-3.4,3.7-5,5.2
					c-3.1,2.8-6.6,5.6-11,8.7c-7.2,5-15.1,9.6-24,13.9c-4.6,2.2-8.7,4-12.7,5.6c-4.2,1.7-8.6,3.3-13.1,4.7
					c-4.9,1.5-9.4,2.6-13.6,3.4C1003.1,318.2,1000.6,318.6,997.9,318.6z"/>
			</g>
		</g>
	</g>
	<g>
		<g>
			<g>
				<circle class="st25" cx="783.2" cy="100" r="38.6"/>
				<g>
					<path class="st26" d="M796.7,63.7l-49.4,21.9c1.9-4.7,4.7-9,8.2-12.6l26.5-11.7c0.4,0,0.9,0,1.3,0
						C788,61.3,792.5,62.2,796.7,63.7z"/>
					<path class="st27" d="M816,79.5l-70,31c-0.4-1.3-0.7-2.7-0.9-4.1L813.6,76C814.4,77.1,815.2,78.3,816,79.5z"/>
					<path class="st28" d="M819.5,86.8L749,118c-0.6-1.2-1.2-2.4-1.7-3.7L817.9,83C818.5,84.2,819.1,85.5,819.5,86.8z"/>
					<path class="st27" d="M821.5,94.8l-67.8,30.1c-0.9-1.1-1.8-2.2-2.5-3.4l69.6-30.8C821.1,92,821.3,93.4,821.5,94.8z"/>
					<g>
						<path class="st29" d="M776.9,77.8l-23.2,10.3c-2.1,0.9-3,3.3-2.1,5.4c0.9,2.1,3.3,3,5.4,2.1l23.2-10.3c2.1-0.9,3-3.3,2.1-5.4
							C781.4,77.8,778.9,76.9,776.9,77.8z"/>
						<path class="st29" d="M810,72.1l-5.1,2.3c-2.1,0.9-4.5,0-5.4-2.1c-0.9-2.1,0-4.5,2.1-5.4l1-0.4C805.2,68,807.7,69.9,810,72.1z
							"/>
					</g>
					<path class="st26" d="M818.1,116.6c-2.6,5.5-6.6,10.3-11.4,14l-16.6,7.4c-2.2,0.4-4.5,0.6-6.9,0.6c-3.9,0-7.6-0.6-11.1-1.6
						L818.1,116.6z"/>
					<g>
						<path class="st29" d="M821.8,100.7c-0.1,3.3-0.5,6.5-1.4,9.6c-2,0.7-4.2-0.2-5.1-2.2c-0.9-2.1,0-4.5,2.1-5.4L821.8,100.7z"/>
						<path class="st29" d="M777.5,129.3l23.2-10.3c2.1-0.9,3-3.3,2.1-5.4c-0.9-2.1-3.3-3-5.4-2.1l-23.2,10.3
							c-2.1,0.9-3,3.3-2.1,5.4C773,129.3,775.4,130.2,777.5,129.3z"/>
					</g>
				</g>
				<path class="st30" d="M783.2,61.3c-1.4,0-2.8,0.1-4.2,0.2c15.3,1.8,27.1,14.8,27.1,30.6c0,17-13.8,30.8-30.8,30.8
					c-15.8,0-28.8-11.8-30.6-27.1c-0.1,1.4-0.2,2.8-0.2,4.2c0,21.3,17.3,38.6,38.6,38.6c21.3,0,38.6-17.3,38.6-38.6
					C821.8,78.6,804.5,61.3,783.2,61.3z"/>
			</g>
		</g>
		<path class="st5" d="M813.3,141.9l0.7,1.7c0.1,0.3,0.4,0.6,0.7,0.7l1.7,0.7c1.1,0.4,1.1,2,0,2.4l-1.7,0.7
			c-0.3,0.1-0.6,0.4-0.7,0.7l-0.7,1.7c-0.4,1.1-2,1.1-2.4,0l-0.7-1.7c-0.1-0.3-0.4-0.6-0.7-0.7l-1.7-0.7c-1.1-0.4-1.1-2,0-2.4
			l1.7-0.7c0.3-0.1,0.6-0.4,0.7-0.7l0.7-1.7C811.3,140.8,812.8,140.8,813.3,141.9z"/>
		<path class="st5" d="M813.2,48.7l0.5,1.2c0.1,0.2,0.3,0.4,0.5,0.5l1.2,0.5c0.8,0.3,0.8,1.4,0,1.7l-1.2,0.5
			c-0.2,0.1-0.4,0.3-0.5,0.5l-0.5,1.2c-0.3,0.8-1.4,0.8-1.7,0l-0.5-1.2c-0.1-0.2-0.3-0.4-0.5-0.5l-1.2-0.5c-0.8-0.3-0.8-1.4,0-1.7
			l1.2-0.5c0.2-0.1,0.4-0.3,0.5-0.5l0.5-1.2C811.8,47.9,812.9,47.9,813.2,48.7z"/>
		<path class="st5" d="M736.4,68.8l0.5,1.2c0.1,0.2,0.3,0.4,0.5,0.5l1.2,0.5c0.8,0.3,0.8,1.4,0,1.7l-1.2,0.5
			c-0.2,0.1-0.4,0.3-0.5,0.5l-0.5,1.2c-0.3,0.8-1.4,0.8-1.7,0l-0.5-1.2c-0.1-0.2-0.3-0.4-0.5-0.5l-1.2-0.5c-0.8-0.3-0.8-1.4,0-1.7
			l1.2-0.5c0.2-0.1,0.4-0.3,0.5-0.5l0.5-1.2C735,68,736.1,68,736.4,68.8z"/>
		<path class="st5" d="M733.8,146.3l0.3,0.8c0.1,0.1,0.2,0.3,0.3,0.3l0.8,0.3c0.5,0.2,0.5,0.9,0,1.1l-0.8,0.3
			c-0.1,0.1-0.3,0.2-0.3,0.3l-0.3,0.8c-0.2,0.5-0.9,0.5-1.1,0l-0.3-0.8c-0.1-0.1-0.2-0.3-0.3-0.3l-0.8-0.3c-0.5-0.2-0.5-0.9,0-1.1
			l0.8-0.3c0.1-0.1,0.3-0.2,0.3-0.3l0.3-0.8C733,145.8,733.6,145.8,733.8,146.3z"/>
	</g>
	<g>
		<g>
			<circle class="st31" cx="1023" cy="559.2" r="26.1"/>
			<path class="st32" d="M1023,547.2c0,0.8-0.3,1.4-0.8,1.9c-0.5,0.5-1.2,0.8-1.9,0.8h-21.7c0.7-2,1.7-3.8,2.9-5.5h18.8
				C1021.8,544.5,1023,545.7,1023,547.2z"/>
			<path class="st32" d="M1048.5,564.6c-0.4,1.9-1,3.7-1.8,5.5h-21c-1.5,0-2.7-1.2-2.7-2.7c0-0.8,0.3-1.4,0.8-1.9
				c0.5-0.5,1.2-0.8,1.9-0.8H1048.5z"/>
			<path class="st32" d="M1023,579.2c0,0.8-0.3,1.4-0.8,1.9c-0.5,0.5-1.2,0.8-1.9,0.8h-10.1c-2.5-1.4-4.8-3.3-6.8-5.5h16.9
				C1021.8,576.5,1023,577.7,1023,579.2z"/>
			<path class="st33" d="M1023,533.1c-1,0-1.9,0.1-2.8,0.2c10.3,1.2,18.3,10,18.3,20.7c0,11.5-9.3,20.8-20.8,20.8
				c-10.6,0-19.4-8-20.7-18.3c-0.1,0.9-0.2,1.9-0.2,2.8c0,14.4,11.7,26.1,26.1,26.1c14.4,0,26.1-11.7,26.1-26.1
				C1049.1,544.8,1037.4,533.1,1023,533.1z"/>
		</g>
		<path class="st5" d="M1050.7,528.3l0.7,1.7c0.1,0.3,0.4,0.6,0.7,0.7l1.7,0.7c1.1,0.4,1.1,2,0,2.4l-1.7,0.7
			c-0.3,0.1-0.6,0.4-0.7,0.7l-0.7,1.7c-0.4,1.1-2,1.1-2.4,0l-0.7-1.7c-0.1-0.3-0.4-0.6-0.7-0.7l-1.7-0.7c-1.1-0.4-1.1-2,0-2.4
			l1.7-0.7c0.3-0.1,0.6-0.4,0.7-0.7l0.7-1.7C1048.7,527.2,1050.3,527.2,1050.7,528.3z"/>
		<path class="st5" d="M996.7,585l0.5,1.2c0.1,0.2,0.3,0.4,0.5,0.5l1.2,0.5c0.8,0.3,0.8,1.4,0,1.7l-1.2,0.5
			c-0.2,0.1-0.4,0.3-0.5,0.5l-0.5,1.2c-0.3,0.8-1.4,0.8-1.7,0l-0.5-1.2c-0.1-0.2-0.3-0.4-0.5-0.5l-1.2-0.5c-0.8-0.3-0.8-1.4,0-1.7
			l1.2-0.5c0.2-0.1,0.4-0.3,0.5-0.5l0.5-1.2C995.3,584.2,996.4,584.2,996.7,585z"/>
		<path class="st5" d="M1050,588.7l0.3,0.8c0.1,0.1,0.2,0.3,0.3,0.3l0.8,0.3c0.5,0.2,0.5,0.9,0,1.1l-0.8,0.3
			c-0.1,0.1-0.3,0.2-0.3,0.3l-0.3,0.8c-0.2,0.5-0.9,0.5-1.1,0l-0.3-0.8c-0.1-0.1-0.2-0.3-0.3-0.3l-0.8-0.3c-0.5-0.2-0.5-0.9,0-1.1
			l0.8-0.3c0.1-0.1,0.3-0.2,0.3-0.3l0.3-0.8C1049.1,588.2,1049.8,588.2,1050,588.7z"/>
		<path class="st5" d="M997.9,524.7l0.3,0.8c0.1,0.1,0.2,0.3,0.3,0.3l0.8,0.3c0.5,0.2,0.5,0.9,0,1.1l-0.8,0.3
			c-0.1,0.1-0.3,0.2-0.3,0.3l-0.3,0.8c-0.2,0.5-0.9,0.5-1.1,0l-0.3-0.8c-0.1-0.1-0.2-0.3-0.3-0.3l-0.8-0.3c-0.5-0.2-0.5-0.9,0-1.1
			l0.8-0.3c0.1-0.1,0.3-0.2,0.3-0.3l0.3-0.8C997,524.2,997.7,524.2,997.9,524.7z"/>
	</g>
	<g>
		<g>
			<circle class="st34" cx="444.5" cy="133.2" r="5"/>
			<circle class="st34" cx="356.1" cy="645.9" r="6.1"/>
			<circle class="st35" cx="317.6" cy="619" r="3.1"/>
			<circle class="st35" cx="848.3" cy="503.6" r="3.2"/>
			<g>
				<circle class="st35" cx="249" cy="285.4" r="4.5"/>
				<circle class="st35" cx="589" cy="119.5" r="4.5"/>
				<circle class="st35" cx="269.5" cy="275.4" r="2.5"/>
			</g>
			<circle class="st36" cx="702.7" cy="135.8" r="3"/>
		</g>
		<g>
			<g>
				<polygon class="st37" points="268.6,434.6 267.5,430.7 276.1,428.3 273.7,419.6 277.6,418.6 281.1,431.1 				"/>
			</g>
			<g>
				<polygon class="st37" points="260.9,448.2 259.9,444.3 268.5,441.9 266.1,433.2 270,432.1 273.5,444.7 				"/>
			</g>
			<g>
				<polygon class="st37" points="269.1,443.8 265.5,431.3 278.1,427.8 279.2,431.7 270.5,434.1 272.9,442.7 				"/>
			</g>
		</g>
		<path class="st37" d="M567.6,145.4c-5.3,0-9.6-4.3-9.6-9.6s4.3-9.6,9.6-9.6s9.6,4.3,9.6,9.6S572.9,145.4,567.6,145.4z
			 M567.6,130.2c-3.1,0-5.6,2.5-5.6,5.6c0,3.1,2.5,5.6,5.6,5.6c3.1,0,5.6-2.5,5.6-5.6C573.2,132.7,570.7,130.2,567.6,130.2z"/>
		<path class="st37" d="M778.6,626.8l-10.9-10.9l10.9-10.9l10.9,10.9L778.6,626.8z M773.4,615.9l5.2,5.2l5.2-5.2l-5.2-5.2
			L773.4,615.9z"/>
		<g>
			
				<rect x="807" y="227.3" transform="matrix(0.707 -0.7072 0.7072 0.707 70.4356 641.1467)" class="st36" width="4" height="16.5"/>
			
				<rect x="800.8" y="233.5" transform="matrix(0.7071 -0.7071 0.7071 0.7071 70.4032 641.0878)" class="st36" width="16.5" height="4"/>
		</g>
		<g>
			<circle class="st38" cx="156.5" cy="647" r="66"/>
			<path class="st39" d="M173.7,593.1c0,2.9-2.3,5.2-5.2,5.2H148c-2.9,0-5.2,2.3-5.2,5.2c0,2.9,2.3,5.2,5.2,5.2h5.7
				c2.4,0,4.3,1.9,4.3,4.3v1.7c0,2.4-1.9,4.3-4.3,4.3h-19.9c-2.9,0-5.2,2.3-5.2,5.2c0,2.9,2.3,5.2,5.2,5.2h5.5
				c2.9,0,5.2,2.3,5.2,5.2c0,2.9-2.3,5.2-5.2,5.2h-21.6c-1.7,0-3.2,0.7-4.3,1.8c-1.1,1.1-1.8,2.6-1.8,4.3c0,2.4,1.9,4.3,4.3,4.3
				h21.6c2.9,0,5.2,2.3,5.2,5.2s-2.3,5.2-5.2,5.2H92c-0.9-4.4-1.4-9-1.4-13.6c0-25.9,14.9-48.3,36.6-59.1h41.3
				C171.3,587.9,173.7,590.2,173.7,593.1z"/>
			<path class="st39" d="M222.5,647c0,17.3-6.7,33.1-17.6,44.9h-18.4c-2.9,0-5.2-2.3-5.2-5.2c0-2.9,2.3-5.2,5.2-5.2h5.5
				c2.9,0,5.2-2.3,5.2-5.2c0-2.9-2.3-5.2-5.2-5.2h-19c-2.9,0-5.2-2.3-5.2-5.2c0-2.9,2.3-5.2,5.2-5.2h4.8c2.9,0,5.2-2.3,5.2-5.2
				s-2.3-5.2-5.2-5.2h-20.4c-2.9,0-5.2-2.3-5.2-5.2c0-2.9,2.3-5.2,5.2-5.2h52.5c2.4,0,4.3-1.9,4.3-4.3c0-2.4-1.9-4.3-4.3-4.3h-22.5
				c-2.4,0-4.3-1.9-4.3-4.3v-1.7c0-2.4,1.9-4.3,4.3-4.3h29.8C220.6,628.9,222.5,637.7,222.5,647z"/>
			<path class="st39" d="M121.5,688.8h-16c-2.6-3.2-5-6.7-7-10.4h23c2.4,0,4.3,1.9,4.3,4.3v1.7C125.8,686.8,123.9,688.8,121.5,688.8
				z"/>
			<path class="st39" d="M156.7,702.6c0,2.9-2.3,5.2-5.2,5.2H131c-6.2-2.6-11.9-6.1-17-10.4h37.4
				C154.3,697.4,156.7,699.7,156.7,702.6z"/>
		</g>
	</g>
	<g>
		<g>
			<circle class="st40" cx="1280" cy="82.3" r="19.6"/>
			<path class="st41" d="M1299.5,82.3c0,8.6-5.5,15.9-13.2,18.5h-6.9c-1.1,0-1.9-0.9-1.9-1.9c0-1.1,0.9-1.9,1.9-1.9h7.4
				c1.2,0,2.2-1,2.2-2.2c0-0.9-0.7-1.6-1.6-1.6h-8.7c-1.1,0-1.9-0.9-1.9-1.9c0-1.1,0.9-1.9,1.9-1.9h2c1.1,0,1.9-0.9,1.9-1.9
				c0-1.1-0.9-1.9-1.9-1.9h-7c-1.1,0-1.9-0.9-1.9-1.9c0-1.1,0.9-1.9,1.9-1.9h1.8c1.1,0,1.9-0.9,1.9-1.9c0-1.1-0.9-1.9-1.9-1.9h-7.6
				c-1.1,0-1.9-0.9-1.9-1.9c0-1.1,0.9-1.9,1.9-1.9h19.4c0.9,0,1.6-0.7,1.6-1.6c0-0.9-0.7-1.6-1.6-1.6h-8.3c-0.9,0-1.6-0.7-1.6-1.6
				v-0.6c0-0.9,0.7-1.6,1.6-1.6h12.8C1296.6,70.4,1299.5,76,1299.5,82.3z"/>
			<path class="st42" d="M1280,62.7c-0.7,0-1.4,0-2.1,0.1c7.7,0.9,13.7,7.5,13.7,15.5c0,8.6-7,15.6-15.6,15.6c-8,0-14.6-6-15.5-13.7
				c-0.1,0.7-0.1,1.4-0.1,2.1c0,10.8,8.8,19.6,19.6,19.6c10.8,0,19.6-8.8,19.6-19.6S1290.8,62.7,1280,62.7z"/>
		</g>
	</g>
	<g>
		<g>
			<g>
				<circle class="st43" cx="1150.7" cy="181.6" r="30.9"/>
				<g>
					<path class="st44" d="M1166.4,154.9l-0.1,0.1l-46.3,29.9c-0.1-1.1-0.2-2.2-0.2-3.3c0-2.3,0.2-4.5,0.7-6.6v0l36.5-23.6
						c1.2,0.2,2.4,0.5,3.6,0.9c0,0,0.1,0,0.1,0C1162.7,153,1164.6,153.9,1166.4,154.9z"/>
					<path class="st44" d="M1176.8,198c-2.1,3.4-4.9,6.3-8.1,8.7c0,0,0,0-0.1,0l-2.7,1.7h0c-3.4,1.9-7.1,3.2-11.1,3.8L1176.8,198z"
						/>
					<path class="st45" d="M1151.6,150.8l-29.5,19c0.7-1.8,1.7-3.5,2.7-5.2v0l20.9-13.5c1.6-0.2,3.2-0.4,4.9-0.4
						C1151,150.8,1151.3,150.8,1151.6,150.8z"/>
					<path class="st44" d="M1181.5,181.3v0.3c0,2.7-0.3,5.3-1,7.8l-35,22.6c-2.8-0.5-5.4-1.3-7.9-2.4L1181.5,181.3z"/>
					<path class="st45" d="M1145.2,180.8c0,1.3-0.6,2.6-1.8,3.3l-19.6,12.6c-1.3-2.3-2.4-4.9-3-7.6l18.1-11.7
						c1.9-1.2,4.4-0.7,5.6,1.1C1145,179.3,1145.2,180,1145.2,180.8z"/>
					<path class="st45" d="M1175.6,163.3l-11.3,7.3c-1.9,1.2-4.4,0.7-5.6-1.1c-0.5-0.7-0.7-1.4-0.7-2.2c0-1.3,0.6-2.6,1.8-3.3
						l10.1-6.5C1172,159.1,1173.9,161.1,1175.6,163.3z"/>
					<path class="st45" d="M1180.9,175.5l-34.6,22.3c-1.9,1.2-4.4,0.7-5.6-1.1c-0.4-0.7-0.7-1.4-0.7-2.2c0-1.3,0.6-2.6,1.8-3.3
						l36.4-23.5C1179.5,170.2,1180.4,172.8,1180.9,175.5z"/>
				</g>
				<path class="st46" d="M1150.7,150.7c-1.3,0-2.6,0.1-3.8,0.2c11.5,1.6,20.3,11.5,20.3,23.4c0,13.1-10.6,23.7-23.7,23.7
					c-11.9,0-21.8-8.8-23.4-20.3c-0.2,1.2-0.2,2.5-0.2,3.8c0,17,13.8,30.9,30.9,30.9s30.9-13.8,30.9-30.9S1167.7,150.7,1150.7,150.7
					z"/>
			</g>
		</g>
		<path class="st5" d="M1181.6,202.3l0.7,1.7c0.1,0.3,0.4,0.6,0.7,0.7l1.7,0.7c1.1,0.4,1.1,2,0,2.4l-1.7,0.7
			c-0.3,0.1-0.6,0.4-0.7,0.7l-0.7,1.7c-0.4,1.1-2,1.1-2.4,0l-0.7-1.7c-0.1-0.3-0.4-0.6-0.7-0.7l-1.7-0.7c-1.1-0.4-1.1-2,0-2.4
			l1.7-0.7c0.3-0.1,0.6-0.4,0.7-0.7l0.7-1.7C1179.6,201.2,1181.1,201.2,1181.6,202.3z"/>
		<path class="st5" d="M1117.5,145.7l0.5,1.2c0.1,0.2,0.3,0.4,0.5,0.5l1.2,0.5c0.8,0.3,0.8,1.4,0,1.7l-1.2,0.5
			c-0.2,0.1-0.4,0.3-0.5,0.5l-0.5,1.2c-0.3,0.8-1.4,0.8-1.7,0l-0.5-1.2c-0.1-0.2-0.3-0.4-0.5-0.5l-1.2-0.5c-0.8-0.3-0.8-1.4,0-1.7
			l1.2-0.5c0.2-0.1,0.4-0.3,0.5-0.5l0.5-1.2C1116.1,144.9,1117.2,144.9,1117.5,145.7z"/>
		<path class="st5" d="M1119.5,210.4l0.3,0.8c0.1,0.1,0.2,0.3,0.3,0.3l0.8,0.3c0.5,0.2,0.5,0.9,0,1.1l-0.8,0.3
			c-0.1,0.1-0.3,0.2-0.3,0.3l-0.3,0.8c-0.2,0.5-0.9,0.5-1.1,0l-0.3-0.8c-0.1-0.1-0.2-0.3-0.3-0.3l-0.8-0.3c-0.5-0.2-0.5-0.9,0-1.1
			l0.8-0.3c0.1-0.1,0.3-0.2,0.3-0.3l0.3-0.8C1118.6,209.9,1119.3,209.9,1119.5,210.4z"/>
	</g>
	<g>
		<g>
			<path class="st3" d="M507.6,528.1c1.9,0,1.9-3,0-3C505.7,525.1,505.7,528.1,507.6,528.1L507.6,528.1z"/>
		</g>
	</g>
	<g>
		<g>
			<path class="st3" d="M293.1,543.1c1.9,0,1.9-3,0-3C291.2,540.1,291.2,543.1,293.1,543.1L293.1,543.1z"/>
		</g>
	</g>
	<g>
		<g>
			<path class="st3" d="M386.1,732.1c1.9,0,1.9-3,0-3C384.2,729.1,384.2,732.1,386.1,732.1L386.1,732.1z"/>
		</g>
	</g>
	<g>
		<g>
			<path class="st3" d="M176.1,733.6c1.9,0,1.9-3,0-3C174.2,730.6,174.2,733.6,176.1,733.6L176.1,733.6z"/>
		</g>
	</g>
	<g>
		<g>
			<path class="st3" d="M47.1,558.1c1.9,0,1.9-3,0-3C45.2,555.1,45.2,558.1,47.1,558.1L47.1,558.1z"/>
		</g>
	</g>
	<g>
		<g>
			<path class="st3" d="M33.6,352.6c1.9,0,1.9-3,0-3C31.7,349.6,31.7,352.6,33.6,352.6L33.6,352.6z"/>
		</g>
	</g>
	<g>
		<g>
			<path class="st3" d="M114.6,301.6c1.9,0,1.9-3,0-3C112.7,298.6,112.7,301.6,114.6,301.6L114.6,301.6z"/>
		</g>
	</g>
	<g>
		<g>
			<path class="st3" d="M159.6,426.1c1.9,0,1.9-3,0-3C157.7,423.1,157.7,426.1,159.6,426.1L159.6,426.1z"/>
		</g>
	</g>
	<g>
		<g>
			<path class="st3" d="M282.6,627.1c1.9,0,1.9-3,0-3C280.7,624.1,280.7,627.1,282.6,627.1L282.6,627.1z"/>
		</g>
	</g>
	<g>
		<g>
			<path class="st3" d="M494.1,546.1c1.9,0,1.9-3,0-3C492.2,543.1,492.2,546.1,494.1,546.1L494.1,546.1z"/>
		</g>
	</g>
	<g>
		<g>
			<path class="st3" d="M558.6,693.1c1.9,0,1.9-3,0-3C556.7,690.1,556.7,693.1,558.6,693.1L558.6,693.1z"/>
		</g>
	</g>
	<g>
		<g>
			<path class="st3" d="M407.1,528.1c1.9,0,1.9-3,0-3C405.2,525.1,405.2,528.1,407.1,528.1L407.1,528.1z"/>
		</g>
	</g>
	<g>
		<g>
			<path class="st3" d="M560.1,438.1c1.9,0,1.9-3,0-3C558.2,435.1,558.2,438.1,560.1,438.1L560.1,438.1z"/>
		</g>
	</g>
	<g>
		<g>
			<path class="st3" d="M671.1,520.6c1.9,0,1.9-3,0-3C669.2,517.6,669.2,520.6,671.1,520.6L671.1,520.6z"/>
		</g>
	</g>
	<g>
		<g>
			<path class="st3" d="M656.1,669.1c1.9,0,1.9-3,0-3C654.2,666.1,654.2,669.1,656.1,669.1L656.1,669.1z"/>
		</g>
	</g>
	<g>
		<g>
			<path class="st3" d="M1010.1,559.6c1.9,0,1.9-3,0-3C1008.1,556.6,1008.1,559.6,1010.1,559.6L1010.1,559.6z"/>
		</g>
	</g>
	<g>
		<g>
			<path class="st3" d="M1086.6,637.6c1.9,0,1.9-3,0-3C1084.6,634.6,1084.6,637.6,1086.6,637.6L1086.6,637.6z"/>
		</g>
	</g>
	<g>
		<g>
			<path class="st3" d="M1233.6,633.1c1.9,0,1.9-3,0-3C1231.6,630.1,1231.6,633.1,1233.6,633.1L1233.6,633.1z"/>
		</g>
	</g>
	<g>
		<g>
			<path class="st3" d="M1278.6,693.1c1.9,0,1.9-3,0-3C1276.6,690.1,1276.6,693.1,1278.6,693.1L1278.6,693.1z"/>
		</g>
	</g>
	<g>
		<g>
			<path class="st3" d="M1308.6,583.6c1.9,0,1.9-3,0-3C1306.6,580.6,1306.6,583.6,1308.6,583.6L1308.6,583.6z"/>
		</g>
	</g>
	<g>
		<g>
			<path class="st3" d="M1206.6,586.6c1.9,0,1.9-3,0-3C1204.6,583.6,1204.6,586.6,1206.6,586.6L1206.6,586.6z"/>
		</g>
	</g>
	<g>
		<g>
			<path class="st3" d="M927.6,522.1c1.9,0,1.9-3,0-3C925.6,519.1,925.6,522.1,927.6,522.1L927.6,522.1z"/>
		</g>
	</g>
	<g>
		<g>
			<path class="st3" d="M980.1,397.6c1.9,0,1.9-3,0-3C978.1,394.6,978.1,397.6,980.1,397.6L980.1,397.6z"/>
		</g>
	</g>
	<g>
		<g>
			<path class="st3" d="M698.1,385.6c1.9,0,1.9-3,0-3C696.2,382.6,696.2,385.6,698.1,385.6L698.1,385.6z"/>
		</g>
	</g>
	<g>
		<g>
			<path class="st3" d="M612.6,267.1c1.9,0,1.9-3,0-3C610.7,264.1,610.7,267.1,612.6,267.1L612.6,267.1z"/>
		</g>
	</g>
	<g>
		<g>
			<path class="st3" d="M699.6,87.1c1.9,0,1.9-3,0-3C697.7,84.1,697.7,87.1,699.6,87.1L699.6,87.1z"/>
		</g>
	</g>
	<g>
		<g>
			<path class="st3" d="M480.6,226.6c1.9,0,1.9-3,0-3C478.7,223.6,478.7,226.6,480.6,226.6L480.6,226.6z"/>
		</g>
	</g>
	<g>
		<g>
			<path class="st3" d="M387.6,111.1c1.9,0,1.9-3,0-3C385.7,108.1,385.7,111.1,387.6,111.1L387.6,111.1z"/>
		</g>
	</g>
	<g>
		<g>
			<path class="st3" d="M284.1,138.1c1.9,0,1.9-3,0-3C282.2,135.1,282.2,138.1,284.1,138.1L284.1,138.1z"/>
		</g>
	</g>
	<g>
		<g>
			<path class="st3" d="M105.6,112.6c1.9,0,1.9-3,0-3C103.7,109.6,103.7,112.6,105.6,112.6L105.6,112.6z"/>
		</g>
	</g>
	<g>
		<g>
			<path class="st3" d="M221.1,363.1c1.9,0,1.9-3,0-3C219.2,360.1,219.2,363.1,221.1,363.1L221.1,363.1z"/>
		</g>
	</g>
	<g>
		<g>
			<path class="st3" d="M155.1,369.1c1.9,0,1.9-3,0-3C153.2,366.1,153.2,369.1,155.1,369.1L155.1,369.1z"/>
		</g>
	</g>
	<g>
		<g>
			<path class="st3" d="M90.6,256.6c1.9,0,1.9-3,0-3C88.7,253.6,88.7,256.6,90.6,256.6L90.6,256.6z"/>
		</g>
	</g>
	<g>
		<g>
			<path class="st3" d="M351.6,597.1c1.9,0,1.9-3,0-3C349.7,594.1,349.7,597.1,351.6,597.1L351.6,597.1z"/>
		</g>
	</g>
	<g>
		<g>
			<path class="st3" d="M599.1,718.6c1.9,0,1.9-3,0-3C597.2,715.6,597.2,718.6,599.1,718.6L599.1,718.6z"/>
		</g>
	</g>
	<g>
		<g>
			<path class="st3" d="M746.1,579.1c1.9,0,1.9-3,0-3C744.2,576.1,744.2,579.1,746.1,579.1L746.1,579.1z"/>
		</g>
	</g>
	<g>
		<g>
			<path class="st3" d="M668.1,450.1c1.9,0,1.9-3,0-3C666.2,447.1,666.2,450.1,668.1,450.1L668.1,450.1z"/>
		</g>
	</g>
	<g>
		<g>
			<path class="st3" d="M689.1,201.1c1.9,0,1.9-3,0-3C687.2,198.1,687.2,201.1,689.1,201.1L689.1,201.1z"/>
		</g>
	</g>
	<g>
		<g>
			<path class="st3" d="M515.1,48.1c1.9,0,1.9-3,0-3C513.2,45.1,513.2,48.1,515.1,48.1L515.1,48.1z"/>
		</g>
	</g>
	<g>
		<g>
			<path class="st3" d="M350.1,114.1c1.9,0,1.9-3,0-3C348.2,111.1,348.2,114.1,350.1,114.1L350.1,114.1z"/>
		</g>
	</g>
	<g>
		<g>
			<path class="st3" d="M303.6,460.6c1.9,0,1.9-3,0-3C301.7,457.6,301.7,460.6,303.6,460.6L303.6,460.6z"/>
		</g>
	</g>
	<g>
		<g>
			<path class="st3" d="M260.1,742.6c1.9,0,1.9-3,0-3C258.2,739.6,258.2,742.6,260.1,742.6L260.1,742.6z"/>
		</g>
	</g>
	<g>
		<g>
			<path class="st3" d="M38.1,517.6c1.9,0,1.9-3,0-3C36.2,514.6,36.2,517.6,38.1,517.6L38.1,517.6z"/>
		</g>
	</g>
	<g>
		<g>
			<path class="st3" d="M35.1,280.6c1.9,0,1.9-3,0-3C33.2,277.6,33.2,280.6,35.1,280.6L35.1,280.6z"/>
		</g>
	</g>
	<g>
		<g>
			<path class="st3" d="M41.1,42.1c1.9,0,1.9-3,0-3C39.2,39.1,39.2,42.1,41.1,42.1L41.1,42.1z"/>
		</g>
	</g>
	<g>
		<g>
			<path class="st3" d="M257.1,25.6c1.9,0,1.9-3,0-3C255.2,22.6,255.2,25.6,257.1,25.6L257.1,25.6z"/>
		</g>
	</g>
	<g>
		<g>
			<path class="st3" d="M176.1,33.1c1.9,0,1.9-3,0-3C174.2,30.1,174.2,33.1,176.1,33.1L176.1,33.1z"/>
		</g>
	</g>
	<g>
		<g>
			<path class="st3" d="M432.6,39.1c1.9,0,1.9-3,0-3C430.7,36.1,430.7,39.1,432.6,39.1L432.6,39.1z"/>
		</g>
	</g>
	<g>
		<g>
			<path class="st3" d="M201.6,114.1c1.9,0,1.9-3,0-3C199.7,111.1,199.7,114.1,201.6,114.1L201.6,114.1z"/>
		</g>
	</g>
	<g>
		<g>
			<path class="st3" d="M68.1,190.6c1.9,0,1.9-3,0-3C66.2,187.6,66.2,190.6,68.1,190.6L68.1,190.6z"/>
		</g>
	</g>
	<g>
		<g>
			<path class="st3" d="M428.1,273.1c1.9,0,1.9-3,0-3C426.2,270.1,426.2,273.1,428.1,273.1L428.1,273.1z"/>
		</g>
	</g>
</g>
<g id="Layer_2">
	<g>
		<g>
			<path class="st3" d="M1034.8,227.7c1.9,0,1.9-3,0-3C1032.8,224.7,1032.8,227.7,1034.8,227.7L1034.8,227.7z"/>
		</g>
	</g>
	<g>
		<g>
			<path class="st3" d="M1330.3,154.4c1.9,0,1.9-3,0-3C1328.4,151.4,1328.4,154.4,1330.3,154.4L1330.3,154.4z"/>
		</g>
	</g>
	<g>
		<g>
			<path class="st3" d="M1189.2,101.1c1.9,0,1.9-3,0-3C1187.3,98.1,1187.3,101.1,1189.2,101.1L1189.2,101.1z"/>
		</g>
	</g>
	<g>
		<g>
			<path class="st3" d="M1193.7,29.9c1.9,0,1.9-3,0-3C1191.7,26.9,1191.7,29.9,1193.7,29.9L1193.7,29.9z"/>
		</g>
	</g>
	<g>
		<g>
			<path class="st3" d="M911.4,136.6c1.9,0,1.9-3,0-3C909.5,133.6,909.5,136.6,911.4,136.6L911.4,136.6z"/>
		</g>
	</g>
	<g>
		<g>
			<path class="st3" d="M892.6,65.5c1.9,0,1.9-3,0-3C890.6,62.5,890.6,65.5,892.6,65.5L892.6,65.5z"/>
		</g>
	</g>
	<g>
		<g>
			<path class="st3" d="M1048.1,59.9c1.9,0,1.9-3,0-3C1046.2,56.9,1046.2,59.9,1048.1,59.9L1048.1,59.9z"/>
		</g>
	</g>
	<g>
		<g>
			<path class="st3" d="M1091.4,291.1c1.9,0,1.9-3,0-3C1089.5,288.1,1089.5,291.1,1091.4,291.1L1091.4,291.1z"/>
		</g>
	</g>
	<g>
		<g>
			<path class="st3" d="M1225.9,228.8c1.9,0,1.9-3,0-3C1224,225.8,1224,228.8,1225.9,228.8L1225.9,228.8z"/>
		</g>
	</g>
	<g>
		<g>
			<path class="st3" d="M1301.4,261.1c1.9,0,1.9-3,0-3C1299.5,258.1,1299.5,261.1,1301.4,261.1L1301.4,261.1z"/>
		</g>
	</g>
	<g>
		<g>
			<path class="st3" d="M1360.3,201.1c1.9,0,1.9-3,0-3C1358.4,198.1,1358.4,201.1,1360.3,201.1L1360.3,201.1z"/>
		</g>
	</g>
	<g>
		<g>
			<path class="st3" d="M1294.8,324.4c1.9,0,1.9-3,0-3C1292.8,321.4,1292.8,324.4,1294.8,324.4L1294.8,324.4z"/>
		</g>
	</g>
	<g>
		<g>
			<path class="st3" d="M1287,375.5c1.9,0,1.9-3,0-3C1285.1,372.5,1285.1,375.5,1287,375.5L1287,375.5z"/>
		</g>
	</g>
	<g>
		<g>
			<path class="st3" d="M1224.8,401.1c1.9,0,1.9-3,0-3C1222.8,398.1,1222.8,401.1,1224.8,401.1L1224.8,401.1z"/>
		</g>
	</g>
	<g>
		<g>
			<path class="st3" d="M1022.6,332.2c1.9,0,1.9-3,0-3C1020.6,329.2,1020.6,332.2,1022.6,332.2L1022.6,332.2z"/>
		</g>
	</g>
	<g>
		<g>
			<path class="st3" d="M1259.2,476.6c1.9,0,1.9-3,0-3C1257.3,473.6,1257.3,476.6,1259.2,476.6L1259.2,476.6z"/>
		</g>
	</g>
	<g>
		<g>
			<path class="st3" d="M1358.1,472.2c1.9,0,1.9-3,0-3C1356.2,469.2,1356.2,472.2,1358.1,472.2L1358.1,472.2z"/>
		</g>
	</g>
	<g>
		<g>
			<path class="st3" d="M1070.3,428.8c1.9,0,1.9-3,0-3C1068.4,425.8,1068.4,428.8,1070.3,428.8L1070.3,428.8z"/>
		</g>
	</g>
	<g>
		<g>
			<path class="st3" d="M878.1,321.1c1.9,0,1.9-3,0-3C876.2,318.1,876.2,321.1,878.1,321.1L878.1,321.1z"/>
		</g>
	</g>
	<g>
		<g>
			<path class="st3" d="M893.7,251.1c1.9,0,1.9-3,0-3C891.7,248.1,891.7,251.1,893.7,251.1L893.7,251.1z"/>
		</g>
	</g>
	<g>
		<g>
			<path class="st3" d="M839.2,142.2c1.9,0,1.9-3,0-3C837.3,139.2,837.3,142.2,839.2,142.2L839.2,142.2z"/>
		</g>
	</g>
	<g>
		<g>
			<path class="st3" d="M788.1,84.4c1.9,0,1.9-3,0-3C786.2,81.4,786.2,84.4,788.1,84.4L788.1,84.4z"/>
		</g>
	</g>
	<g>
		<g>
			<path class="st3" d="M777,42.2c1.9,0,1.9-3,0-3C775.1,39.2,775.1,42.2,777,42.2L777,42.2z"/>
		</g>
	</g>
	<g>
		<g>
			<path class="st3" d="M828.1,16.6c1.9,0,1.9-3,0-3C826.2,13.6,826.2,16.6,828.1,16.6L828.1,16.6z"/>
		</g>
	</g>
	<g>
		<g>
			<path class="st3" d="M809.2,223.3c1.9,0,1.9-3,0-3C807.3,220.3,807.3,223.3,809.2,223.3L809.2,223.3z"/>
		</g>
	</g>
	<g>
		<g>
			<path class="st3" d="M940.3,202.5c1,0,1-1.5,0-1.5C939.4,201,939.4,202.5,940.3,202.5L940.3,202.5z"/>
		</g>
	</g>
	<g>
		<g>
			<path class="st3" d="M1014.8,132.5c1,0,1-1.5,0-1.5C1013.8,131,1013.8,132.5,1014.8,132.5L1014.8,132.5z"/>
		</g>
	</g>
	<g>
		<g>
			<path class="st3" d="M1099.2,89.2c1,0,1-1.5,0-1.5C1098.3,87.7,1098.3,89.2,1099.2,89.2L1099.2,89.2z"/>
		</g>
	</g>
	<g>
		<g>
			<path class="st3" d="M1228.1,102.5c1,0,1-1.5,0-1.5C1227.1,101,1227.1,102.5,1228.1,102.5L1228.1,102.5z"/>
		</g>
	</g>
	<g>
		<g>
			<path class="st3" d="M1241.4,209.2c1,0,1-1.5,0-1.5C1240.5,207.7,1240.5,209.2,1241.4,209.2L1241.4,209.2z"/>
		</g>
	</g>
	<g>
		<g>
			<path class="st3" d="M1284.8,359.2c1,0,1-1.5,0-1.5C1283.8,357.7,1283.8,359.2,1284.8,359.2L1284.8,359.2z"/>
		</g>
	</g>
	<g>
		<g>
			<path class="st3" d="M1135.9,411.4c1,0,1-1.5,0-1.5C1134.9,409.9,1134.9,411.4,1135.9,411.4L1135.9,411.4z"/>
		</g>
	</g>
	<g>
		<g>
			<path class="st3" d="M1099.2,353.6c1,0,1-1.5,0-1.5C1098.3,352.1,1098.3,353.6,1099.2,353.6L1099.2,353.6z"/>
		</g>
	</g>
	<g>
		<g>
			<path class="st3" d="M1225.9,340.3c1,0,1-1.5,0-1.5C1224.9,338.8,1224.9,340.3,1225.9,340.3L1225.9,340.3z"/>
		</g>
	</g>
	<g>
		<g>
			<path class="st3" d="M1154.8,249.2c1,0,1-1.5,0-1.5C1153.8,247.7,1153.8,249.2,1154.8,249.2L1154.8,249.2z"/>
		</g>
	</g>
	<g>
		<g>
			<path class="st3" d="M1064.8,151.4c1,0,1-1.5,0-1.5C1063.8,149.9,1063.8,151.4,1064.8,151.4L1064.8,151.4z"/>
		</g>
	</g>
	<g>
		<g>
			<path class="st3" d="M1311.4,94.8c1,0,1-1.5,0-1.5C1310.5,93.2,1310.5,94.8,1311.4,94.8L1311.4,94.8z"/>
		</g>
	</g>
	<g>
		<g>
			<path class="st3" d="M1329.2,59.2c1,0,1-1.5,0-1.5C1328.3,57.7,1328.3,59.2,1329.2,59.2L1329.2,59.2z"/>
		</g>
	</g>
	<g>
		<g>
			<path class="st3" d="M1373.7,82.5c1,0,1-1.5,0-1.5C1372.7,81,1372.7,82.5,1373.7,82.5L1373.7,82.5z"/>
		</g>
	</g>
	<g>
		<g>
			<path class="st3" d="M1347,82.5c1,0,1-1.5,0-1.5C1346,81,1346,82.5,1347,82.5L1347,82.5z"/>
		</g>
	</g>
	<g>
		<g>
			<path class="st3" d="M1343.7,148.1c1,0,1-1.5,0-1.5C1342.7,146.6,1342.7,148.1,1343.7,148.1L1343.7,148.1z"/>
		</g>
	</g>
	<g>
		<g>
			<path class="st3" d="M1151.4,132.5c1,0,1-1.5,0-1.5C1150.5,131,1150.5,132.5,1151.4,132.5L1151.4,132.5z"/>
		</g>
	</g>
	<g>
		<g>
			<path class="st3" d="M1220.3,24.8c1,0,1-1.5,0-1.5C1219.4,23.2,1219.4,24.8,1220.3,24.8L1220.3,24.8z"/>
		</g>
	</g>
	<g>
		<g>
			<path class="st3" d="M1042.6,22.5c1,0,1-1.5,0-1.5C1041.6,21,1041.6,22.5,1042.6,22.5L1042.6,22.5z"/>
		</g>
	</g>
	<g>
		<g>
			<path class="st3" d="M993.7,175.9c1,0,1-1.5,0-1.5C992.7,174.4,992.7,175.9,993.7,175.9L993.7,175.9z"/>
		</g>
	</g>
	<g>
		<g>
			<path class="st3" d="M865.9,172.5c1,0,1-1.5,0-1.5C864.9,171,864.9,172.5,865.9,172.5L865.9,172.5z"/>
		</g>
	</g>
	<g>
		<g>
			<path class="st3" d="M853.7,103.6c1,0,1-1.5,0-1.5C852.7,102.1,852.7,103.6,853.7,103.6L853.7,103.6z"/>
		</g>
	</g>
	<g>
		<g>
			<path class="st3" d="M835.9,59.2c1,0,1-1.5,0-1.5C834.9,57.7,834.9,59.2,835.9,59.2L835.9,59.2z"/>
		</g>
	</g>
	<g>
		<g>
			<path class="st3" d="M921.4,25.9c1,0,1-1.5,0-1.5C920.5,24.4,920.5,25.9,921.4,25.9L921.4,25.9z"/>
		</g>
	</g>
	<g>
		<g>
			<path class="st3" d="M993.7,5.9c1,0,1-1.5,0-1.5C992.7,4.4,992.7,5.9,993.7,5.9L993.7,5.9z"/>
		</g>
	</g>
	<g>
		<g>
			<path class="st3" d="M1029.2,259.2c1,0,1-1.5,0-1.5C1028.3,257.7,1028.3,259.2,1029.2,259.2L1029.2,259.2z"/>
		</g>
	</g>
	<g>
		<g>
			<path class="st3" d="M984.8,283.6c1,0,1-1.5,0-1.5C983.8,282.1,983.8,283.6,984.8,283.6L984.8,283.6z"/>
		</g>
	</g>
	<g>
		<g>
			<path class="st3" d="M1007,393.6c1,0,1-1.5,0-1.5C1006,392.1,1006,393.6,1007,393.6L1007,393.6z"/>
		</g>
	</g>
	<g>
		<g>
			<path class="st3" d="M934.8,304.8c1,0,1-1.5,0-1.5C933.8,303.2,933.8,304.8,934.8,304.8L934.8,304.8z"/>
		</g>
	</g>
	<g>
		<g>
			<path class="st3" d="M1168.1,198.1c1,0,1-1.5,0-1.5C1167.1,196.6,1167.1,198.1,1168.1,198.1L1168.1,198.1z"/>
		</g>
	</g>
	<g>
		<g>
			<path class="st3" d="M1104.8,213.6c1,0,1-1.5,0-1.5C1103.8,212.1,1103.8,213.6,1104.8,213.6L1104.8,213.6z"/>
		</g>
	</g>
	<g>
		<g>
			<path class="st3" d="M1260.3,132.5c1,0,1-1.5,0-1.5C1259.4,131,1259.4,132.5,1260.3,132.5L1260.3,132.5z"/>
		</g>
	</g>
	<g>
		<g>
			<path class="st3" d="M1297,439.2c1,0,1-1.5,0-1.5C1296,437.7,1296,439.2,1297,439.2L1297,439.2z"/>
		</g>
	</g>
	<g>
		<g>
			<path class="st3" d="M1149.2,337c1,0,1-1.5,0-1.5C1148.3,335.5,1148.3,337,1149.2,337L1149.2,337z"/>
		</g>
	</g>
	<g>
		<g>
			<path class="st3" d="M799.2,169.2c1,0,1-1.5,0-1.5C798.3,167.7,798.3,169.2,799.2,169.2L799.2,169.2z"/>
		</g>
	</g>
	<g>
		<g>
			<path class="st3" d="M829.2,287c1,0,1-1.5,0-1.5C828.3,285.5,828.3,287,829.2,287L829.2,287z"/>
		</g>
	</g>
	<g>
		<g>
			<path class="st3" d="M1224.8,465.9c1,0,1-1.5,0-1.5C1223.8,464.4,1223.8,465.9,1224.8,465.9L1224.8,465.9z"/>
		</g>
	</g>
	<g>
		<g>
			<path class="st3" d="M1267,273.6c1,0,1-1.5,0-1.5C1266,272.1,1266,273.6,1267,273.6L1267,273.6z"/>
		</g>
	</g>
	<g>
		<g>
			<path class="st3" d="M590.2,362.8c1.9,0,1.9-3,0-3C588.2,359.8,588.2,362.8,590.2,362.8L590.2,362.8z"/>
		</g>
	</g>
	<g>
		<g>
			<path class="st3" d="M1266.8,243c1.9,0,1.9-3,0-3C1264.9,240,1264.9,243,1266.8,243L1266.8,243z"/>
		</g>
	</g>
	<g>
		<g>
			<path class="st3" d="M943.7,155.8c1.9,0,1.9-3,0-3C941.8,152.8,941.8,155.8,943.7,155.8L943.7,155.8z"/>
		</g>
	</g>
	<g>
		<g>
			<path class="st3" d="M953.9,39.6c1.9,0,1.9-3,0-3C952,36.6,952,39.6,953.9,39.6L953.9,39.6z"/>
		</g>
	</g>
	<g>
		<g>
			<path class="st3" d="M307.8,213.9c1.9,0,1.9-3,0-3C305.9,210.9,305.9,213.9,307.8,213.9L307.8,213.9z"/>
		</g>
	</g>
	<g>
		<g>
			<path class="st3" d="M264.6,97.7c1.9,0,1.9-3,0-3C262.6,94.7,262.6,97.7,264.6,97.7L264.6,97.7z"/>
		</g>
	</g>
	<g>
		<g>
			<path class="st3" d="M620.7,88.6c1.9,0,1.9-3,0-3C618.7,85.6,618.7,88.6,620.7,88.6L620.7,88.6z"/>
		</g>
	</g>
	<g>
		<g>
			<path class="st3" d="M719.9,466.3c1.9,0,1.9-3,0-3C718,463.3,718,466.3,719.9,466.3L719.9,466.3z"/>
		</g>
	</g>
	<g>
		<g>
			<path class="st3" d="M1027.7,364.6c1.9,0,1.9-3,0-3C1025.7,361.6,1025.7,364.6,1027.7,364.6L1027.7,364.6z"/>
		</g>
	</g>
	<g>
		<g>
			<path class="st3" d="M1200.7,417.3c1.9,0,1.9-3,0-3C1198.7,414.3,1198.7,417.3,1200.7,417.3L1200.7,417.3z"/>
		</g>
	</g>
	<g>
		<g>
			<path class="st3" d="M1335.5,319.2c1.9,0,1.9-3,0-3C1333.5,316.2,1333.5,319.2,1335.5,319.2L1335.5,319.2z"/>
		</g>
	</g>
	<g>
		<g>
			<path class="st3" d="M1185.4,520.8c1.9,0,1.9-3,0-3C1183.5,517.8,1183.5,520.8,1185.4,520.8L1185.4,520.8z"/>
		</g>
	</g>
	<g>
		<g>
			<path class="st3" d="M1167.6,604.3c1.9,0,1.9-3,0-3C1165.7,601.3,1165.7,604.3,1167.6,604.3L1167.6,604.3z"/>
		</g>
	</g>
	<g>
		<g>
			<path class="st3" d="M1025.1,646c1.9,0,1.9-3,0-3C1023.2,643,1023.2,646,1025.1,646L1025.1,646z"/>
		</g>
	</g>
	<g>
		<g>
			<path class="st3" d="M562.2,533.5c1.9,0,1.9-3,0-3C560.2,530.5,560.2,533.5,562.2,533.5L562.2,533.5z"/>
		</g>
	</g>
	<g>
		<g>
			<path class="st3" d="M1104,769.5c1.9,0,1.9-3,0-3C1102.1,766.5,1102.1,769.5,1104,769.5L1104,769.5z"/>
		</g>
	</g>
	<g>
		<g>
			<path class="st3" d="M1330.4,762.2c1.9,0,1.9-3,0-3C1328.5,759.2,1328.5,762.2,1330.4,762.2L1330.4,762.2z"/>
		</g>
	</g>
	<g>
		<g>
			<path class="st3" d="M671.6,691.4c1.9,0,1.9-3,0-3C669.6,688.4,669.6,691.4,671.6,691.4L671.6,691.4z"/>
		</g>
	</g>
	<g>
		<g>
			<path class="st3" d="M231.5,515.3c1.9,0,1.9-3,0-3C229.6,512.3,229.5,515.3,231.5,515.3L231.5,515.3z"/>
		</g>
	</g>
	<g>
		<g>
			<path class="st3" d="M267.1,400.9c1.9,0,1.9-3,0-3C265.2,397.9,265.2,400.9,267.1,400.9L267.1,400.9z"/>
		</g>
	</g>
	<g>
		<g>
			<path class="st3" d="M142.5,223c1.9,0,1.9-3,0-3C140.5,220,140.5,223,142.5,223L142.5,223z"/>
		</g>
	</g>
	<g>
		<g>
			<path class="st3" d="M25.4,128.6c1.9,0,1.9-3,0-3C23.5,125.6,23.5,128.6,25.4,128.6L25.4,128.6z"/>
		</g>
	</g>
	<g>
		<g>
			<path class="st3" d="M0,59.6c1.9,0,1.9-3,0-3C-1.9,56.6-1.9,59.6,0,59.6L0,59.6z"/>
		</g>
	</g>
	<g>
		<g>
			<path class="st3" d="M117,17.8c1.9,0,1.9-3,0-3C115.1,14.8,115.1,17.8,117,17.8L117,17.8z"/>
		</g>
	</g>
	<g>
		<g>
			<path class="st3" d="M73.8,355.5c1.9,0,1.9-3,0-3C71.8,352.5,71.8,355.5,73.8,355.5L73.8,355.5z"/>
		</g>
	</g>
	<g>
		<g>
			<path class="st3" d="M373.9,322.1c1,0,1-1.5,0-1.5C373,320.6,373,322.1,373.9,322.1L373.9,322.1z"/>
		</g>
	</g>
	<g>
		<g>
			<path class="st3" d="M544.4,207.7c1,0,1-1.5,0-1.5C543.4,206.2,543.4,207.7,544.4,207.7L544.4,207.7z"/>
		</g>
	</g>
	<g>
		<g>
			<path class="st3" d="M737.7,136.9c1,0,1-1.5,0-1.5C736.7,135.4,736.7,136.9,737.7,136.9L737.7,136.9z"/>
		</g>
	</g>
	<g>
		<g>
			<path class="st3" d="M1032.8,158.7c1,0,1-1.5,0-1.5C1031.8,157.2,1031.8,158.7,1032.8,158.7L1032.8,158.7z"/>
		</g>
	</g>
	<g>
		<g>
			<path class="st3" d="M1063.3,333c1,0,1-1.5,0-1.5C1062.3,331.5,1062.3,333,1063.3,333L1063.3,333z"/>
		</g>
	</g>
	<g>
		<g>
			<path class="st3" d="M1162.5,578.1c1,0,1-1.5,0-1.5C1161.5,576.6,1161.5,578.1,1162.5,578.1L1162.5,578.1z"/>
		</g>
	</g>
	<g>
		<g>
			<path class="st3" d="M821.6,663.4c1,0,1-1.5,0-1.5C820.7,661.9,820.7,663.4,821.6,663.4L821.6,663.4z"/>
		</g>
	</g>
	<g>
		<g>
			<path class="st3" d="M737.7,569c1,0,1-1.5,0-1.5C736.7,567.5,736.7,569,737.7,569L737.7,569z"/>
		</g>
	</g>
	<g>
		<g>
			<path class="st3" d="M1027.7,547.2c1,0,1-1.5,0-1.5C1026.7,545.7,1026.7,547.2,1027.7,547.2L1027.7,547.2z"/>
		</g>
	</g>
	<g>
		<g>
			<path class="st3" d="M864.9,398.4c1,0,1-1.5,0-1.5C863.9,396.9,863.9,398.4,864.9,398.4L864.9,398.4z"/>
		</g>
	</g>
	<g>
		<g>
			<path class="st3" d="M658.8,238.6c1,0,1-1.5,0-1.5C657.9,237.1,657.9,238.6,658.8,238.6L658.8,238.6z"/>
		</g>
	</g>
	<g>
		<g>
			<path class="st3" d="M1223.5,146c1,0,1-1.5,0-1.5C1222.6,144.5,1222.6,146,1223.5,146L1223.5,146z"/>
		</g>
	</g>
	<g>
		<g>
			<path class="st3" d="M1264.2,87.9c1,0,1-1.5,0-1.5C1263.3,86.4,1263.3,87.9,1264.2,87.9L1264.2,87.9z"/>
		</g>
	</g>
	<g>
		<g>
			<path class="st3" d="M1366,126c1,0,1-1.5,0-1.5C1365,124.5,1365,126,1366,126L1366,126z"/>
		</g>
	</g>
	<g>
		<g>
			<path class="st3" d="M1304.9,126c1,0,1-1.5,0-1.5C1304,124.5,1304,126,1304.9,126L1304.9,126z"/>
		</g>
	</g>
	<g>
		<g>
			<path class="st3" d="M1280.3,65.1c1,0,1-1.5,0-1.5C1279.4,63.6,1279.4,65.1,1280.3,65.1L1280.3,65.1z"/>
		</g>
	</g>
	<g>
		<g>
			<path class="st3" d="M857.2,207.7c1,0,1-1.5,0-1.5C856.3,206.2,856.3,207.7,857.2,207.7L857.2,207.7z"/>
		</g>
	</g>
	<g>
		<g>
			<path class="st3" d="M1015,31.6c1,0,1-1.5,0-1.5C1014,30.1,1014,31.6,1015,31.6L1015,31.6z"/>
		</g>
	</g>
	<g>
		<g>
			<path class="st3" d="M608,28c1,0,1-1.5,0-1.5C607,26.5,607,28,608,28L608,28z"/>
		</g>
	</g>
	<g>
		<g>
			<path class="st3" d="M496,278.5c1,0,1-1.5,0-1.5C495.1,277,495.1,278.5,496,278.5L496,278.5z"/>
		</g>
	</g>
	<g>
		<g>
			<path class="st3" d="M203.5,273.1c1,0,1-1.5,0-1.5C202.5,271.6,202.5,273.1,203.5,273.1L203.5,273.1z"/>
		</g>
	</g>
	<g>
		<g>
			<path class="st3" d="M175.5,160.5c1,0,1-1.5,0-1.5C174.6,159,174.6,160.5,175.5,160.5L175.5,160.5z"/>
		</g>
	</g>
	<g>
		<g>
			<path class="st3" d="M134.8,87.9c1,0,1-1.5,0-1.5C133.9,86.4,133.9,87.9,134.8,87.9L134.8,87.9z"/>
		</g>
	</g>
	<g>
		<g>
			<path class="st3" d="M330.7,33.4c1,0,1-1.5,0-1.5C329.7,31.9,329.7,33.4,330.7,33.4L330.7,33.4z"/>
		</g>
	</g>
	<g>
		<g>
			<path class="st3" d="M496,0.8c1,0,1-1.5,0-1.5C495.1-0.8,495.1,0.8,496,0.8L496,0.8z"/>
		</g>
	</g>
	<g>
		<g>
			<path class="st3" d="M577.4,414.7c1,0,1-1.5,0-1.5C576.5,413.2,576.5,414.7,577.4,414.7L577.4,414.7z"/>
		</g>
	</g>
	<g>
		<g>
			<path class="st3" d="M475.7,454.7c1,0,1-1.5,0-1.5C474.7,453.2,474.7,454.7,475.7,454.7L475.7,454.7z"/>
		</g>
	</g>
	<g>
		<g>
			<path class="st3" d="M526.6,634.4c1,0,1-1.5,0-1.5C525.6,632.9,525.6,634.4,526.6,634.4L526.6,634.4z"/>
		</g>
	</g>
	<g>
		<g>
			<path class="st3" d="M361.2,489.1c1,0,1-1.5,0-1.5C360.2,487.6,360.2,489.1,361.2,489.1L361.2,489.1z"/>
		</g>
	</g>
	<g>
		<g>
			<path class="st3" d="M240.4,533.8c1,0,1-1.5,0-1.5C239.4,532.3,239.4,533.8,240.4,533.8L240.4,533.8z"/>
		</g>
	</g>
	<g>
		<g>
			<path class="st3" d="M750.4,340.3c1,0,1-1.5,0-1.5C749.4,338.8,749.4,340.3,750.4,340.3L750.4,340.3z"/>
		</g>
	</g>
	<g>
		<g>
			<path class="st3" d="M1106.5,207.7c1,0,1-1.5,0-1.5C1105.6,206.2,1105.6,207.7,1106.5,207.7L1106.5,207.7z"/>
		</g>
	</g>
	<g>
		<g>
			<path class="st3" d="M1190.5,708.8c1,0,1-1.5,0-1.5C1189.5,707.3,1189.5,708.8,1190.5,708.8L1190.5,708.8z"/>
		</g>
	</g>
	<g>
		<g>
			<path class="st3" d="M852.2,541.8c1,0,1-1.5,0-1.5C851.2,540.3,851.2,541.8,852.2,541.8L852.2,541.8z"/>
		</g>
	</g>
	<g>
		<g>
			<path class="st3" d="M50.9,267.6c1,0,1-1.5,0-1.5C49.9,266.1,49.9,267.6,50.9,267.6L50.9,267.6z"/>
		</g>
	</g>
	<g>
		<g>
			<path class="st3" d="M119.6,460.1c1,0,1-1.5,0-1.5C118.6,458.6,118.6,460.1,119.6,460.1L119.6,460.1z"/>
		</g>
	</g>
	<g>
		<g>
			<path class="st3" d="M1025.1,752.4c1,0,1-1.5,0-1.5C1024.2,750.9,1024.2,752.4,1025.1,752.4L1025.1,752.4z"/>
		</g>
	</g>
	<g>
		<g>
			<path class="st3" d="M1121.8,438.3c1,0,1-1.5,0-1.5C1120.8,436.8,1120.8,438.3,1121.8,438.3L1121.8,438.3z"/>
		</g>
	</g>
</g>
</svg>
